<?xml version="1.0" encoding="utf-8"?>
<svg version="1.1" xmlns:xlink="http://www.w3.org/1999/xlink" width="16px" height="16px" xmlns="http://www.w3.org/2000/svg">
  <g transform="matrix(1 0 0 1 -20 -34 )">
    <path d="M 12.8888888905071 4.88888889063065  C 12.8888888905071 2.18883011271819  10.7000587778442 0  8 0  C 5.29994122215581 0  3.11111110949291 2.18883011271819  3.11111110949291 4.88888889063065  C 3.11111110949291 7.58894766854316  5.29994122215581 9.77777778126135  8 9.77777778126135  C 10.7000587778442 9.77777778126135  12.8888888905071 7.58894766854316  12.8888888905071 4.88888889063065  Z M 12 4.88888889022615  C 12 7.09802788960516  10.2091389993232 8.88888889032729  8 8.88888889032729  C 5.79086100067679 8.88888889032729  4 7.09802788960516  4 4.88888889022615  C 4 2.67974989084708  5.79086100067679 0.888888890125015  8 0.888888890125015  C 10.2091389993232 0.888888890125015  12 2.67974989084708  12 4.88888889022615  Z M 16 11.5555555625227  L 8 9.77777778126135  L 0 11.5555555625227  L 0 16  L 16 16  L 16 11.5555555625227  Z M 8 10.6888888905245  L 8.46666667187517 10.7911111093613  L 8.76888889065875 12.6844444373822  L 8 13.4799999998857  L 7.22666667182458 12.6799999998655  L 7.5555555626351 10.7911111093613  L 8 10.6888888905245  Z M 15.1111111094929 12.2666666716291  L 15.1111111094929 15  L 0.888888890507091 15  L 0.888888890507091 12.2666666716291  L 6.60444443746608 10.9999999999242  L 6.27999999994941 12.97777778114  L 8.00444443751667 14.7555555626036  L 9.72000000005059 12.97777778114  L 9.40000000005059 10.9955555624074  L 15.1111111094929 12.2666666716291  Z " fill-rule="nonzero" fill="#000000" stroke="none" transform="matrix(1 0 0 1 20 34 )" />
  </g>
</svg>