<?xml version="1.0" encoding="utf-8"?>
<svg version="1.1" xmlns:xlink="http://www.w3.org/1999/xlink" width="16px" height="16px" xmlns="http://www.w3.org/2000/svg">
  <g transform="matrix(1 0 0 1 -732 -34 )">
    <path d="M 16 0  L 16 16  L 0 16  L 0 0  L 3.42222222916666 0  L 3.42222222916666 1.33333333333331  L 1.33333333333337 1.33333333333331  L 1.33333333333337 14.6666666666667  L 14.6666666666666 14.6666666666667  L 14.6666666666666 1.33333333333331  L 12.5777777708333 1.33333333333331  L 12.5777777708333 0  L 16 0  Z M 5.77777777083338 1.33333333333331  L 5.77777777083338 0  L 10.2222222291666 0  L 10.2222222291666 1.33333333333331  L 5.77777777083338 1.33333333333331  Z M 4.44444443750001 7.11111110416664  L 4.44444443750001 5.77777777083332  L 11.5555555625 5.77777777083332  L 11.5555555625 7.11111110416664  L 4.44444443750001 7.11111110416664  Z M 4.44444443750001 10.2222222291667  L 4.44444443750001 8.88888889583336  L 11.5555555625 8.88888889583336  L 11.5555555625 10.2222222291667  L 4.44444443750001 10.2222222291667  Z " fill-rule="nonzero" fill="#000000" stroke="none" transform="matrix(1 0 0 1 732 34 )" />
  </g>
</svg>