<?xml version="1.0" encoding="utf-8"?>
<svg version="1.1" xmlns:xlink="http://www.w3.org/1999/xlink" width="12px" height="12px" viewBox="562 159  12 12" xmlns="http://www.w3.org/2000/svg">
  <path d="M 568 159  C 571.36 159  574 161.64  574 165  C 574 168.36  571.36 171  568 171  C 564.64 171  562 168.36  562 165  C 562 161.64  564.64 159  568 159  Z " fill-rule="nonzero" fill="#ffffff" stroke="none" />
  <path d="M 568 159.5  C 571.08 159.5  573.5 161.92  573.5 165  C 573.5 168.08  571.08 170.5  568 170.5  C 564.92 170.5  562.5 168.08  562.5 165  C 562.5 161.92  564.92 159.5  568 159.5  Z " stroke-width="1" stroke="#797979" fill="none" />
  <path d="M 568 168  C 566.32 168  565 166.68  565 165  C 565 163.32  566.32 162  568 162  C 569.68 162  571 163.32  571 165  C 571 166.68  569.68 168  568 168  " fill-rule="nonzero" fill="#797979" stroke="none" />
</svg>