<?xml version="1.0" encoding="utf-8"?>
<svg version="1.1" xmlns:xlink="http://www.w3.org/1999/xlink" width="12px" height="12px" viewBox="616 206  12 12" xmlns="http://www.w3.org/2000/svg">
  <path d="M 622 206  C 625.36 206  628 208.64  628 212  C 628 215.36  625.36 218  622 218  C 618.64 218  616 215.36  616 212  C 616 208.64  618.64 206  622 206  Z " fill-rule="nonzero" fill="#ffffff" stroke="none" />
  <path d="M 622 206.5  C 625.08 206.5  627.5 208.92  627.5 212  C 627.5 215.08  625.08 217.5  622 217.5  C 618.92 217.5  616.5 215.08  616.5 212  C 616.5 208.92  618.92 206.5  622 206.5  Z " stroke-width="1" stroke="#797979" fill="none" />
  <path d="M 622 215  C 620.32 215  619 213.68  619 212  C 619 210.32  620.32 209  622 209  C 623.68 209  625 210.32  625 212  C 625 213.68  623.68 215  622 215  " fill-rule="nonzero" fill="#797979" stroke="none" />
</svg>