<?xml version="1.0" encoding="utf-8"?>
<svg version="1.1" xmlns:xlink="http://www.w3.org/1999/xlink" width="12px" height="12px" viewBox="562 111  12 12" xmlns="http://www.w3.org/2000/svg">
  <path d="M 568 111  C 571.36 111  574 113.64  574 117  C 574 120.36  571.36 123  568 123  C 564.64 123  562 120.36  562 117  C 562 113.64  564.64 111  568 111  Z " fill-rule="nonzero" fill="#ffffff" stroke="none" />
  <path d="M 568 111.5  C 571.08 111.5  573.5 113.92  573.5 117  C 573.5 120.08  571.08 122.5  568 122.5  C 564.92 122.5  562.5 120.08  562.5 117  C 562.5 113.92  564.92 111.5  568 111.5  Z " stroke-width="1" stroke="#797979" fill="none" />
  <path d="M 568 120  C 566.32 120  565 118.68  565 117  C 565 115.32  566.32 114  568 114  C 569.68 114  571 115.32  571 117  C 571 118.68  569.68 120  568 120  " fill-rule="nonzero" fill="#797979" stroke="none" />
</svg>