<?xml version="1.0" encoding="utf-8"?>
<svg version="1.1" xmlns:xlink="http://www.w3.org/1999/xlink" width="12px" height="12px" viewBox="616 300  12 12" xmlns="http://www.w3.org/2000/svg">
  <path d="M 622 300  C 625.36 300  628 302.64  628 306  C 628 309.36  625.36 312  622 312  C 618.64 312  616 309.36  616 306  C 616 302.64  618.64 300  622 300  Z " fill-rule="nonzero" fill="#ffffff" stroke="none" />
  <path d="M 622 300.5  C 625.08 300.5  627.5 302.92  627.5 306  C 627.5 309.08  625.08 311.5  622 311.5  C 618.92 311.5  616.5 309.08  616.5 306  C 616.5 302.92  618.92 300.5  622 300.5  Z " stroke-width="1" stroke="#797979" fill="none" />
  <path d="M 622 309  C 620.32 309  619 307.68  619 306  C 619 304.32  620.32 303  622 303  C 623.68 303  625 304.32  625 306  C 625 307.68  623.68 309  622 309  " fill-rule="nonzero" fill="#797979" stroke="none" />
</svg>