<?xml version="1.0" encoding="utf-8"?>
<svg version="1.1" xmlns:xlink="http://www.w3.org/1999/xlink" width="12px" height="12px" viewBox="616 159  12 12" xmlns="http://www.w3.org/2000/svg">
  <path d="M 622 159  C 625.36 159  628 161.64  628 165  C 628 168.36  625.36 171  622 171  C 618.64 171  616 168.36  616 165  C 616 161.64  618.64 159  622 159  Z " fill-rule="nonzero" fill="#ffffff" stroke="none" />
  <path d="M 622 159.5  C 625.08 159.5  627.5 161.92  627.5 165  C 627.5 168.08  625.08 170.5  622 170.5  C 618.92 170.5  616.5 168.08  616.5 165  C 616.5 161.92  618.92 159.5  622 159.5  Z " stroke-width="1" stroke="#797979" fill="none" />
  <path d="M 622 168  C 620.32 168  619 166.68  619 165  C 619 163.32  620.32 162  622 162  C 623.68 162  625 163.32  625 165  C 625 166.68  623.68 168  622 168  " fill-rule="nonzero" fill="#797979" stroke="none" />
</svg>