<?xml version="1.0" encoding="utf-8"?>
<svg version="1.1" xmlns:xlink="http://www.w3.org/1999/xlink" width="12px" height="12px" viewBox="616 348  12 12" xmlns="http://www.w3.org/2000/svg">
  <path d="M 622 348  C 625.36 348  628 350.64  628 354  C 628 357.36  625.36 360  622 360  C 618.64 360  616 357.36  616 354  C 616 350.64  618.64 348  622 348  Z " fill-rule="nonzero" fill="#ffffff" stroke="none" />
  <path d="M 622 348.5  C 625.08 348.5  627.5 350.92  627.5 354  C 627.5 357.08  625.08 359.5  622 359.5  C 618.92 359.5  616.5 357.08  616.5 354  C 616.5 350.92  618.92 348.5  622 348.5  Z " stroke-width="1" stroke="#797979" fill="none" />
  <path d="M 622 357  C 620.32 357  619 355.68  619 354  C 619 352.32  620.32 351  622 351  C 623.68 351  625 352.32  625 354  C 625 355.68  623.68 357  622 357  " fill-rule="nonzero" fill="#797979" stroke="none" />
</svg>