<?xml version="1.0" encoding="utf-8"?>
<svg version="1.1" xmlns:xlink="http://www.w3.org/1999/xlink" width="12px" height="12px" viewBox="562 441  12 12" xmlns="http://www.w3.org/2000/svg">
  <path d="M 568 441  C 571.36 441  574 443.64  574 447  C 574 450.36  571.36 453  568 453  C 564.64 453  562 450.36  562 447  C 562 443.64  564.64 441  568 441  Z " fill-rule="nonzero" fill="#ffffff" stroke="none" />
  <path d="M 568 441.5  C 571.08 441.5  573.5 443.92  573.5 447  C 573.5 450.08  571.08 452.5  568 452.5  C 564.92 452.5  562.5 450.08  562.5 447  C 562.5 443.92  564.92 441.5  568 441.5  Z " stroke-width="1" stroke="#797979" fill="none" />
  <path d="M 568 450  C 566.32 450  565 448.68  565 447  C 565 445.32  566.32 444  568 444  C 569.68 444  571 445.32  571 447  C 571 448.68  569.68 450  568 450  " fill-rule="nonzero" fill="#797979" stroke="none" />
</svg>