<?xml version="1.0" encoding="utf-8"?>
<svg version="1.1" xmlns:xlink="http://www.w3.org/1999/xlink" width="12px" height="12px" viewBox="562 678  12 12" xmlns="http://www.w3.org/2000/svg">
  <path d="M 568 678  C 571.36 678  574 680.64  574 684  C 574 687.36  571.36 690  568 690  C 564.64 690  562 687.36  562 684  C 562 680.64  564.64 678  568 678  Z " fill-rule="nonzero" fill="#ffffff" stroke="none" />
  <path d="M 568 678.5  C 571.08 678.5  573.5 680.92  573.5 684  C 573.5 687.08  571.08 689.5  568 689.5  C 564.92 689.5  562.5 687.08  562.5 684  C 562.5 680.92  564.92 678.5  568 678.5  Z " stroke-width="1" stroke="#797979" fill="none" />
  <path d="M 568 687  C 566.32 687  565 685.68  565 684  C 565 682.32  566.32 681  568 681  C 569.68 681  571 682.32  571 684  C 571 685.68  569.68 687  568 687  " fill-rule="nonzero" fill="#797979" stroke="none" />
</svg>