<?xml version="1.0" encoding="utf-8"?>
<svg version="1.1" xmlns:xlink="http://www.w3.org/1999/xlink" width="12px" height="12px" viewBox="616 489  12 12" xmlns="http://www.w3.org/2000/svg">
  <path d="M 622 489  C 625.36 489  628 491.64  628 495  C 628 498.36  625.36 501  622 501  C 618.64 501  616 498.36  616 495  C 616 491.64  618.64 489  622 489  Z " fill-rule="nonzero" fill="#ffffff" stroke="none" />
  <path d="M 622 489.5  C 625.08 489.5  627.5 491.92  627.5 495  C 627.5 498.08  625.08 500.5  622 500.5  C 618.92 500.5  616.5 498.08  616.5 495  C 616.5 491.92  618.92 489.5  622 489.5  Z " stroke-width="1" stroke="#797979" fill="none" />
  <path d="M 622 498  C 620.32 498  619 496.68  619 495  C 619 493.32  620.32 492  622 492  C 623.68 492  625 493.32  625 495  C 625 496.68  623.68 498  622 498  " fill-rule="nonzero" fill="#797979" stroke="none" />
</svg>