<?xml version="1.0" encoding="utf-8"?>
<svg version="1.1" xmlns:xlink="http://www.w3.org/1999/xlink" width="12px" height="12px" viewBox="616 630  12 12" xmlns="http://www.w3.org/2000/svg">
  <path d="M 622 630  C 625.36 630  628 632.64  628 636  C 628 639.36  625.36 642  622 642  C 618.64 642  616 639.36  616 636  C 616 632.64  618.64 630  622 630  Z " fill-rule="nonzero" fill="#ffffff" stroke="none" />
  <path d="M 622 630.5  C 625.08 630.5  627.5 632.92  627.5 636  C 627.5 639.08  625.08 641.5  622 641.5  C 618.92 641.5  616.5 639.08  616.5 636  C 616.5 632.92  618.92 630.5  622 630.5  Z " stroke-width="1" stroke="#797979" fill="none" />
  <path d="M 622 639  C 620.32 639  619 637.68  619 636  C 619 634.32  620.32 633  622 633  C 623.68 633  625 634.32  625 636  C 625 637.68  623.68 639  622 639  " fill-rule="nonzero" fill="#797979" stroke="none" />
</svg>