<?xml version="1.0" encoding="utf-8"?>
<svg version="1.1" xmlns:xlink="http://www.w3.org/1999/xlink" width="12px" height="12px" viewBox="562 583  12 12" xmlns="http://www.w3.org/2000/svg">
  <path d="M 568 583  C 571.36 583  574 585.64  574 589  C 574 592.36  571.36 595  568 595  C 564.64 595  562 592.36  562 589  C 562 585.64  564.64 583  568 583  Z " fill-rule="nonzero" fill="#ffffff" stroke="none" />
  <path d="M 568 583.5  C 571.08 583.5  573.5 585.92  573.5 589  C 573.5 592.08  571.08 594.5  568 594.5  C 564.92 594.5  562.5 592.08  562.5 589  C 562.5 585.92  564.92 583.5  568 583.5  Z " stroke-width="1" stroke="#797979" fill="none" />
  <path d="M 568 592  C 566.32 592  565 590.68  565 589  C 565 587.32  566.32 586  568 586  C 569.68 586  571 587.32  571 589  C 571 590.68  569.68 592  568 592  " fill-rule="nonzero" fill="#797979" stroke="none" />
</svg>