<?xml version="1.0" encoding="utf-8"?>
<svg version="1.1" xmlns:xlink="http://www.w3.org/1999/xlink" width="12px" height="12px" viewBox="562 630  12 12" xmlns="http://www.w3.org/2000/svg">
  <path d="M 568 630  C 571.36 630  574 632.64  574 636  C 574 639.36  571.36 642  568 642  C 564.64 642  562 639.36  562 636  C 562 632.64  564.64 630  568 630  Z " fill-rule="nonzero" fill="#ffffff" stroke="none" />
  <path d="M 568 630.5  C 571.08 630.5  573.5 632.92  573.5 636  C 573.5 639.08  571.08 641.5  568 641.5  C 564.92 641.5  562.5 639.08  562.5 636  C 562.5 632.92  564.92 630.5  568 630.5  Z " stroke-width="1" stroke="#797979" fill="none" />
  <path d="M 568 639  C 566.32 639  565 637.68  565 636  C 565 634.32  566.32 633  568 633  C 569.68 633  571 634.32  571 636  C 571 637.68  569.68 639  568 639  " fill-rule="nonzero" fill="#797979" stroke="none" />
</svg>