<?xml version="1.0" encoding="utf-8"?>
<svg version="1.1" xmlns:xlink="http://www.w3.org/1999/xlink" width="12px" height="12px" viewBox="616 678  12 12" xmlns="http://www.w3.org/2000/svg">
  <path d="M 622 678  C 625.36 678  628 680.64  628 684  C 628 687.36  625.36 690  622 690  C 618.64 690  616 687.36  616 684  C 616 680.64  618.64 678  622 678  Z " fill-rule="nonzero" fill="#ffffff" stroke="none" />
  <path d="M 622 678.5  C 625.08 678.5  627.5 680.92  627.5 684  C 627.5 687.08  625.08 689.5  622 689.5  C 618.92 689.5  616.5 687.08  616.5 684  C 616.5 680.92  618.92 678.5  622 678.5  Z " stroke-width="1" stroke="#797979" fill="none" />
  <path d="M 622 687  C 620.32 687  619 685.68  619 684  C 619 682.32  620.32 681  622 681  C 623.68 681  625 682.32  625 684  C 625 685.68  623.68 687  622 687  " fill-rule="nonzero" fill="#797979" stroke="none" />
</svg>