<?xml version="1.0" encoding="utf-8"?>
<svg version="1.1" xmlns:xlink="http://www.w3.org/1999/xlink" width="12px" height="12px" viewBox="616 809  12 12" xmlns="http://www.w3.org/2000/svg">
  <path d="M 622 809  C 625.36 809  628 811.64  628 815  C 628 818.36  625.36 821  622 821  C 618.64 821  616 818.36  616 815  C 616 811.64  618.64 809  622 809  Z " fill-rule="nonzero" fill="#ffffff" stroke="none" />
  <path d="M 622 809.5  C 625.08 809.5  627.5 811.92  627.5 815  C 627.5 818.08  625.08 820.5  622 820.5  C 618.92 820.5  616.5 818.08  616.5 815  C 616.5 811.92  618.92 809.5  622 809.5  Z " stroke-width="1" stroke="#797979" fill="none" />
  <path d="M 622 818  C 620.32 818  619 816.68  619 815  C 619 813.32  620.32 812  622 812  C 623.68 812  625 813.32  625 815  C 625 816.68  623.68 818  622 818  " fill-rule="nonzero" fill="#797979" stroke="none" />
</svg>