<?xml version="1.0" encoding="utf-8"?>
<svg version="1.1" xmlns:xlink="http://www.w3.org/1999/xlink" width="12px" height="12px" viewBox="562 904  12 12" xmlns="http://www.w3.org/2000/svg">
  <path d="M 568 904  C 571.36 904  574 906.64  574 910  C 574 913.36  571.36 916  568 916  C 564.64 916  562 913.36  562 910  C 562 906.64  564.64 904  568 904  Z " fill-rule="nonzero" fill="#ffffff" stroke="none" />
  <path d="M 568 904.5  C 571.08 904.5  573.5 906.92  573.5 910  C 573.5 913.08  571.08 915.5  568 915.5  C 564.92 915.5  562.5 913.08  562.5 910  C 562.5 906.92  564.92 904.5  568 904.5  Z " stroke-width="1" stroke="#797979" fill="none" />
  <path d="M 568 913  C 566.32 913  565 911.68  565 910  C 565 908.32  566.32 907  568 907  C 569.68 907  571 908.32  571 910  C 571 911.68  569.68 913  568 913  " fill-rule="nonzero" fill="#797979" stroke="none" />
</svg>