<?xml version="1.0" encoding="utf-8"?>
<svg version="1.1" xmlns:xlink="http://www.w3.org/1999/xlink" width="12px" height="12px" viewBox="616 904  12 12" xmlns="http://www.w3.org/2000/svg">
  <path d="M 622 904  C 625.36 904  628 906.64  628 910  C 628 913.36  625.36 916  622 916  C 618.64 916  616 913.36  616 910  C 616 906.64  618.64 904  622 904  Z " fill-rule="nonzero" fill="#ffffff" stroke="none" />
  <path d="M 622 904.5  C 625.08 904.5  627.5 906.92  627.5 910  C 627.5 913.08  625.08 915.5  622 915.5  C 618.92 915.5  616.5 913.08  616.5 910  C 616.5 906.92  618.92 904.5  622 904.5  Z " stroke-width="1" stroke="#797979" fill="none" />
  <path d="M 622 913  C 620.32 913  619 911.68  619 910  C 619 908.32  620.32 907  622 907  C 623.68 907  625 908.32  625 910  C 625 911.68  623.68 913  622 913  " fill-rule="nonzero" fill="#797979" stroke="none" />
</svg>