<?xml version="1.0" encoding="utf-8"?>
<svg version="1.1" xmlns:xlink="http://www.w3.org/1999/xlink" width="12px" height="12px" viewBox="562 998  12 12" xmlns="http://www.w3.org/2000/svg">
  <path d="M 568 998  C 571.36 998  574 1000.64  574 1004  C 574 1007.36  571.36 1010  568 1010  C 564.64 1010  562 1007.36  562 1004  C 562 1000.64  564.64 998  568 998  Z " fill-rule="nonzero" fill="#ffffff" stroke="none" />
  <path d="M 568 998.5  C 571.08 998.5  573.5 1000.92  573.5 1004  C 573.5 1007.08  571.08 1009.5  568 1009.5  C 564.92 1009.5  562.5 1007.08  562.5 1004  C 562.5 1000.92  564.92 998.5  568 998.5  Z " stroke-width="1" stroke="#797979" fill="none" />
  <path d="M 568 1007  C 566.32 1007  565 1005.68  565 1004  C 565 1002.32  566.32 1001  568 1001  C 569.68 1001  571 1002.32  571 1004  C 571 1005.68  569.68 1007  568 1007  " fill-rule="nonzero" fill="#797979" stroke="none" />
</svg>