<?xml version="1.0" encoding="utf-8"?>
<svg version="1.1" xmlns:xlink="http://www.w3.org/1999/xlink" width="12px" height="12px" viewBox="616 951  12 12" xmlns="http://www.w3.org/2000/svg">
  <path d="M 622 951  C 625.36 951  628 953.64  628 957  C 628 960.36  625.36 963  622 963  C 618.64 963  616 960.36  616 957  C 616 953.64  618.64 951  622 951  Z " fill-rule="nonzero" fill="#ffffff" stroke="none" />
  <path d="M 622 951.5  C 625.08 951.5  627.5 953.92  627.5 957  C 627.5 960.08  625.08 962.5  622 962.5  C 618.92 962.5  616.5 960.08  616.5 957  C 616.5 953.92  618.92 951.5  622 951.5  Z " stroke-width="1" stroke="#797979" fill="none" />
  <path d="M 622 960  C 620.32 960  619 958.68  619 957  C 619 955.32  620.32 954  622 954  C 623.68 954  625 955.32  625 957  C 625 958.68  623.68 960  622 960  " fill-rule="nonzero" fill="#797979" stroke="none" />
</svg>