<?xml version="1.0" encoding="utf-8"?>
<svg version="1.1" xmlns:xlink="http://www.w3.org/1999/xlink" width="12px" height="12px" viewBox="562 1139  12 12" xmlns="http://www.w3.org/2000/svg">
  <path d="M 568 1139  C 571.36 1139  574 1141.64  574 1145  C 574 1148.36  571.36 1151  568 1151  C 564.64 1151  562 1148.36  562 1145  C 562 1141.64  564.64 1139  568 1139  Z " fill-rule="nonzero" fill="#ffffff" stroke="none" />
  <path d="M 568 1139.5  C 571.08 1139.5  573.5 1141.92  573.5 1145  C 573.5 1148.08  571.08 1150.5  568 1150.5  C 564.92 1150.5  562.5 1148.08  562.5 1145  C 562.5 1141.92  564.92 1139.5  568 1139.5  Z " stroke-width="1" stroke="#797979" fill="none" />
  <path d="M 568 1148  C 566.32 1148  565 1146.68  565 1145  C 565 1143.32  566.32 1142  568 1142  C 569.68 1142  571 1143.32  571 1145  C 571 1146.68  569.68 1148  568 1148  " fill-rule="nonzero" fill="#797979" stroke="none" />
</svg>