<?xml version="1.0" encoding="utf-8"?>
<svg version="1.1" xmlns:xlink="http://www.w3.org/1999/xlink" width="12px" height="12px" viewBox="616 1187  12 12" xmlns="http://www.w3.org/2000/svg">
  <path d="M 622 1187  C 625.36 1187  628 1189.64  628 1193  C 628 1196.36  625.36 1199  622 1199  C 618.64 1199  616 1196.36  616 1193  C 616 1189.64  618.64 1187  622 1187  Z " fill-rule="nonzero" fill="#ffffff" stroke="none" />
  <path d="M 622 1187.5  C 625.08 1187.5  627.5 1189.92  627.5 1193  C 627.5 1196.08  625.08 1198.5  622 1198.5  C 618.92 1198.5  616.5 1196.08  616.5 1193  C 616.5 1189.92  618.92 1187.5  622 1187.5  Z " stroke-width="1" stroke="#797979" fill="none" />
  <path d="M 622 1196  C 620.32 1196  619 1194.68  619 1193  C 619 1191.32  620.32 1190  622 1190  C 623.68 1190  625 1191.32  625 1193  C 625 1194.68  623.68 1196  622 1196  " fill-rule="nonzero" fill="#797979" stroke="none" />
</svg>