<?xml version="1.0" encoding="utf-8"?>
<svg version="1.1" xmlns:xlink="http://www.w3.org/1999/xlink" width="12px" height="12px" viewBox="616 1234  12 12" xmlns="http://www.w3.org/2000/svg">
  <path d="M 622 1234  C 625.36 1234  628 1236.64  628 1240  C 628 1243.36  625.36 1246  622 1246  C 618.64 1246  616 1243.36  616 1240  C 616 1236.64  618.64 1234  622 1234  Z " fill-rule="nonzero" fill="#ffffff" stroke="none" />
  <path d="M 622 1234.5  C 625.08 1234.5  627.5 1236.92  627.5 1240  C 627.5 1243.08  625.08 1245.5  622 1245.5  C 618.92 1245.5  616.5 1243.08  616.5 1240  C 616.5 1236.92  618.92 1234.5  622 1234.5  Z " stroke-width="1" stroke="#797979" fill="none" />
  <path d="M 622 1243  C 620.32 1243  619 1241.68  619 1240  C 619 1238.32  620.32 1237  622 1237  C 623.68 1237  625 1238.32  625 1240  C 625 1241.68  623.68 1243  622 1243  " fill-rule="nonzero" fill="#797979" stroke="none" />
</svg>