<?xml version="1.0" encoding="utf-8"?>
<svg version="1.1" xmlns:xlink="http://www.w3.org/1999/xlink" width="12px" height="12px" viewBox="562 1328  12 12" xmlns="http://www.w3.org/2000/svg">
  <path d="M 568 1328  C 571.36 1328  574 1330.64  574 1334  C 574 1337.36  571.36 1340  568 1340  C 564.64 1340  562 1337.36  562 1334  C 562 1330.64  564.64 1328  568 1328  Z " fill-rule="nonzero" fill="#ffffff" stroke="none" />
  <path d="M 568 1328.5  C 571.08 1328.5  573.5 1330.92  573.5 1334  C 573.5 1337.08  571.08 1339.5  568 1339.5  C 564.92 1339.5  562.5 1337.08  562.5 1334  C 562.5 1330.92  564.92 1328.5  568 1328.5  Z " stroke-width="1" stroke="#797979" fill="none" />
  <path d="M 568 1337  C 566.32 1337  565 1335.68  565 1334  C 565 1332.32  566.32 1331  568 1331  C 569.68 1331  571 1332.32  571 1334  C 571 1335.68  569.68 1337  568 1337  " fill-rule="nonzero" fill="#797979" stroke="none" />
</svg>