<?xml version="1.0" encoding="utf-8"?>
<svg version="1.1" xmlns:xlink="http://www.w3.org/1999/xlink" width="12px" height="12px" viewBox="616 1281  12 12" xmlns="http://www.w3.org/2000/svg">
  <path d="M 622 1281  C 625.36 1281  628 1283.64  628 1287  C 628 1290.36  625.36 1293  622 1293  C 618.64 1293  616 1290.36  616 1287  C 616 1283.64  618.64 1281  622 1281  Z " fill-rule="nonzero" fill="#ffffff" stroke="none" />
  <path d="M 622 1281.5  C 625.08 1281.5  627.5 1283.92  627.5 1287  C 627.5 1290.08  625.08 1292.5  622 1292.5  C 618.92 1292.5  616.5 1290.08  616.5 1287  C 616.5 1283.92  618.92 1281.5  622 1281.5  Z " stroke-width="1" stroke="#797979" fill="none" />
  <path d="M 622 1290  C 620.32 1290  619 1288.68  619 1287  C 619 1285.32  620.32 1284  622 1284  C 623.68 1284  625 1285.32  625 1287  C 625 1288.68  623.68 1290  622 1290  " fill-rule="nonzero" fill="#797979" stroke="none" />
</svg>