<?xml version="1.0" encoding="utf-8"?>
<svg version="1.1" xmlns:xlink="http://www.w3.org/1999/xlink" width="12px" height="12px" viewBox="562 1376  12 12" xmlns="http://www.w3.org/2000/svg">
  <path d="M 568 1376  C 571.36 1376  574 1378.64  574 1382  C 574 1385.36  571.36 1388  568 1388  C 564.64 1388  562 1385.36  562 1382  C 562 1378.64  564.64 1376  568 1376  Z " fill-rule="nonzero" fill="#ffffff" stroke="none" />
  <path d="M 568 1376.5  C 571.08 1376.5  573.5 1378.92  573.5 1382  C 573.5 1385.08  571.08 1387.5  568 1387.5  C 564.92 1387.5  562.5 1385.08  562.5 1382  C 562.5 1378.92  564.92 1376.5  568 1376.5  Z " stroke-width="1" stroke="#797979" fill="none" />
  <path d="M 568 1385  C 566.32 1385  565 1383.68  565 1382  C 565 1380.32  566.32 1379  568 1379  C 569.68 1379  571 1380.32  571 1382  C 571 1383.68  569.68 1385  568 1385  " fill-rule="nonzero" fill="#797979" stroke="none" />
</svg>