<?xml version="1.0" encoding="utf-8"?>
<svg version="1.1" xmlns:xlink="http://www.w3.org/1999/xlink" width="12px" height="12px" viewBox="616 1376  12 12" xmlns="http://www.w3.org/2000/svg">
  <path d="M 622 1376  C 625.36 1376  628 1378.64  628 1382  C 628 1385.36  625.36 1388  622 1388  C 618.64 1388  616 1385.36  616 1382  C 616 1378.64  618.64 1376  622 1376  Z " fill-rule="nonzero" fill="#ffffff" stroke="none" />
  <path d="M 622 1376.5  C 625.08 1376.5  627.5 1378.92  627.5 1382  C 627.5 1385.08  625.08 1387.5  622 1387.5  C 618.92 1387.5  616.5 1385.08  616.5 1382  C 616.5 1378.92  618.92 1376.5  622 1376.5  Z " stroke-width="1" stroke="#797979" fill="none" />
  <path d="M 622 1385  C 620.32 1385  619 1383.68  619 1382  C 619 1380.32  620.32 1379  622 1379  C 623.68 1379  625 1380.32  625 1382  C 625 1383.68  623.68 1385  622 1385  " fill-rule="nonzero" fill="#797979" stroke="none" />
</svg>