<?xml version="1.0" encoding="utf-8"?>
<svg version="1.1" xmlns:xlink="http://www.w3.org/1999/xlink" width="12px" height="12px" viewBox="562 1508  12 12" xmlns="http://www.w3.org/2000/svg">
  <path d="M 568 1508  C 571.36 1508  574 1510.64  574 1514  C 574 1517.36  571.36 1520  568 1520  C 564.64 1520  562 1517.36  562 1514  C 562 1510.64  564.64 1508  568 1508  Z " fill-rule="nonzero" fill="#ffffff" stroke="none" />
  <path d="M 568 1508.5  C 571.08 1508.5  573.5 1510.92  573.5 1514  C 573.5 1517.08  571.08 1519.5  568 1519.5  C 564.92 1519.5  562.5 1517.08  562.5 1514  C 562.5 1510.92  564.92 1508.5  568 1508.5  Z " stroke-width="1" stroke="#797979" fill="none" />
  <path d="M 568 1517  C 566.32 1517  565 1515.68  565 1514  C 565 1512.32  566.32 1511  568 1511  C 569.68 1511  571 1512.32  571 1514  C 571 1515.68  569.68 1517  568 1517  " fill-rule="nonzero" fill="#797979" stroke="none" />
</svg>