<?xml version="1.0" encoding="utf-8"?>
<svg version="1.1" xmlns:xlink="http://www.w3.org/1999/xlink" width="12px" height="12px" viewBox="616 1460  12 12" xmlns="http://www.w3.org/2000/svg">
  <path d="M 622 1460  C 625.36 1460  628 1462.64  628 1466  C 628 1469.36  625.36 1472  622 1472  C 618.64 1472  616 1469.36  616 1466  C 616 1462.64  618.64 1460  622 1460  Z " fill-rule="nonzero" fill="#ffffff" stroke="none" />
  <path d="M 622 1460.5  C 625.08 1460.5  627.5 1462.92  627.5 1466  C 627.5 1469.08  625.08 1471.5  622 1471.5  C 618.92 1471.5  616.5 1469.08  616.5 1466  C 616.5 1462.92  618.92 1460.5  622 1460.5  Z " stroke-width="1" stroke="#797979" fill="none" />
  <path d="M 622 1469  C 620.32 1469  619 1467.68  619 1466  C 619 1464.32  620.32 1463  622 1463  C 623.68 1463  625 1464.32  625 1466  C 625 1467.68  623.68 1469  622 1469  " fill-rule="nonzero" fill="#797979" stroke="none" />
</svg>