<?xml version="1.0" encoding="utf-8"?>
<svg version="1.1" xmlns:xlink="http://www.w3.org/1999/xlink" width="12px" height="12px" viewBox="616 1508  12 12" xmlns="http://www.w3.org/2000/svg">
  <path d="M 622 1508  C 625.36 1508  628 1510.64  628 1514  C 628 1517.36  625.36 1520  622 1520  C 618.64 1520  616 1517.36  616 1514  C 616 1510.64  618.64 1508  622 1508  Z " fill-rule="nonzero" fill="#ffffff" stroke="none" />
  <path d="M 622 1508.5  C 625.08 1508.5  627.5 1510.92  627.5 1514  C 627.5 1517.08  625.08 1519.5  622 1519.5  C 618.92 1519.5  616.5 1517.08  616.5 1514  C 616.5 1510.92  618.92 1508.5  622 1508.5  Z " stroke-width="1" stroke="#797979" fill="none" />
  <path d="M 622 1517  C 620.32 1517  619 1515.68  619 1514  C 619 1512.32  620.32 1511  622 1511  C 623.68 1511  625 1512.32  625 1514  C 625 1515.68  623.68 1517  622 1517  " fill-rule="nonzero" fill="#797979" stroke="none" />
</svg>