<?xml version="1.0" encoding="utf-8"?>
<svg version="1.1" xmlns:xlink="http://www.w3.org/1999/xlink" width="12px" height="12px" viewBox="562 1460  12 12" xmlns="http://www.w3.org/2000/svg">
  <path d="M 568 1460  C 571.36 1460  574 1462.64  574 1466  C 574 1469.36  571.36 1472  568 1472  C 564.64 1472  562 1469.36  562 1466  C 562 1462.64  564.64 1460  568 1460  Z " fill-rule="nonzero" fill="#ffffff" stroke="none" />
  <path d="M 568 1460.5  C 571.08 1460.5  573.5 1462.92  573.5 1466  C 573.5 1469.08  571.08 1471.5  568 1471.5  C 564.92 1471.5  562.5 1469.08  562.5 1466  C 562.5 1462.92  564.92 1460.5  568 1460.5  Z " stroke-width="1" stroke="#797979" fill="none" />
  <path d="M 568 1469  C 566.32 1469  565 1467.68  565 1466  C 565 1464.32  566.32 1463  568 1463  C 569.68 1463  571 1464.32  571 1466  C 571 1467.68  569.68 1469  568 1469  " fill-rule="nonzero" fill="#797979" stroke="none" />
</svg>