<?xml version="1.0" encoding="utf-8"?>
<svg version="1.1" xmlns:xlink="http://www.w3.org/1999/xlink" width="12px" height="12px" viewBox="562 1555  12 12" xmlns="http://www.w3.org/2000/svg">
  <path d="M 568 1555  C 571.36 1555  574 1557.64  574 1561  C 574 1564.36  571.36 1567  568 1567  C 564.64 1567  562 1564.36  562 1561  C 562 1557.64  564.64 1555  568 1555  Z " fill-rule="nonzero" fill="#ffffff" stroke="none" />
  <path d="M 568 1555.5  C 571.08 1555.5  573.5 1557.92  573.5 1561  C 573.5 1564.08  571.08 1566.5  568 1566.5  C 564.92 1566.5  562.5 1564.08  562.5 1561  C 562.5 1557.92  564.92 1555.5  568 1555.5  Z " stroke-width="1" stroke="#797979" fill="none" />
  <path d="M 568 1564  C 566.32 1564  565 1562.68  565 1561  C 565 1559.32  566.32 1558  568 1558  C 569.68 1558  571 1559.32  571 1561  C 571 1562.68  569.68 1564  568 1564  " fill-rule="nonzero" fill="#797979" stroke="none" />
</svg>