<?xml version="1.0" encoding="utf-8"?>
<svg version="1.1" xmlns:xlink="http://www.w3.org/1999/xlink" width="12px" height="12px" viewBox="562 1649  12 12" xmlns="http://www.w3.org/2000/svg">
  <path d="M 568 1649  C 571.36 1649  574 1651.64  574 1655  C 574 1658.36  571.36 1661  568 1661  C 564.64 1661  562 1658.36  562 1655  C 562 1651.64  564.64 1649  568 1649  Z " fill-rule="nonzero" fill="#ffffff" stroke="none" />
  <path d="M 568 1649.5  C 571.08 1649.5  573.5 1651.92  573.5 1655  C 573.5 1658.08  571.08 1660.5  568 1660.5  C 564.92 1660.5  562.5 1658.08  562.5 1655  C 562.5 1651.92  564.92 1649.5  568 1649.5  Z " stroke-width="1" stroke="#797979" fill="none" />
  <path d="M 568 1658  C 566.32 1658  565 1656.68  565 1655  C 565 1653.32  566.32 1652  568 1652  C 569.68 1652  571 1653.32  571 1655  C 571 1656.68  569.68 1658  568 1658  " fill-rule="nonzero" fill="#797979" stroke="none" />
</svg>