<?xml version="1.0" encoding="utf-8"?>
<svg version="1.1" xmlns:xlink="http://www.w3.org/1999/xlink" width="12px" height="12px" viewBox="616 1649  12 12" xmlns="http://www.w3.org/2000/svg">
  <path d="M 622 1649  C 625.36 1649  628 1651.64  628 1655  C 628 1658.36  625.36 1661  622 1661  C 618.64 1661  616 1658.36  616 1655  C 616 1651.64  618.64 1649  622 1649  Z " fill-rule="nonzero" fill="#ffffff" stroke="none" />
  <path d="M 622 1649.5  C 625.08 1649.5  627.5 1651.92  627.5 1655  C 627.5 1658.08  625.08 1660.5  622 1660.5  C 618.92 1660.5  616.5 1658.08  616.5 1655  C 616.5 1651.92  618.92 1649.5  622 1649.5  Z " stroke-width="1" stroke="#797979" fill="none" />
  <path d="M 622 1658  C 620.32 1658  619 1656.68  619 1655  C 619 1653.32  620.32 1652  622 1652  C 623.68 1652  625 1653.32  625 1655  C 625 1656.68  623.68 1658  622 1658  " fill-rule="nonzero" fill="#797979" stroke="none" />
</svg>