<?xml version="1.0" encoding="utf-8"?>
<svg version="1.1" xmlns:xlink="http://www.w3.org/1999/xlink" width="12px" height="12px" viewBox="616 1555  12 12" xmlns="http://www.w3.org/2000/svg">
  <path d="M 622 1555  C 625.36 1555  628 1557.64  628 1561  C 628 1564.36  625.36 1567  622 1567  C 618.64 1567  616 1564.36  616 1561  C 616 1557.64  618.64 1555  622 1555  Z " fill-rule="nonzero" fill="#ffffff" stroke="none" />
  <path d="M 622 1555.5  C 625.08 1555.5  627.5 1557.92  627.5 1561  C 627.5 1564.08  625.08 1566.5  622 1566.5  C 618.92 1566.5  616.5 1564.08  616.5 1561  C 616.5 1557.92  618.92 1555.5  622 1555.5  Z " stroke-width="1" stroke="#797979" fill="none" />
  <path d="M 622 1564  C 620.32 1564  619 1562.68  619 1561  C 619 1559.32  620.32 1558  622 1558  C 623.68 1558  625 1559.32  625 1561  C 625 1562.68  623.68 1564  622 1564  " fill-rule="nonzero" fill="#797979" stroke="none" />
</svg>