<?xml version="1.0" encoding="utf-8"?>
<svg version="1.1" xmlns:xlink="http://www.w3.org/1999/xlink" width="12px" height="12px" viewBox="616 1602  12 12" xmlns="http://www.w3.org/2000/svg">
  <path d="M 622 1602  C 625.36 1602  628 1604.64  628 1608  C 628 1611.36  625.36 1614  622 1614  C 618.64 1614  616 1611.36  616 1608  C 616 1604.64  618.64 1602  622 1602  Z " fill-rule="nonzero" fill="#ffffff" stroke="none" />
  <path d="M 622 1602.5  C 625.08 1602.5  627.5 1604.92  627.5 1608  C 627.5 1611.08  625.08 1613.5  622 1613.5  C 618.92 1613.5  616.5 1611.08  616.5 1608  C 616.5 1604.92  618.92 1602.5  622 1602.5  Z " stroke-width="1" stroke="#797979" fill="none" />
  <path d="M 622 1611  C 620.32 1611  619 1609.68  619 1608  C 619 1606.32  620.32 1605  622 1605  C 623.68 1605  625 1606.32  625 1608  C 625 1609.68  623.68 1611  622 1611  " fill-rule="nonzero" fill="#797979" stroke="none" />
</svg>