<?xml version="1.0" encoding="utf-8"?>
<svg version="1.1" xmlns:xlink="http://www.w3.org/1999/xlink" width="12px" height="12px" viewBox="616 1697  12 12" xmlns="http://www.w3.org/2000/svg">
  <path d="M 622 1697  C 625.36 1697  628 1699.64  628 1703  C 628 1706.36  625.36 1709  622 1709  C 618.64 1709  616 1706.36  616 1703  C 616 1699.64  618.64 1697  622 1697  Z " fill-rule="nonzero" fill="#ffffff" stroke="none" />
  <path d="M 622 1697.5  C 625.08 1697.5  627.5 1699.92  627.5 1703  C 627.5 1706.08  625.08 1708.5  622 1708.5  C 618.92 1708.5  616.5 1706.08  616.5 1703  C 616.5 1699.92  618.92 1697.5  622 1697.5  Z " stroke-width="1" stroke="#797979" fill="none" />
  <path d="M 622 1706  C 620.32 1706  619 1704.68  619 1703  C 619 1701.32  620.32 1700  622 1700  C 623.68 1700  625 1701.32  625 1703  C 625 1704.68  623.68 1706  622 1706  " fill-rule="nonzero" fill="#797979" stroke="none" />
</svg>