<?xml version="1.0" encoding="utf-8"?>
<svg version="1.1" xmlns:xlink="http://www.w3.org/1999/xlink" width="12px" height="12px" viewBox="562 1602  12 12" xmlns="http://www.w3.org/2000/svg">
  <path d="M 568 1602  C 571.36 1602  574 1604.64  574 1608  C 574 1611.36  571.36 1614  568 1614  C 564.64 1614  562 1611.36  562 1608  C 562 1604.64  564.64 1602  568 1602  Z " fill-rule="nonzero" fill="#ffffff" stroke="none" />
  <path d="M 568 1602.5  C 571.08 1602.5  573.5 1604.92  573.5 1608  C 573.5 1611.08  571.08 1613.5  568 1613.5  C 564.92 1613.5  562.5 1611.08  562.5 1608  C 562.5 1604.92  564.92 1602.5  568 1602.5  Z " stroke-width="1" stroke="#797979" fill="none" />
  <path d="M 568 1611  C 566.32 1611  565 1609.68  565 1608  C 565 1606.32  566.32 1605  568 1605  C 569.68 1605  571 1606.32  571 1608  C 571 1609.68  569.68 1611  568 1611  " fill-rule="nonzero" fill="#797979" stroke="none" />
</svg>