<?xml version="1.0" encoding="utf-8"?>
<svg version="1.1" xmlns:xlink="http://www.w3.org/1999/xlink" width="12px" height="12px" viewBox="616 1781  12 12" xmlns="http://www.w3.org/2000/svg">
  <path d="M 622 1781  C 625.36 1781  628 1783.64  628 1787  C 628 1790.36  625.36 1793  622 1793  C 618.64 1793  616 1790.36  616 1787  C 616 1783.64  618.64 1781  622 1781  Z " fill-rule="nonzero" fill="#ffffff" stroke="none" />
  <path d="M 622 1781.5  C 625.08 1781.5  627.5 1783.92  627.5 1787  C 627.5 1790.08  625.08 1792.5  622 1792.5  C 618.92 1792.5  616.5 1790.08  616.5 1787  C 616.5 1783.92  618.92 1781.5  622 1781.5  Z " stroke-width="1" stroke="#797979" fill="none" />
  <path d="M 622 1790  C 620.32 1790  619 1788.68  619 1787  C 619 1785.32  620.32 1784  622 1784  C 623.68 1784  625 1785.32  625 1787  C 625 1788.68  623.68 1790  622 1790  " fill-rule="nonzero" fill="#797979" stroke="none" />
</svg>