<?xml version="1.0" encoding="utf-8"?>
<svg version="1.1" xmlns:xlink="http://www.w3.org/1999/xlink" width="12px" height="12px" viewBox="616 1876  12 12" xmlns="http://www.w3.org/2000/svg">
  <path d="M 622 1876  C 625.36 1876  628 1878.64  628 1882  C 628 1885.36  625.36 1888  622 1888  C 618.64 1888  616 1885.36  616 1882  C 616 1878.64  618.64 1876  622 1876  Z " fill-rule="nonzero" fill="#ffffff" stroke="none" />
  <path d="M 622 1876.5  C 625.08 1876.5  627.5 1878.92  627.5 1882  C 627.5 1885.08  625.08 1887.5  622 1887.5  C 618.92 1887.5  616.5 1885.08  616.5 1882  C 616.5 1878.92  618.92 1876.5  622 1876.5  Z " stroke-width="1" stroke="#797979" fill="none" />
  <path d="M 622 1885  C 620.32 1885  619 1883.68  619 1882  C 619 1880.32  620.32 1879  622 1879  C 623.68 1879  625 1880.32  625 1882  C 625 1883.68  623.68 1885  622 1885  " fill-rule="nonzero" fill="#797979" stroke="none" />
</svg>