<?xml version="1.0" encoding="utf-8"?>
<svg version="1.1" xmlns:xlink="http://www.w3.org/1999/xlink" width="12px" height="12px" viewBox="562 1923  12 12" xmlns="http://www.w3.org/2000/svg">
  <path d="M 568 1923  C 571.36 1923  574 1925.64  574 1929  C 574 1932.36  571.36 1935  568 1935  C 564.64 1935  562 1932.36  562 1929  C 562 1925.64  564.64 1923  568 1923  Z " fill-rule="nonzero" fill="#ffffff" stroke="none" />
  <path d="M 568 1923.5  C 571.08 1923.5  573.5 1925.92  573.5 1929  C 573.5 1932.08  571.08 1934.5  568 1934.5  C 564.92 1934.5  562.5 1932.08  562.5 1929  C 562.5 1925.92  564.92 1923.5  568 1923.5  Z " stroke-width="1" stroke="#797979" fill="none" />
  <path d="M 568 1932  C 566.32 1932  565 1930.68  565 1929  C 565 1927.32  566.32 1926  568 1926  C 569.68 1926  571 1927.32  571 1929  C 571 1930.68  569.68 1932  568 1932  " fill-rule="nonzero" fill="#797979" stroke="none" />
</svg>