<?xml version="1.0" encoding="utf-8"?>
<svg version="1.1" xmlns:xlink="http://www.w3.org/1999/xlink" width="12px" height="12px" viewBox="562 1781  12 12" xmlns="http://www.w3.org/2000/svg">
  <path d="M 568 1781  C 571.36 1781  574 1783.64  574 1787  C 574 1790.36  571.36 1793  568 1793  C 564.64 1793  562 1790.36  562 1787  C 562 1783.64  564.64 1781  568 1781  Z " fill-rule="nonzero" fill="#ffffff" stroke="none" />
  <path d="M 568 1781.5  C 571.08 1781.5  573.5 1783.92  573.5 1787  C 573.5 1790.08  571.08 1792.5  568 1792.5  C 564.92 1792.5  562.5 1790.08  562.5 1787  C 562.5 1783.92  564.92 1781.5  568 1781.5  Z " stroke-width="1" stroke="#797979" fill="none" />
  <path d="M 568 1790  C 566.32 1790  565 1788.68  565 1787  C 565 1785.32  566.32 1784  568 1784  C 569.68 1784  571 1785.32  571 1787  C 571 1788.68  569.68 1790  568 1790  " fill-rule="nonzero" fill="#797979" stroke="none" />
</svg>