<?xml version="1.0" encoding="utf-8"?>
<svg version="1.1" xmlns:xlink="http://www.w3.org/1999/xlink" width="12px" height="12px" viewBox="616 1829  12 12" xmlns="http://www.w3.org/2000/svg">
  <path d="M 622 1829  C 625.36 1829  628 1831.64  628 1835  C 628 1838.36  625.36 1841  622 1841  C 618.64 1841  616 1838.36  616 1835  C 616 1831.64  618.64 1829  622 1829  Z " fill-rule="nonzero" fill="#ffffff" stroke="none" />
  <path d="M 622 1829.5  C 625.08 1829.5  627.5 1831.92  627.5 1835  C 627.5 1838.08  625.08 1840.5  622 1840.5  C 618.92 1840.5  616.5 1838.08  616.5 1835  C 616.5 1831.92  618.92 1829.5  622 1829.5  Z " stroke-width="1" stroke="#797979" fill="none" />
  <path d="M 622 1838  C 620.32 1838  619 1836.68  619 1835  C 619 1833.32  620.32 1832  622 1832  C 623.68 1832  625 1833.32  625 1835  C 625 1836.68  623.68 1838  622 1838  " fill-rule="nonzero" fill="#797979" stroke="none" />
</svg>