<?xml version="1.0" encoding="utf-8"?>
<svg version="1.1" xmlns:xlink="http://www.w3.org/1999/xlink" width="12px" height="12px" viewBox="562 1829  12 12" xmlns="http://www.w3.org/2000/svg">
  <path d="M 568 1829  C 571.36 1829  574 1831.64  574 1835  C 574 1838.36  571.36 1841  568 1841  C 564.64 1841  562 1838.36  562 1835  C 562 1831.64  564.64 1829  568 1829  Z " fill-rule="nonzero" fill="#ffffff" stroke="none" />
  <path d="M 568 1829.5  C 571.08 1829.5  573.5 1831.92  573.5 1835  C 573.5 1838.08  571.08 1840.5  568 1840.5  C 564.92 1840.5  562.5 1838.08  562.5 1835  C 562.5 1831.92  564.92 1829.5  568 1829.5  Z " stroke-width="1" stroke="#797979" fill="none" />
  <path d="M 568 1838  C 566.32 1838  565 1836.68  565 1835  C 565 1833.32  566.32 1832  568 1832  C 569.68 1832  571 1833.32  571 1835  C 571 1836.68  569.68 1838  568 1838  " fill-rule="nonzero" fill="#797979" stroke="none" />
</svg>