<?xml version="1.0" encoding="utf-8"?>
<svg version="1.1" xmlns:xlink="http://www.w3.org/1999/xlink" width="12px" height="12px" viewBox="616 1970  12 12" xmlns="http://www.w3.org/2000/svg">
  <path d="M 622 1970  C 625.36 1970  628 1972.64  628 1976  C 628 1979.36  625.36 1982  622 1982  C 618.64 1982  616 1979.36  616 1976  C 616 1972.64  618.64 1970  622 1970  Z " fill-rule="nonzero" fill="#ffffff" stroke="none" />
  <path d="M 622 1970.5  C 625.08 1970.5  627.5 1972.92  627.5 1976  C 627.5 1979.08  625.08 1981.5  622 1981.5  C 618.92 1981.5  616.5 1979.08  616.5 1976  C 616.5 1972.92  618.92 1970.5  622 1970.5  Z " stroke-width="1" stroke="#797979" fill="none" />
  <path d="M 622 1979  C 620.32 1979  619 1977.68  619 1976  C 619 1974.32  620.32 1973  622 1973  C 623.68 1973  625 1974.32  625 1976  C 625 1977.68  623.68 1979  622 1979  " fill-rule="nonzero" fill="#797979" stroke="none" />
</svg>