<?xml version="1.0" encoding="utf-8"?>
<svg version="1.1" xmlns:xlink="http://www.w3.org/1999/xlink" width="12px" height="12px" viewBox="562 1970  12 12" xmlns="http://www.w3.org/2000/svg">
  <path d="M 568 1970  C 571.36 1970  574 1972.64  574 1976  C 574 1979.36  571.36 1982  568 1982  C 564.64 1982  562 1979.36  562 1976  C 562 1972.64  564.64 1970  568 1970  Z " fill-rule="nonzero" fill="#ffffff" stroke="none" />
  <path d="M 568 1970.5  C 571.08 1970.5  573.5 1972.92  573.5 1976  C 573.5 1979.08  571.08 1981.5  568 1981.5  C 564.92 1981.5  562.5 1979.08  562.5 1976  C 562.5 1972.92  564.92 1970.5  568 1970.5  Z " stroke-width="1" stroke="#797979" fill="none" />
  <path d="M 568 1979  C 566.32 1979  565 1977.68  565 1976  C 565 1974.32  566.32 1973  568 1973  C 569.68 1973  571 1974.32  571 1976  C 571 1977.68  569.68 1979  568 1979  " fill-rule="nonzero" fill="#797979" stroke="none" />
</svg>