<?xml version="1.0" encoding="utf-8"?>
<svg version="1.1" xmlns:xlink="http://www.w3.org/1999/xlink" width="12px" height="12px" viewBox="616 1923  12 12" xmlns="http://www.w3.org/2000/svg">
  <path d="M 622 1923  C 625.36 1923  628 1925.64  628 1929  C 628 1932.36  625.36 1935  622 1935  C 618.64 1935  616 1932.36  616 1929  C 616 1925.64  618.64 1923  622 1923  Z " fill-rule="nonzero" fill="#ffffff" stroke="none" />
  <path d="M 622 1923.5  C 625.08 1923.5  627.5 1925.92  627.5 1929  C 627.5 1932.08  625.08 1934.5  622 1934.5  C 618.92 1934.5  616.5 1932.08  616.5 1929  C 616.5 1925.92  618.92 1923.5  622 1923.5  Z " stroke-width="1" stroke="#797979" fill="none" />
  <path d="M 622 1932  C 620.32 1932  619 1930.68  619 1929  C 619 1927.32  620.32 1926  622 1926  C 623.68 1926  625 1927.32  625 1929  C 625 1930.68  623.68 1932  622 1932  " fill-rule="nonzero" fill="#797979" stroke="none" />
</svg>