<?xml version="1.0" encoding="utf-8"?>
<svg version="1.1" xmlns:xlink="http://www.w3.org/1999/xlink" width="12px" height="12px" viewBox="562 2102  12 12" xmlns="http://www.w3.org/2000/svg">
  <path d="M 568 2102  C 571.36 2102  574 2104.64  574 2108  C 574 2111.36  571.36 2114  568 2114  C 564.64 2114  562 2111.36  562 2108  C 562 2104.64  564.64 2102  568 2102  Z " fill-rule="nonzero" fill="#ffffff" stroke="none" />
  <path d="M 568 2102.5  C 571.08 2102.5  573.5 2104.92  573.5 2108  C 573.5 2111.08  571.08 2113.5  568 2113.5  C 564.92 2113.5  562.5 2111.08  562.5 2108  C 562.5 2104.92  564.92 2102.5  568 2102.5  Z " stroke-width="1" stroke="#797979" fill="none" />
  <path d="M 568 2111  C 566.32 2111  565 2109.68  565 2108  C 565 2106.32  566.32 2105  568 2105  C 569.68 2105  571 2106.32  571 2108  C 571 2109.68  569.68 2111  568 2111  " fill-rule="nonzero" fill="#797979" stroke="none" />
</svg>