<?xml version="1.0" encoding="utf-8"?>
<svg version="1.1" xmlns:xlink="http://www.w3.org/1999/xlink" width="12px" height="12px" viewBox="616 2102  12 12" xmlns="http://www.w3.org/2000/svg">
  <path d="M 622 2102  C 625.36 2102  628 2104.64  628 2108  C 628 2111.36  625.36 2114  622 2114  C 618.64 2114  616 2111.36  616 2108  C 616 2104.64  618.64 2102  622 2102  Z " fill-rule="nonzero" fill="#ffffff" stroke="none" />
  <path d="M 622 2102.5  C 625.08 2102.5  627.5 2104.92  627.5 2108  C 627.5 2111.08  625.08 2113.5  622 2113.5  C 618.92 2113.5  616.5 2111.08  616.5 2108  C 616.5 2104.92  618.92 2102.5  622 2102.5  Z " stroke-width="1" stroke="#797979" fill="none" />
  <path d="M 622 2111  C 620.32 2111  619 2109.68  619 2108  C 619 2106.32  620.32 2105  622 2105  C 623.68 2105  625 2106.32  625 2108  C 625 2109.68  623.68 2111  622 2111  " fill-rule="nonzero" fill="#797979" stroke="none" />
</svg>