<?xml version="1.0" encoding="utf-8"?>
<svg version="1.1" xmlns:xlink="http://www.w3.org/1999/xlink" width="12px" height="12px" viewBox="616 2197  12 12" xmlns="http://www.w3.org/2000/svg">
  <path d="M 622 2197  C 625.36 2197  628 2199.64  628 2203  C 628 2206.36  625.36 2209  622 2209  C 618.64 2209  616 2206.36  616 2203  C 616 2199.64  618.64 2197  622 2197  Z " fill-rule="nonzero" fill="#ffffff" stroke="none" />
  <path d="M 622 2197.5  C 625.08 2197.5  627.5 2199.92  627.5 2203  C 627.5 2206.08  625.08 2208.5  622 2208.5  C 618.92 2208.5  616.5 2206.08  616.5 2203  C 616.5 2199.92  618.92 2197.5  622 2197.5  Z " stroke-width="1" stroke="#797979" fill="none" />
  <path d="M 622 2206  C 620.32 2206  619 2204.68  619 2203  C 619 2201.32  620.32 2200  622 2200  C 623.68 2200  625 2201.32  625 2203  C 625 2204.68  623.68 2206  622 2206  " fill-rule="nonzero" fill="#797979" stroke="none" />
</svg>