<?xml version="1.0" encoding="utf-8"?>
<svg version="1.1" xmlns:xlink="http://www.w3.org/1999/xlink" width="12px" height="12px" viewBox="616 2244  12 12" xmlns="http://www.w3.org/2000/svg">
  <path d="M 622 2244  C 625.36 2244  628 2246.64  628 2250  C 628 2253.36  625.36 2256  622 2256  C 618.64 2256  616 2253.36  616 2250  C 616 2246.64  618.64 2244  622 2244  Z " fill-rule="nonzero" fill="#ffffff" stroke="none" />
  <path d="M 622 2244.5  C 625.08 2244.5  627.5 2246.92  627.5 2250  C 627.5 2253.08  625.08 2255.5  622 2255.5  C 618.92 2255.5  616.5 2253.08  616.5 2250  C 616.5 2246.92  618.92 2244.5  622 2244.5  Z " stroke-width="1" stroke="#797979" fill="none" />
  <path d="M 622 2253  C 620.32 2253  619 2251.68  619 2250  C 619 2248.32  620.32 2247  622 2247  C 623.68 2247  625 2248.32  625 2250  C 625 2251.68  623.68 2253  622 2253  " fill-rule="nonzero" fill="#797979" stroke="none" />
</svg>