<?xml version="1.0" encoding="utf-8"?>
<svg version="1.1" xmlns:xlink="http://www.w3.org/1999/xlink" width="12px" height="12px" viewBox="562 2291  12 12" xmlns="http://www.w3.org/2000/svg">
  <path d="M 568 2291  C 571.36 2291  574 2293.64  574 2297  C 574 2300.36  571.36 2303  568 2303  C 564.64 2303  562 2300.36  562 2297  C 562 2293.64  564.64 2291  568 2291  Z " fill-rule="nonzero" fill="#ffffff" stroke="none" />
  <path d="M 568 2291.5  C 571.08 2291.5  573.5 2293.92  573.5 2297  C 573.5 2300.08  571.08 2302.5  568 2302.5  C 564.92 2302.5  562.5 2300.08  562.5 2297  C 562.5 2293.92  564.92 2291.5  568 2291.5  Z " stroke-width="1" stroke="#797979" fill="none" />
  <path d="M 568 2300  C 566.32 2300  565 2298.68  565 2297  C 565 2295.32  566.32 2294  568 2294  C 569.68 2294  571 2295.32  571 2297  C 571 2298.68  569.68 2300  568 2300  " fill-rule="nonzero" fill="#797979" stroke="none" />
</svg>