<?xml version="1.0" encoding="utf-8"?>
<svg version="1.1" xmlns:xlink="http://www.w3.org/1999/xlink" width="12px" height="12px" viewBox="616 2291  12 12" xmlns="http://www.w3.org/2000/svg">
  <path d="M 622 2291  C 625.36 2291  628 2293.64  628 2297  C 628 2300.36  625.36 2303  622 2303  C 618.64 2303  616 2300.36  616 2297  C 616 2293.64  618.64 2291  622 2291  Z " fill-rule="nonzero" fill="#ffffff" stroke="none" />
  <path d="M 622 2291.5  C 625.08 2291.5  627.5 2293.92  627.5 2297  C 627.5 2300.08  625.08 2302.5  622 2302.5  C 618.92 2302.5  616.5 2300.08  616.5 2297  C 616.5 2293.92  618.92 2291.5  622 2291.5  Z " stroke-width="1" stroke="#797979" fill="none" />
  <path d="M 622 2300  C 620.32 2300  619 2298.68  619 2297  C 619 2295.32  620.32 2294  622 2294  C 623.68 2294  625 2295.32  625 2297  C 625 2298.68  623.68 2300  622 2300  " fill-rule="nonzero" fill="#797979" stroke="none" />
</svg>