<?xml version="1.0" encoding="utf-8"?>
<svg version="1.1" xmlns:xlink="http://www.w3.org/1999/xlink" width="12px" height="12px" viewBox="616 2150  12 12" xmlns="http://www.w3.org/2000/svg">
  <path d="M 622 2150  C 625.36 2150  628 2152.64  628 2156  C 628 2159.36  625.36 2162  622 2162  C 618.64 2162  616 2159.36  616 2156  C 616 2152.64  618.64 2150  622 2150  Z " fill-rule="nonzero" fill="#ffffff" stroke="none" />
  <path d="M 622 2150.5  C 625.08 2150.5  627.5 2152.92  627.5 2156  C 627.5 2159.08  625.08 2161.5  622 2161.5  C 618.92 2161.5  616.5 2159.08  616.5 2156  C 616.5 2152.92  618.92 2150.5  622 2150.5  Z " stroke-width="1" stroke="#797979" fill="none" />
  <path d="M 622 2159  C 620.32 2159  619 2157.68  619 2156  C 619 2154.32  620.32 2153  622 2153  C 623.68 2153  625 2154.32  625 2156  C 625 2157.68  623.68 2159  622 2159  " fill-rule="nonzero" fill="#797979" stroke="none" />
</svg>