<?xml version="1.0" encoding="utf-8"?>
<svg version="1.1" xmlns:xlink="http://www.w3.org/1999/xlink" width="12px" height="12px" viewBox="616 2480  12 12" xmlns="http://www.w3.org/2000/svg">
  <path d="M 622 2480  C 625.36 2480  628 2482.64  628 2486  C 628 2489.36  625.36 2492  622 2492  C 618.64 2492  616 2489.36  616 2486  C 616 2482.64  618.64 2480  622 2480  Z " fill-rule="nonzero" fill="#ffffff" stroke="none" />
  <path d="M 622 2480.5  C 625.08 2480.5  627.5 2482.92  627.5 2486  C 627.5 2489.08  625.08 2491.5  622 2491.5  C 618.92 2491.5  616.5 2489.08  616.5 2486  C 616.5 2482.92  618.92 2480.5  622 2480.5  Z " stroke-width="1" stroke="#797979" fill="none" />
  <path d="M 622 2489  C 620.32 2489  619 2487.68  619 2486  C 619 2484.32  620.32 2483  622 2483  C 623.68 2483  625 2484.32  625 2486  C 625 2487.68  623.68 2489  622 2489  " fill-rule="nonzero" fill="#797979" stroke="none" />
</svg>