<?xml version="1.0" encoding="utf-8"?>
<svg version="1.1" xmlns:xlink="http://www.w3.org/1999/xlink" width="12px" height="12px" viewBox="616 2575  12 12" xmlns="http://www.w3.org/2000/svg">
  <path d="M 622 2575  C 625.36 2575  628 2577.64  628 2581  C 628 2584.36  625.36 2587  622 2587  C 618.64 2587  616 2584.36  616 2581  C 616 2577.64  618.64 2575  622 2575  Z " fill-rule="nonzero" fill="#ffffff" stroke="none" />
  <path d="M 622 2575.5  C 625.08 2575.5  627.5 2577.92  627.5 2581  C 627.5 2584.08  625.08 2586.5  622 2586.5  C 618.92 2586.5  616.5 2584.08  616.5 2581  C 616.5 2577.92  618.92 2575.5  622 2575.5  Z " stroke-width="1" stroke="#797979" fill="none" />
  <path d="M 622 2584  C 620.32 2584  619 2582.68  619 2581  C 619 2579.32  620.32 2578  622 2578  C 623.68 2578  625 2579.32  625 2581  C 625 2582.68  623.68 2584  622 2584  " fill-rule="nonzero" fill="#797979" stroke="none" />
</svg>