<?xml version="1.0" encoding="utf-8"?>
<svg version="1.1" xmlns:xlink="http://www.w3.org/1999/xlink" width="12px" height="12px" viewBox="562 2480  12 12" xmlns="http://www.w3.org/2000/svg">
  <path d="M 568 2480  C 571.36 2480  574 2482.64  574 2486  C 574 2489.36  571.36 2492  568 2492  C 564.64 2492  562 2489.36  562 2486  C 562 2482.64  564.64 2480  568 2480  Z " fill-rule="nonzero" fill="#ffffff" stroke="none" />
  <path d="M 568 2480.5  C 571.08 2480.5  573.5 2482.92  573.5 2486  C 573.5 2489.08  571.08 2491.5  568 2491.5  C 564.92 2491.5  562.5 2489.08  562.5 2486  C 562.5 2482.92  564.92 2480.5  568 2480.5  Z " stroke-width="1" stroke="#797979" fill="none" />
  <path d="M 568 2489  C 566.32 2489  565 2487.68  565 2486  C 565 2484.32  566.32 2483  568 2483  C 569.68 2483  571 2484.32  571 2486  C 571 2487.68  569.68 2489  568 2489  " fill-rule="nonzero" fill="#797979" stroke="none" />
</svg>