<?xml version="1.0" encoding="utf-8"?>
<svg version="1.1" xmlns:xlink="http://www.w3.org/1999/xlink" width="12px" height="12px" viewBox="616 2528  12 12" xmlns="http://www.w3.org/2000/svg">
  <path d="M 622 2528  C 625.36 2528  628 2530.64  628 2534  C 628 2537.36  625.36 2540  622 2540  C 618.64 2540  616 2537.36  616 2534  C 616 2530.64  618.64 2528  622 2528  Z " fill-rule="nonzero" fill="#ffffff" stroke="none" />
  <path d="M 622 2528.5  C 625.08 2528.5  627.5 2530.92  627.5 2534  C 627.5 2537.08  625.08 2539.5  622 2539.5  C 618.92 2539.5  616.5 2537.08  616.5 2534  C 616.5 2530.92  618.92 2528.5  622 2528.5  Z " stroke-width="1" stroke="#797979" fill="none" />
  <path d="M 622 2537  C 620.32 2537  619 2535.68  619 2534  C 619 2532.32  620.32 2531  622 2531  C 623.68 2531  625 2532.32  625 2534  C 625 2535.68  623.68 2537  622 2537  " fill-rule="nonzero" fill="#797979" stroke="none" />
</svg>