<?xml version="1.0" encoding="utf-8"?>
<svg version="1.1" xmlns:xlink="http://www.w3.org/1999/xlink" width="12px" height="12px" viewBox="562 2717  12 12" xmlns="http://www.w3.org/2000/svg">
  <path d="M 568 2717  C 571.36 2717  574 2719.64  574 2723  C 574 2726.36  571.36 2729  568 2729  C 564.64 2729  562 2726.36  562 2723  C 562 2719.64  564.64 2717  568 2717  Z " fill-rule="nonzero" fill="#ffffff" stroke="none" />
  <path d="M 568 2717.5  C 571.08 2717.5  573.5 2719.92  573.5 2723  C 573.5 2726.08  571.08 2728.5  568 2728.5  C 564.92 2728.5  562.5 2726.08  562.5 2723  C 562.5 2719.92  564.92 2717.5  568 2717.5  Z " stroke-width="1" stroke="#797979" fill="none" />
  <path d="M 568 2726  C 566.32 2726  565 2724.68  565 2723  C 565 2721.32  566.32 2720  568 2720  C 569.68 2720  571 2721.32  571 2723  C 571 2724.68  569.68 2726  568 2726  " fill-rule="nonzero" fill="#797979" stroke="none" />
</svg>