<?xml version="1.0" encoding="utf-8"?>
<svg version="1.1" xmlns:xlink="http://www.w3.org/1999/xlink" width="12px" height="12px" viewBox="562 2528  12 12" xmlns="http://www.w3.org/2000/svg">
  <path d="M 568 2528  C 571.36 2528  574 2530.64  574 2534  C 574 2537.36  571.36 2540  568 2540  C 564.64 2540  562 2537.36  562 2534  C 562 2530.64  564.64 2528  568 2528  Z " fill-rule="nonzero" fill="#ffffff" stroke="none" />
  <path d="M 568 2528.5  C 571.08 2528.5  573.5 2530.92  573.5 2534  C 573.5 2537.08  571.08 2539.5  568 2539.5  C 564.92 2539.5  562.5 2537.08  562.5 2534  C 562.5 2530.92  564.92 2528.5  568 2528.5  Z " stroke-width="1" stroke="#797979" fill="none" />
  <path d="M 568 2537  C 566.32 2537  565 2535.68  565 2534  C 565 2532.32  566.32 2531  568 2531  C 569.68 2531  571 2532.32  571 2534  C 571 2535.68  569.68 2537  568 2537  " fill-rule="nonzero" fill="#797979" stroke="none" />
</svg>