<?xml version="1.0" encoding="utf-8"?>
<svg version="1.1" xmlns:xlink="http://www.w3.org/1999/xlink" width="12px" height="12px" viewBox="562 2622  12 12" xmlns="http://www.w3.org/2000/svg">
  <path d="M 568 2622  C 571.36 2622  574 2624.64  574 2628  C 574 2631.36  571.36 2634  568 2634  C 564.64 2634  562 2631.36  562 2628  C 562 2624.64  564.64 2622  568 2622  Z " fill-rule="nonzero" fill="#ffffff" stroke="none" />
  <path d="M 568 2622.5  C 571.08 2622.5  573.5 2624.92  573.5 2628  C 573.5 2631.08  571.08 2633.5  568 2633.5  C 564.92 2633.5  562.5 2631.08  562.5 2628  C 562.5 2624.92  564.92 2622.5  568 2622.5  Z " stroke-width="1" stroke="#797979" fill="none" />
  <path d="M 568 2631  C 566.32 2631  565 2629.68  565 2628  C 565 2626.32  566.32 2625  568 2625  C 569.68 2625  571 2626.32  571 2628  C 571 2629.68  569.68 2631  568 2631  " fill-rule="nonzero" fill="#797979" stroke="none" />
</svg>