<?xml version="1.0" encoding="utf-8"?>
<svg version="1.1" xmlns:xlink="http://www.w3.org/1999/xlink" width="12px" height="12px" viewBox="616 2717  12 12" xmlns="http://www.w3.org/2000/svg">
  <path d="M 622 2717  C 625.36 2717  628 2719.64  628 2723  C 628 2726.36  625.36 2729  622 2729  C 618.64 2729  616 2726.36  616 2723  C 616 2719.64  618.64 2717  622 2717  Z " fill-rule="nonzero" fill="#ffffff" stroke="none" />
  <path d="M 622 2717.5  C 625.08 2717.5  627.5 2719.92  627.5 2723  C 627.5 2726.08  625.08 2728.5  622 2728.5  C 618.92 2728.5  616.5 2726.08  616.5 2723  C 616.5 2719.92  618.92 2717.5  622 2717.5  Z " stroke-width="1" stroke="#797979" fill="none" />
  <path d="M 622 2726  C 620.32 2726  619 2724.68  619 2723  C 619 2721.32  620.32 2720  622 2720  C 623.68 2720  625 2721.32  625 2723  C 625 2724.68  623.68 2726  622 2726  " fill-rule="nonzero" fill="#797979" stroke="none" />
</svg>