<?xml version="1.0" encoding="utf-8"?>
<svg version="1.1" xmlns:xlink="http://www.w3.org/1999/xlink" width="12px" height="12px" viewBox="562 2810  12 12" xmlns="http://www.w3.org/2000/svg">
  <path d="M 568 2810  C 571.36 2810  574 2812.64  574 2816  C 574 2819.36  571.36 2822  568 2822  C 564.64 2822  562 2819.36  562 2816  C 562 2812.64  564.64 2810  568 2810  Z " fill-rule="nonzero" fill="#ffffff" stroke="none" />
  <path d="M 568 2810.5  C 571.08 2810.5  573.5 2812.92  573.5 2816  C 573.5 2819.08  571.08 2821.5  568 2821.5  C 564.92 2821.5  562.5 2819.08  562.5 2816  C 562.5 2812.92  564.92 2810.5  568 2810.5  Z " stroke-width="1" stroke="#797979" fill="none" />
  <path d="M 568 2819  C 566.32 2819  565 2817.68  565 2816  C 565 2814.32  566.32 2813  568 2813  C 569.68 2813  571 2814.32  571 2816  C 571 2817.68  569.68 2819  568 2819  " fill-rule="nonzero" fill="#797979" stroke="none" />
</svg>