<?xml version="1.0" encoding="utf-8"?>
<svg version="1.1" xmlns:xlink="http://www.w3.org/1999/xlink" width="12px" height="12px" viewBox="616 2810  12 12" xmlns="http://www.w3.org/2000/svg">
  <path d="M 622 2810  C 625.36 2810  628 2812.64  628 2816  C 628 2819.36  625.36 2822  622 2822  C 618.64 2822  616 2819.36  616 2816  C 616 2812.64  618.64 2810  622 2810  Z " fill-rule="nonzero" fill="#ffffff" stroke="none" />
  <path d="M 622 2810.5  C 625.08 2810.5  627.5 2812.92  627.5 2816  C 627.5 2819.08  625.08 2821.5  622 2821.5  C 618.92 2821.5  616.5 2819.08  616.5 2816  C 616.5 2812.92  618.92 2810.5  622 2810.5  Z " stroke-width="1" stroke="#797979" fill="none" />
  <path d="M 622 2819  C 620.32 2819  619 2817.68  619 2816  C 619 2814.32  620.32 2813  622 2813  C 623.68 2813  625 2814.32  625 2816  C 625 2817.68  623.68 2819  622 2819  " fill-rule="nonzero" fill="#797979" stroke="none" />
</svg>