<?xml version="1.0" encoding="utf-8"?>
<svg version="1.1" xmlns:xlink="http://www.w3.org/1999/xlink" width="12px" height="12px" viewBox="616 2905  12 12" xmlns="http://www.w3.org/2000/svg">
  <path d="M 622 2905  C 625.36 2905  628 2907.64  628 2911  C 628 2914.36  625.36 2917  622 2917  C 618.64 2917  616 2914.36  616 2911  C 616 2907.64  618.64 2905  622 2905  Z " fill-rule="nonzero" fill="#ffffff" stroke="none" />
  <path d="M 622 2905.5  C 625.08 2905.5  627.5 2907.92  627.5 2911  C 627.5 2914.08  625.08 2916.5  622 2916.5  C 618.92 2916.5  616.5 2914.08  616.5 2911  C 616.5 2907.92  618.92 2905.5  622 2905.5  Z " stroke-width="1" stroke="#797979" fill="none" />
  <path d="M 622 2914  C 620.32 2914  619 2912.68  619 2911  C 619 2909.32  620.32 2908  622 2908  C 623.68 2908  625 2909.32  625 2911  C 625 2912.68  623.68 2914  622 2914  " fill-rule="nonzero" fill="#797979" stroke="none" />
</svg>