<?xml version="1.0" encoding="utf-8"?>
<svg version="1.1" xmlns:xlink="http://www.w3.org/1999/xlink" width="12px" height="12px" viewBox="562 2905  12 12" xmlns="http://www.w3.org/2000/svg">
  <path d="M 568 2905  C 571.36 2905  574 2907.64  574 2911  C 574 2914.36  571.36 2917  568 2917  C 564.64 2917  562 2914.36  562 2911  C 562 2907.64  564.64 2905  568 2905  Z " fill-rule="nonzero" fill="#ffffff" stroke="none" />
  <path d="M 568 2905.5  C 571.08 2905.5  573.5 2907.92  573.5 2911  C 573.5 2914.08  571.08 2916.5  568 2916.5  C 564.92 2916.5  562.5 2914.08  562.5 2911  C 562.5 2907.92  564.92 2905.5  568 2905.5  Z " stroke-width="1" stroke="#797979" fill="none" />
  <path d="M 568 2914  C 566.32 2914  565 2912.68  565 2911  C 565 2909.32  566.32 2908  568 2908  C 569.68 2908  571 2909.32  571 2911  C 571 2912.68  569.68 2914  568 2914  " fill-rule="nonzero" fill="#797979" stroke="none" />
</svg>