<?xml version="1.0" encoding="utf-8"?>
<svg version="1.1" xmlns:xlink="http://www.w3.org/1999/xlink" width="12px" height="12px" viewBox="616 2952  12 12" xmlns="http://www.w3.org/2000/svg">
  <path d="M 622 2952  C 625.36 2952  628 2954.64  628 2958  C 628 2961.36  625.36 2964  622 2964  C 618.64 2964  616 2961.36  616 2958  C 616 2954.64  618.64 2952  622 2952  Z " fill-rule="nonzero" fill="#ffffff" stroke="none" />
  <path d="M 622 2952.5  C 625.08 2952.5  627.5 2954.92  627.5 2958  C 627.5 2961.08  625.08 2963.5  622 2963.5  C 618.92 2963.5  616.5 2961.08  616.5 2958  C 616.5 2954.92  618.92 2952.5  622 2952.5  Z " stroke-width="1" stroke="#797979" fill="none" />
  <path d="M 622 2961  C 620.32 2961  619 2959.68  619 2958  C 619 2956.32  620.32 2955  622 2955  C 623.68 2955  625 2956.32  625 2958  C 625 2959.68  623.68 2961  622 2961  " fill-rule="nonzero" fill="#797979" stroke="none" />
</svg>