<?xml version="1.0" encoding="utf-8"?>
<svg version="1.1" xmlns:xlink="http://www.w3.org/1999/xlink" width="12px" height="12px" viewBox="562 2952  12 12" xmlns="http://www.w3.org/2000/svg">
  <path d="M 568 2952  C 571.36 2952  574 2954.64  574 2958  C 574 2961.36  571.36 2964  568 2964  C 564.64 2964  562 2961.36  562 2958  C 562 2954.64  564.64 2952  568 2952  Z " fill-rule="nonzero" fill="#ffffff" stroke="none" />
  <path d="M 568 2952.5  C 571.08 2952.5  573.5 2954.92  573.5 2958  C 573.5 2961.08  571.08 2963.5  568 2963.5  C 564.92 2963.5  562.5 2961.08  562.5 2958  C 562.5 2954.92  564.92 2952.5  568 2952.5  Z " stroke-width="1" stroke="#797979" fill="none" />
  <path d="M 568 2961  C 566.32 2961  565 2959.68  565 2958  C 565 2956.32  566.32 2955  568 2955  C 569.68 2955  571 2956.32  571 2958  C 571 2959.68  569.68 2961  568 2961  " fill-rule="nonzero" fill="#797979" stroke="none" />
</svg>