<?xml version="1.0" encoding="utf-8"?>
<svg version="1.1" xmlns:xlink="http://www.w3.org/1999/xlink" width="12px" height="12px" viewBox="616 3178  12 12" xmlns="http://www.w3.org/2000/svg">
  <path d="M 622 3178  C 625.36 3178  628 3180.64  628 3184  C 628 3187.36  625.36 3190  622 3190  C 618.64 3190  616 3187.36  616 3184  C 616 3180.64  618.64 3178  622 3178  Z " fill-rule="nonzero" fill="#ffffff" stroke="none" />
  <path d="M 622 3178.5  C 625.08 3178.5  627.5 3180.92  627.5 3184  C 627.5 3187.08  625.08 3189.5  622 3189.5  C 618.92 3189.5  616.5 3187.08  616.5 3184  C 616.5 3180.92  618.92 3178.5  622 3178.5  Z " stroke-width="1" stroke="#797979" fill="none" />
  <path d="M 622 3187  C 620.32 3187  619 3185.68  619 3184  C 619 3182.32  620.32 3181  622 3181  C 623.68 3181  625 3182.32  625 3184  C 625 3185.68  623.68 3187  622 3187  " fill-rule="nonzero" fill="#797979" stroke="none" />
</svg>