<?xml version="1.0" encoding="utf-8"?>
<svg version="1.1" xmlns:xlink="http://www.w3.org/1999/xlink" width="12px" height="12px" viewBox="562 3178  12 12" xmlns="http://www.w3.org/2000/svg">
  <path d="M 568 3178  C 571.36 3178  574 3180.64  574 3184  C 574 3187.36  571.36 3190  568 3190  C 564.64 3190  562 3187.36  562 3184  C 562 3180.64  564.64 3178  568 3178  Z " fill-rule="nonzero" fill="#ffffff" stroke="none" />
  <path d="M 568 3178.5  C 571.08 3178.5  573.5 3180.92  573.5 3184  C 573.5 3187.08  571.08 3189.5  568 3189.5  C 564.92 3189.5  562.5 3187.08  562.5 3184  C 562.5 3180.92  564.92 3178.5  568 3178.5  Z " stroke-width="1" stroke="#797979" fill="none" />
  <path d="M 568 3187  C 566.32 3187  565 3185.68  565 3184  C 565 3182.32  566.32 3181  568 3181  C 569.68 3181  571 3182.32  571 3184  C 571 3185.68  569.68 3187  568 3187  " fill-rule="nonzero" fill="#797979" stroke="none" />
</svg>