<?xml version="1.0" encoding="utf-8"?>
<svg version="1.1" xmlns:xlink="http://www.w3.org/1999/xlink" width="12px" height="12px" viewBox="562 3226  12 12" xmlns="http://www.w3.org/2000/svg">
  <path d="M 568 3226  C 571.36 3226  574 3228.64  574 3232  C 574 3235.36  571.36 3238  568 3238  C 564.64 3238  562 3235.36  562 3232  C 562 3228.64  564.64 3226  568 3226  Z " fill-rule="nonzero" fill="#ffffff" stroke="none" />
  <path d="M 568 3226.5  C 571.08 3226.5  573.5 3228.92  573.5 3232  C 573.5 3235.08  571.08 3237.5  568 3237.5  C 564.92 3237.5  562.5 3235.08  562.5 3232  C 562.5 3228.92  564.92 3226.5  568 3226.5  Z " stroke-width="1" stroke="#797979" fill="none" />
  <path d="M 568 3235  C 566.32 3235  565 3233.68  565 3232  C 565 3230.32  566.32 3229  568 3229  C 569.68 3229  571 3230.32  571 3232  C 571 3233.68  569.68 3235  568 3235  " fill-rule="nonzero" fill="#797979" stroke="none" />
</svg>