<?xml version="1.0" encoding="utf-8"?>
<svg version="1.1" xmlns:xlink="http://www.w3.org/1999/xlink" width="12px" height="12px" viewBox="616 3273  12 12" xmlns="http://www.w3.org/2000/svg">
  <path d="M 622 3273  C 625.36 3273  628 3275.64  628 3279  C 628 3282.36  625.36 3285  622 3285  C 618.64 3285  616 3282.36  616 3279  C 616 3275.64  618.64 3273  622 3273  Z " fill-rule="nonzero" fill="#ffffff" stroke="none" />
  <path d="M 622 3273.5  C 625.08 3273.5  627.5 3275.92  627.5 3279  C 627.5 3282.08  625.08 3284.5  622 3284.5  C 618.92 3284.5  616.5 3282.08  616.5 3279  C 616.5 3275.92  618.92 3273.5  622 3273.5  Z " stroke-width="1" stroke="#797979" fill="none" />
  <path d="M 622 3282  C 620.32 3282  619 3280.68  619 3279  C 619 3277.32  620.32 3276  622 3276  C 623.68 3276  625 3277.32  625 3279  C 625 3280.68  623.68 3282  622 3282  " fill-rule="nonzero" fill="#797979" stroke="none" />
</svg>