<?xml version="1.0" encoding="utf-8"?>
<svg version="1.1" xmlns:xlink="http://www.w3.org/1999/xlink" width="12px" height="12px" viewBox="616 3367  12 12" xmlns="http://www.w3.org/2000/svg">
  <path d="M 622 3367  C 625.36 3367  628 3369.64  628 3373  C 628 3376.36  625.36 3379  622 3379  C 618.64 3379  616 3376.36  616 3373  C 616 3369.64  618.64 3367  622 3367  Z " fill-rule="nonzero" fill="#ffffff" stroke="none" />
  <path d="M 622 3367.5  C 625.08 3367.5  627.5 3369.92  627.5 3373  C 627.5 3376.08  625.08 3378.5  622 3378.5  C 618.92 3378.5  616.5 3376.08  616.5 3373  C 616.5 3369.92  618.92 3367.5  622 3367.5  Z " stroke-width="1" stroke="#797979" fill="none" />
  <path d="M 622 3376  C 620.32 3376  619 3374.68  619 3373  C 619 3371.32  620.32 3370  622 3370  C 623.68 3370  625 3371.32  625 3373  C 625 3374.68  623.68 3376  622 3376  " fill-rule="nonzero" fill="#797979" stroke="none" />
</svg>