<?xml version="1.0" encoding="utf-8"?>
<svg version="1.1" xmlns:xlink="http://www.w3.org/1999/xlink" width="12px" height="12px" viewBox="616 3226  12 12" xmlns="http://www.w3.org/2000/svg">
  <path d="M 622 3226  C 625.36 3226  628 3228.64  628 3232  C 628 3235.36  625.36 3238  622 3238  C 618.64 3238  616 3235.36  616 3232  C 616 3228.64  618.64 3226  622 3226  Z " fill-rule="nonzero" fill="#ffffff" stroke="none" />
  <path d="M 622 3226.5  C 625.08 3226.5  627.5 3228.92  627.5 3232  C 627.5 3235.08  625.08 3237.5  622 3237.5  C 618.92 3237.5  616.5 3235.08  616.5 3232  C 616.5 3228.92  618.92 3226.5  622 3226.5  Z " stroke-width="1" stroke="#797979" fill="none" />
  <path d="M 622 3235  C 620.32 3235  619 3233.68  619 3232  C 619 3230.32  620.32 3229  622 3229  C 623.68 3229  625 3230.32  625 3232  C 625 3233.68  623.68 3235  622 3235  " fill-rule="nonzero" fill="#797979" stroke="none" />
</svg>