<?xml version="1.0" encoding="utf-8"?>
<svg version="1.1" xmlns:xlink="http://www.w3.org/1999/xlink" width="12px" height="12px" viewBox="616 3320  12 12" xmlns="http://www.w3.org/2000/svg">
  <path d="M 622 3320  C 625.36 3320  628 3322.64  628 3326  C 628 3329.36  625.36 3332  622 3332  C 618.64 3332  616 3329.36  616 3326  C 616 3322.64  618.64 3320  622 3320  Z " fill-rule="nonzero" fill="#ffffff" stroke="none" />
  <path d="M 622 3320.5  C 625.08 3320.5  627.5 3322.92  627.5 3326  C 627.5 3329.08  625.08 3331.5  622 3331.5  C 618.92 3331.5  616.5 3329.08  616.5 3326  C 616.5 3322.92  618.92 3320.5  622 3320.5  Z " stroke-width="1" stroke="#797979" fill="none" />
  <path d="M 622 3329  C 620.32 3329  619 3327.68  619 3326  C 619 3324.32  620.32 3323  622 3323  C 623.68 3323  625 3324.32  625 3326  C 625 3327.68  623.68 3329  622 3329  " fill-rule="nonzero" fill="#797979" stroke="none" />
</svg>