<?xml version="1.0" encoding="utf-8"?>
<svg version="1.1" xmlns:xlink="http://www.w3.org/1999/xlink" width="12px" height="12px" viewBox="562 3320  12 12" xmlns="http://www.w3.org/2000/svg">
  <path d="M 568 3320  C 571.36 3320  574 3322.64  574 3326  C 574 3329.36  571.36 3332  568 3332  C 564.64 3332  562 3329.36  562 3326  C 562 3322.64  564.64 3320  568 3320  Z " fill-rule="nonzero" fill="#ffffff" stroke="none" />
  <path d="M 568 3320.5  C 571.08 3320.5  573.5 3322.92  573.5 3326  C 573.5 3329.08  571.08 3331.5  568 3331.5  C 564.92 3331.5  562.5 3329.08  562.5 3326  C 562.5 3322.92  564.92 3320.5  568 3320.5  Z " stroke-width="1" stroke="#797979" fill="none" />
  <path d="M 568 3329  C 566.32 3329  565 3327.68  565 3326  C 565 3324.32  566.32 3323  568 3323  C 569.68 3323  571 3324.32  571 3326  C 571 3327.68  569.68 3329  568 3329  " fill-rule="nonzero" fill="#797979" stroke="none" />
</svg>