<?xml version="1.0" encoding="utf-8"?>
<svg version="1.1" xmlns:xlink="http://www.w3.org/1999/xlink" width="12px" height="12px" viewBox="616 3415  12 12" xmlns="http://www.w3.org/2000/svg">
  <path d="M 622 3415  C 625.36 3415  628 3417.64  628 3421  C 628 3424.36  625.36 3427  622 3427  C 618.64 3427  616 3424.36  616 3421  C 616 3417.64  618.64 3415  622 3415  Z " fill-rule="nonzero" fill="#ffffff" stroke="none" />
  <path d="M 622 3415.5  C 625.08 3415.5  627.5 3417.92  627.5 3421  C 627.5 3424.08  625.08 3426.5  622 3426.5  C 618.92 3426.5  616.5 3424.08  616.5 3421  C 616.5 3417.92  618.92 3415.5  622 3415.5  Z " stroke-width="1" stroke="#797979" fill="none" />
  <path d="M 622 3424  C 620.32 3424  619 3422.68  619 3421  C 619 3419.32  620.32 3418  622 3418  C 623.68 3418  625 3419.32  625 3421  C 625 3422.68  623.68 3424  622 3424  " fill-rule="nonzero" fill="#797979" stroke="none" />
</svg>