<?xml version="1.0" encoding="utf-8"?>
<svg version="1.1" xmlns:xlink="http://www.w3.org/1999/xlink" width="12px" height="12px" viewBox="562 3415  12 12" xmlns="http://www.w3.org/2000/svg">
  <path d="M 568 3415  C 571.36 3415  574 3417.64  574 3421  C 574 3424.36  571.36 3427  568 3427  C 564.64 3427  562 3424.36  562 3421  C 562 3417.64  564.64 3415  568 3415  Z " fill-rule="nonzero" fill="#ffffff" stroke="none" />
  <path d="M 568 3415.5  C 571.08 3415.5  573.5 3417.92  573.5 3421  C 573.5 3424.08  571.08 3426.5  568 3426.5  C 564.92 3426.5  562.5 3424.08  562.5 3421  C 562.5 3417.92  564.92 3415.5  568 3415.5  Z " stroke-width="1" stroke="#797979" fill="none" />
  <path d="M 568 3424  C 566.32 3424  565 3422.68  565 3421  C 565 3419.32  566.32 3418  568 3418  C 569.68 3418  571 3419.32  571 3421  C 571 3422.68  569.68 3424  568 3424  " fill-rule="nonzero" fill="#797979" stroke="none" />
</svg>