<?xml version="1.0" encoding="utf-8"?>
<svg version="1.1" xmlns:xlink="http://www.w3.org/1999/xlink" width="12px" height="12px" viewBox="562 3603  12 12" xmlns="http://www.w3.org/2000/svg">
  <path d="M 568 3603  C 571.36 3603  574 3605.64  574 3609  C 574 3612.36  571.36 3615  568 3615  C 564.64 3615  562 3612.36  562 3609  C 562 3605.64  564.64 3603  568 3603  Z " fill-rule="nonzero" fill="#ffffff" stroke="none" />
  <path d="M 568 3603.5  C 571.08 3603.5  573.5 3605.92  573.5 3609  C 573.5 3612.08  571.08 3614.5  568 3614.5  C 564.92 3614.5  562.5 3612.08  562.5 3609  C 562.5 3605.92  564.92 3603.5  568 3603.5  Z " stroke-width="1" stroke="#797979" fill="none" />
  <path d="M 568 3612  C 566.32 3612  565 3610.68  565 3609  C 565 3607.32  566.32 3606  568 3606  C 569.68 3606  571 3607.32  571 3609  C 571 3610.68  569.68 3612  568 3612  " fill-rule="nonzero" fill="#797979" stroke="none" />
</svg>