<?xml version="1.0" encoding="utf-8"?>
<svg version="1.1" xmlns:xlink="http://www.w3.org/1999/xlink" width="12px" height="12px" viewBox="616 3556  12 12" xmlns="http://www.w3.org/2000/svg">
  <path d="M 622 3556  C 625.36 3556  628 3558.64  628 3562  C 628 3565.36  625.36 3568  622 3568  C 618.64 3568  616 3565.36  616 3562  C 616 3558.64  618.64 3556  622 3556  Z " fill-rule="nonzero" fill="#ffffff" stroke="none" />
  <path d="M 622 3556.5  C 625.08 3556.5  627.5 3558.92  627.5 3562  C 627.5 3565.08  625.08 3567.5  622 3567.5  C 618.92 3567.5  616.5 3565.08  616.5 3562  C 616.5 3558.92  618.92 3556.5  622 3556.5  Z " stroke-width="1" stroke="#797979" fill="none" />
  <path d="M 622 3565  C 620.32 3565  619 3563.68  619 3562  C 619 3560.32  620.32 3559  622 3559  C 623.68 3559  625 3560.32  625 3562  C 625 3563.68  623.68 3565  622 3565  " fill-rule="nonzero" fill="#797979" stroke="none" />
</svg>