<?xml version="1.0" encoding="utf-8"?>
<svg version="1.1" xmlns:xlink="http://www.w3.org/1999/xlink" width="12px" height="12px" viewBox="616 3697  12 12" xmlns="http://www.w3.org/2000/svg">
  <path d="M 622 3697  C 625.36 3697  628 3699.64  628 3703  C 628 3706.36  625.36 3709  622 3709  C 618.64 3709  616 3706.36  616 3703  C 616 3699.64  618.64 3697  622 3697  Z " fill-rule="nonzero" fill="#ffffff" stroke="none" />
  <path d="M 622 3697.5  C 625.08 3697.5  627.5 3699.92  627.5 3703  C 627.5 3706.08  625.08 3708.5  622 3708.5  C 618.92 3708.5  616.5 3706.08  616.5 3703  C 616.5 3699.92  618.92 3697.5  622 3697.5  Z " stroke-width="1" stroke="#797979" fill="none" />
  <path d="M 622 3706  C 620.32 3706  619 3704.68  619 3703  C 619 3701.32  620.32 3700  622 3700  C 623.68 3700  625 3701.32  625 3703  C 625 3704.68  623.68 3706  622 3706  " fill-rule="nonzero" fill="#797979" stroke="none" />
</svg>