<?xml version="1.0" encoding="utf-8"?>
<svg version="1.1" xmlns:xlink="http://www.w3.org/1999/xlink" width="12px" height="12px" viewBox="616 3603  12 12" xmlns="http://www.w3.org/2000/svg">
  <path d="M 622 3603  C 625.36 3603  628 3605.64  628 3609  C 628 3612.36  625.36 3615  622 3615  C 618.64 3615  616 3612.36  616 3609  C 616 3605.64  618.64 3603  622 3603  Z " fill-rule="nonzero" fill="#ffffff" stroke="none" />
  <path d="M 622 3603.5  C 625.08 3603.5  627.5 3605.92  627.5 3609  C 627.5 3612.08  625.08 3614.5  622 3614.5  C 618.92 3614.5  616.5 3612.08  616.5 3609  C 616.5 3605.92  618.92 3603.5  622 3603.5  Z " stroke-width="1" stroke="#797979" fill="none" />
  <path d="M 622 3612  C 620.32 3612  619 3610.68  619 3609  C 619 3607.32  620.32 3606  622 3606  C 623.68 3606  625 3607.32  625 3609  C 625 3610.68  623.68 3612  622 3612  " fill-rule="nonzero" fill="#797979" stroke="none" />
</svg>