<?xml version="1.0" encoding="utf-8"?>
<svg version="1.1" xmlns:xlink="http://www.w3.org/1999/xlink" width="12px" height="12px" viewBox="562 3697  12 12" xmlns="http://www.w3.org/2000/svg">
  <path d="M 568 3697  C 571.36 3697  574 3699.64  574 3703  C 574 3706.36  571.36 3709  568 3709  C 564.64 3709  562 3706.36  562 3703  C 562 3699.64  564.64 3697  568 3697  Z " fill-rule="nonzero" fill="#ffffff" stroke="none" />
  <path d="M 568 3697.5  C 571.08 3697.5  573.5 3699.92  573.5 3703  C 573.5 3706.08  571.08 3708.5  568 3708.5  C 564.92 3708.5  562.5 3706.08  562.5 3703  C 562.5 3699.92  564.92 3697.5  568 3697.5  Z " stroke-width="1" stroke="#797979" fill="none" />
  <path d="M 568 3706  C 566.32 3706  565 3704.68  565 3703  C 565 3701.32  566.32 3700  568 3700  C 569.68 3700  571 3701.32  571 3703  C 571 3704.68  569.68 3706  568 3706  " fill-rule="nonzero" fill="#797979" stroke="none" />
</svg>