<?xml version="1.0" encoding="utf-8"?>
<svg version="1.1" xmlns:xlink="http://www.w3.org/1999/xlink" width="12px" height="12px" viewBox="562 3745  12 12" xmlns="http://www.w3.org/2000/svg">
  <path d="M 568 3745  C 571.36 3745  574 3747.64  574 3751  C 574 3754.36  571.36 3757  568 3757  C 564.64 3757  562 3754.36  562 3751  C 562 3747.64  564.64 3745  568 3745  Z " fill-rule="nonzero" fill="#ffffff" stroke="none" />
  <path d="M 568 3745.5  C 571.08 3745.5  573.5 3747.92  573.5 3751  C 573.5 3754.08  571.08 3756.5  568 3756.5  C 564.92 3756.5  562.5 3754.08  562.5 3751  C 562.5 3747.92  564.92 3745.5  568 3745.5  Z " stroke-width="1" stroke="#797979" fill="none" />
  <path d="M 568 3754  C 566.32 3754  565 3752.68  565 3751  C 565 3749.32  566.32 3748  568 3748  C 569.68 3748  571 3749.32  571 3751  C 571 3752.68  569.68 3754  568 3754  " fill-rule="nonzero" fill="#797979" stroke="none" />
</svg>