<?xml version="1.0" encoding="utf-8"?>
<svg version="1.1" xmlns:xlink="http://www.w3.org/1999/xlink" width="12px" height="12px" viewBox="616 3829  12 12" xmlns="http://www.w3.org/2000/svg">
  <path d="M 622 3829  C 625.36 3829  628 3831.64  628 3835  C 628 3838.36  625.36 3841  622 3841  C 618.64 3841  616 3838.36  616 3835  C 616 3831.64  618.64 3829  622 3829  Z " fill-rule="nonzero" fill="#ffffff" stroke="none" />
  <path d="M 622 3829.5  C 625.08 3829.5  627.5 3831.92  627.5 3835  C 627.5 3838.08  625.08 3840.5  622 3840.5  C 618.92 3840.5  616.5 3838.08  616.5 3835  C 616.5 3831.92  618.92 3829.5  622 3829.5  Z " stroke-width="1" stroke="#797979" fill="none" />
  <path d="M 622 3838  C 620.32 3838  619 3836.68  619 3835  C 619 3833.32  620.32 3832  622 3832  C 623.68 3832  625 3833.32  625 3835  C 625 3836.68  623.68 3838  622 3838  " fill-rule="nonzero" fill="#797979" stroke="none" />
</svg>