<?xml version="1.0" encoding="utf-8"?>
<svg version="1.1" xmlns:xlink="http://www.w3.org/1999/xlink" width="12px" height="12px" viewBox="562 3877  12 12" xmlns="http://www.w3.org/2000/svg">
  <path d="M 568 3877  C 571.36 3877  574 3879.64  574 3883  C 574 3886.36  571.36 3889  568 3889  C 564.64 3889  562 3886.36  562 3883  C 562 3879.64  564.64 3877  568 3877  Z " fill-rule="nonzero" fill="#ffffff" stroke="none" />
  <path d="M 568 3877.5  C 571.08 3877.5  573.5 3879.92  573.5 3883  C 573.5 3886.08  571.08 3888.5  568 3888.5  C 564.92 3888.5  562.5 3886.08  562.5 3883  C 562.5 3879.92  564.92 3877.5  568 3877.5  Z " stroke-width="1" stroke="#797979" fill="none" />
  <path d="M 568 3886  C 566.32 3886  565 3884.68  565 3883  C 565 3881.32  566.32 3880  568 3880  C 569.68 3880  571 3881.32  571 3883  C 571 3884.68  569.68 3886  568 3886  " fill-rule="nonzero" fill="#797979" stroke="none" />
</svg>