<?xml version="1.0" encoding="utf-8"?>
<svg version="1.1" xmlns:xlink="http://www.w3.org/1999/xlink" width="12px" height="12px" viewBox="616 3877  12 12" xmlns="http://www.w3.org/2000/svg">
  <path d="M 622 3877  C 625.36 3877  628 3879.64  628 3883  C 628 3886.36  625.36 3889  622 3889  C 618.64 3889  616 3886.36  616 3883  C 616 3879.64  618.64 3877  622 3877  Z " fill-rule="nonzero" fill="#ffffff" stroke="none" />
  <path d="M 622 3877.5  C 625.08 3877.5  627.5 3879.92  627.5 3883  C 627.5 3886.08  625.08 3888.5  622 3888.5  C 618.92 3888.5  616.5 3886.08  616.5 3883  C 616.5 3879.92  618.92 3877.5  622 3877.5  Z " stroke-width="1" stroke="#797979" fill="none" />
  <path d="M 622 3886  C 620.32 3886  619 3884.68  619 3883  C 619 3881.32  620.32 3880  622 3880  C 623.68 3880  625 3881.32  625 3883  C 625 3884.68  623.68 3886  622 3886  " fill-rule="nonzero" fill="#797979" stroke="none" />
</svg>