<?xml version="1.0" encoding="utf-8"?>
<svg version="1.1" xmlns:xlink="http://www.w3.org/1999/xlink" width="12px" height="12px" viewBox="616 3924  12 12" xmlns="http://www.w3.org/2000/svg">
  <path d="M 622 3924  C 625.36 3924  628 3926.64  628 3930  C 628 3933.36  625.36 3936  622 3936  C 618.64 3936  616 3933.36  616 3930  C 616 3926.64  618.64 3924  622 3924  Z " fill-rule="nonzero" fill="#ffffff" stroke="none" />
  <path d="M 622 3924.5  C 625.08 3924.5  627.5 3926.92  627.5 3930  C 627.5 3933.08  625.08 3935.5  622 3935.5  C 618.92 3935.5  616.5 3933.08  616.5 3930  C 616.5 3926.92  618.92 3924.5  622 3924.5  Z " stroke-width="1" stroke="#797979" fill="none" />
  <path d="M 622 3933  C 620.32 3933  619 3931.68  619 3930  C 619 3928.32  620.32 3927  622 3927  C 623.68 3927  625 3928.32  625 3930  C 625 3931.68  623.68 3933  622 3933  " fill-rule="nonzero" fill="#797979" stroke="none" />
</svg>