<?xml version="1.0" encoding="utf-8"?>
<svg version="1.1" xmlns:xlink="http://www.w3.org/1999/xlink" width="12px" height="12px" viewBox="616 3971  12 12" xmlns="http://www.w3.org/2000/svg">
  <path d="M 622 3971  C 625.36 3971  628 3973.64  628 3977  C 628 3980.36  625.36 3983  622 3983  C 618.64 3983  616 3980.36  616 3977  C 616 3973.64  618.64 3971  622 3971  Z " fill-rule="nonzero" fill="#ffffff" stroke="none" />
  <path d="M 622 3971.5  C 625.08 3971.5  627.5 3973.92  627.5 3977  C 627.5 3980.08  625.08 3982.5  622 3982.5  C 618.92 3982.5  616.5 3980.08  616.5 3977  C 616.5 3973.92  618.92 3971.5  622 3971.5  Z " stroke-width="1" stroke="#797979" fill="none" />
  <path d="M 622 3980  C 620.32 3980  619 3978.68  619 3977  C 619 3975.32  620.32 3974  622 3974  C 623.68 3974  625 3975.32  625 3977  C 625 3978.68  623.68 3980  622 3980  " fill-rule="nonzero" fill="#797979" stroke="none" />
</svg>