<?xml version="1.0" encoding="utf-8"?>
<svg version="1.1" xmlns:xlink="http://www.w3.org/1999/xlink" width="12px" height="12px" viewBox="562 3924  12 12" xmlns="http://www.w3.org/2000/svg">
  <path d="M 568 3924  C 571.36 3924  574 3926.64  574 3930  C 574 3933.36  571.36 3936  568 3936  C 564.64 3936  562 3933.36  562 3930  C 562 3926.64  564.64 3924  568 3924  Z " fill-rule="nonzero" fill="#ffffff" stroke="none" />
  <path d="M 568 3924.5  C 571.08 3924.5  573.5 3926.92  573.5 3930  C 573.5 3933.08  571.08 3935.5  568 3935.5  C 564.92 3935.5  562.5 3933.08  562.5 3930  C 562.5 3926.92  564.92 3924.5  568 3924.5  Z " stroke-width="1" stroke="#797979" fill="none" />
  <path d="M 568 3933  C 566.32 3933  565 3931.68  565 3930  C 565 3928.32  566.32 3927  568 3927  C 569.68 3927  571 3928.32  571 3930  C 571 3931.68  569.68 3933  568 3933  " fill-rule="nonzero" fill="#797979" stroke="none" />
</svg>