<?xml version="1.0" encoding="utf-8"?>
<svg version="1.1" xmlns:xlink="http://www.w3.org/1999/xlink" width="12px" height="12px" viewBox="562 4018  12 12" xmlns="http://www.w3.org/2000/svg">
  <path d="M 568 4018  C 571.36 4018  574 4020.64  574 4024  C 574 4027.36  571.36 4030  568 4030  C 564.64 4030  562 4027.36  562 4024  C 562 4020.64  564.64 4018  568 4018  Z " fill-rule="nonzero" fill="#ffffff" stroke="none" />
  <path d="M 568 4018.5  C 571.08 4018.5  573.5 4020.92  573.5 4024  C 573.5 4027.08  571.08 4029.5  568 4029.5  C 564.92 4029.5  562.5 4027.08  562.5 4024  C 562.5 4020.92  564.92 4018.5  568 4018.5  Z " stroke-width="1" stroke="#797979" fill="none" />
  <path d="M 568 4027  C 566.32 4027  565 4025.68  565 4024  C 565 4022.32  566.32 4021  568 4021  C 569.68 4021  571 4022.32  571 4024  C 571 4025.68  569.68 4027  568 4027  " fill-rule="nonzero" fill="#797979" stroke="none" />
</svg>