<?xml version="1.0" encoding="utf-8"?>
<svg version="1.1" xmlns:xlink="http://www.w3.org/1999/xlink" width="12px" height="12px" viewBox="616 4066  12 12" xmlns="http://www.w3.org/2000/svg">
  <path d="M 622 4066  C 625.36 4066  628 4068.64  628 4072  C 628 4075.36  625.36 4078  622 4078  C 618.64 4078  616 4075.36  616 4072  C 616 4068.64  618.64 4066  622 4066  Z " fill-rule="nonzero" fill="#ffffff" stroke="none" />
  <path d="M 622 4066.5  C 625.08 4066.5  627.5 4068.92  627.5 4072  C 627.5 4075.08  625.08 4077.5  622 4077.5  C 618.92 4077.5  616.5 4075.08  616.5 4072  C 616.5 4068.92  618.92 4066.5  622 4066.5  Z " stroke-width="1" stroke="#797979" fill="none" />
  <path d="M 622 4075  C 620.32 4075  619 4073.68  619 4072  C 619 4070.32  620.32 4069  622 4069  C 623.68 4069  625 4070.32  625 4072  C 625 4073.68  623.68 4075  622 4075  " fill-rule="nonzero" fill="#797979" stroke="none" />
</svg>