<?xml version="1.0" encoding="utf-8"?>
<svg version="1.1" xmlns:xlink="http://www.w3.org/1999/xlink" width="12px" height="12px" viewBox="616 4018  12 12" xmlns="http://www.w3.org/2000/svg">
  <path d="M 622 4018  C 625.36 4018  628 4020.64  628 4024  C 628 4027.36  625.36 4030  622 4030  C 618.64 4030  616 4027.36  616 4024  C 616 4020.64  618.64 4018  622 4018  Z " fill-rule="nonzero" fill="#ffffff" stroke="none" />
  <path d="M 622 4018.5  C 625.08 4018.5  627.5 4020.92  627.5 4024  C 627.5 4027.08  625.08 4029.5  622 4029.5  C 618.92 4029.5  616.5 4027.08  616.5 4024  C 616.5 4020.92  618.92 4018.5  622 4018.5  Z " stroke-width="1" stroke="#797979" fill="none" />
  <path d="M 622 4027  C 620.32 4027  619 4025.68  619 4024  C 619 4022.32  620.32 4021  622 4021  C 623.68 4021  625 4022.32  625 4024  C 625 4025.68  623.68 4027  622 4027  " fill-rule="nonzero" fill="#797979" stroke="none" />
</svg>