<?xml version="1.0" encoding="utf-8"?>
<svg version="1.1" xmlns:xlink="http://www.w3.org/1999/xlink" width="12px" height="12px" viewBox="616 4150  12 12" xmlns="http://www.w3.org/2000/svg">
  <path d="M 622 4150  C 625.36 4150  628 4152.64  628 4156  C 628 4159.36  625.36 4162  622 4162  C 618.64 4162  616 4159.36  616 4156  C 616 4152.64  618.64 4150  622 4150  Z " fill-rule="nonzero" fill="#ffffff" stroke="none" />
  <path d="M 622 4150.5  C 625.08 4150.5  627.5 4152.92  627.5 4156  C 627.5 4159.08  625.08 4161.5  622 4161.5  C 618.92 4161.5  616.5 4159.08  616.5 4156  C 616.5 4152.92  618.92 4150.5  622 4150.5  Z " stroke-width="1" stroke="#797979" fill="none" />
  <path d="M 622 4159  C 620.32 4159  619 4157.68  619 4156  C 619 4154.32  620.32 4153  622 4153  C 623.68 4153  625 4154.32  625 4156  C 625 4157.68  623.68 4159  622 4159  " fill-rule="nonzero" fill="#797979" stroke="none" />
</svg>