<?xml version="1.0" encoding="utf-8"?>
<svg version="1.1" xmlns:xlink="http://www.w3.org/1999/xlink" width="12px" height="12px" viewBox="616 4339  12 12" xmlns="http://www.w3.org/2000/svg">
  <path d="M 622 4339  C 625.36 4339  628 4341.64  628 4345  C 628 4348.36  625.36 4351  622 4351  C 618.64 4351  616 4348.36  616 4345  C 616 4341.64  618.64 4339  622 4339  Z " fill-rule="nonzero" fill="#ffffff" stroke="none" />
  <path d="M 622 4339.5  C 625.08 4339.5  627.5 4341.92  627.5 4345  C 627.5 4348.08  625.08 4350.5  622 4350.5  C 618.92 4350.5  616.5 4348.08  616.5 4345  C 616.5 4341.92  618.92 4339.5  622 4339.5  Z " stroke-width="1" stroke="#797979" fill="none" />
  <path d="M 622 4348  C 620.32 4348  619 4346.68  619 4345  C 619 4343.32  620.32 4342  622 4342  C 623.68 4342  625 4343.32  625 4345  C 625 4346.68  623.68 4348  622 4348  " fill-rule="nonzero" fill="#797979" stroke="none" />
</svg>