<?xml version="1.0" encoding="utf-8"?>
<svg version="1.1" xmlns:xlink="http://www.w3.org/1999/xlink" width="12px" height="12px" viewBox="616 4245  12 12" xmlns="http://www.w3.org/2000/svg">
  <path d="M 622 4245  C 625.36 4245  628 4247.64  628 4251  C 628 4254.36  625.36 4257  622 4257  C 618.64 4257  616 4254.36  616 4251  C 616 4247.64  618.64 4245  622 4245  Z " fill-rule="nonzero" fill="#ffffff" stroke="none" />
  <path d="M 622 4245.5  C 625.08 4245.5  627.5 4247.92  627.5 4251  C 627.5 4254.08  625.08 4256.5  622 4256.5  C 618.92 4256.5  616.5 4254.08  616.5 4251  C 616.5 4247.92  618.92 4245.5  622 4245.5  Z " stroke-width="1" stroke="#797979" fill="none" />
  <path d="M 622 4254  C 620.32 4254  619 4252.68  619 4251  C 619 4249.32  620.32 4248  622 4248  C 623.68 4248  625 4249.32  625 4251  C 625 4252.68  623.68 4254  622 4254  " fill-rule="nonzero" fill="#797979" stroke="none" />
</svg>