<?xml version="1.0" encoding="utf-8"?>
<svg version="1.1" xmlns:xlink="http://www.w3.org/1999/xlink" width="12px" height="12px" viewBox="616 4198  12 12" xmlns="http://www.w3.org/2000/svg">
  <path d="M 622 4198  C 625.36 4198  628 4200.64  628 4204  C 628 4207.36  625.36 4210  622 4210  C 618.64 4210  616 4207.36  616 4204  C 616 4200.64  618.64 4198  622 4198  Z " fill-rule="nonzero" fill="#ffffff" stroke="none" />
  <path d="M 622 4198.5  C 625.08 4198.5  627.5 4200.92  627.5 4204  C 627.5 4207.08  625.08 4209.5  622 4209.5  C 618.92 4209.5  616.5 4207.08  616.5 4204  C 616.5 4200.92  618.92 4198.5  622 4198.5  Z " stroke-width="1" stroke="#797979" fill="none" />
  <path d="M 622 4207  C 620.32 4207  619 4205.68  619 4204  C 619 4202.32  620.32 4201  622 4201  C 623.68 4201  625 4202.32  625 4204  C 625 4205.68  623.68 4207  622 4207  " fill-rule="nonzero" fill="#797979" stroke="none" />
</svg>