<?xml version="1.0" encoding="utf-8"?>
<svg version="1.1" xmlns:xlink="http://www.w3.org/1999/xlink" width="12px" height="12px" viewBox="616 4292  12 12" xmlns="http://www.w3.org/2000/svg">
  <path d="M 622 4292  C 625.36 4292  628 4294.64  628 4298  C 628 4301.36  625.36 4304  622 4304  C 618.64 4304  616 4301.36  616 4298  C 616 4294.64  618.64 4292  622 4292  Z " fill-rule="nonzero" fill="#ffffff" stroke="none" />
  <path d="M 622 4292.5  C 625.08 4292.5  627.5 4294.92  627.5 4298  C 627.5 4301.08  625.08 4303.5  622 4303.5  C 618.92 4303.5  616.5 4301.08  616.5 4298  C 616.5 4294.92  618.92 4292.5  622 4292.5  Z " stroke-width="1" stroke="#797979" fill="none" />
  <path d="M 622 4301  C 620.32 4301  619 4299.68  619 4298  C 619 4296.32  620.32 4295  622 4295  C 623.68 4295  625 4296.32  625 4298  C 625 4299.68  623.68 4301  622 4301  " fill-rule="nonzero" fill="#797979" stroke="none" />
</svg>