<?xml version="1.0" encoding="utf-8"?>
<svg version="1.1" xmlns:xlink="http://www.w3.org/1999/xlink" width="12px" height="12px" viewBox="562 4198  12 12" xmlns="http://www.w3.org/2000/svg">
  <path d="M 568 4198  C 571.36 4198  574 4200.64  574 4204  C 574 4207.36  571.36 4210  568 4210  C 564.64 4210  562 4207.36  562 4204  C 562 4200.64  564.64 4198  568 4198  Z " fill-rule="nonzero" fill="#ffffff" stroke="none" />
  <path d="M 568 4198.5  C 571.08 4198.5  573.5 4200.92  573.5 4204  C 573.5 4207.08  571.08 4209.5  568 4209.5  C 564.92 4209.5  562.5 4207.08  562.5 4204  C 562.5 4200.92  564.92 4198.5  568 4198.5  Z " stroke-width="1" stroke="#797979" fill="none" />
  <path d="M 568 4207  C 566.32 4207  565 4205.68  565 4204  C 565 4202.32  566.32 4201  568 4201  C 569.68 4201  571 4202.32  571 4204  C 571 4205.68  569.68 4207  568 4207  " fill-rule="nonzero" fill="#797979" stroke="none" />
</svg>