<?xml version="1.0" encoding="utf-8"?>
<svg version="1.1" xmlns:xlink="http://www.w3.org/1999/xlink" width="12px" height="12px" viewBox="616 4387  12 12" xmlns="http://www.w3.org/2000/svg">
  <path d="M 622 4387  C 625.36 4387  628 4389.64  628 4393  C 628 4396.36  625.36 4399  622 4399  C 618.64 4399  616 4396.36  616 4393  C 616 4389.64  618.64 4387  622 4387  Z " fill-rule="nonzero" fill="#ffffff" stroke="none" />
  <path d="M 622 4387.5  C 625.08 4387.5  627.5 4389.92  627.5 4393  C 627.5 4396.08  625.08 4398.5  622 4398.5  C 618.92 4398.5  616.5 4396.08  616.5 4393  C 616.5 4389.92  618.92 4387.5  622 4387.5  Z " stroke-width="1" stroke="#797979" fill="none" />
  <path d="M 622 4396  C 620.32 4396  619 4394.68  619 4393  C 619 4391.32  620.32 4390  622 4390  C 623.68 4390  625 4391.32  625 4393  C 625 4394.68  623.68 4396  622 4396  " fill-rule="nonzero" fill="#797979" stroke="none" />
</svg>