<?xml version="1.0" encoding="utf-8"?>
<svg version="1.1" xmlns:xlink="http://www.w3.org/1999/xlink" width="32px" height="32px" xmlns="http://www.w3.org/2000/svg">
  <g transform="matrix(1 0 0 1 -652 -32 )">
    <path d="M 668 32  C 676.96 32  684 39.04  684 48  C 684 56.96  676.96 64  668 64  C 659.04 64  652 56.96  652 48  C 652 39.04  659.04 32  668 32  Z " fill-rule="nonzero" fill="#ffffff" stroke="none" />
    <path d="M 668 32.5  C 676.68 32.5  683.5 39.32  683.5 48  C 683.5 56.68  676.68 63.5  668 63.5  C 659.32 63.5  652.5 56.68  652.5 48  C 652.5 39.32  659.32 32.5  668 32.5  Z " stroke-width="1" stroke="#e8e8e8" fill="none" />
  </g>
</svg>