<?xml version="1.0" encoding="utf-8"?>
<svg version="1.1" xmlns:xlink="http://www.w3.org/1999/xlink" width="16px" height="16px" xmlns="http://www.w3.org/2000/svg">
  <g transform="matrix(1 0 0 1 -660 -40 )">
    <path d="M 0.5 14  L 0.5 15.5  L 15.5 15.5  L 15.5 14  L 0.5 14  Z M 5.86625 11.75  L 3 11.75  L 3 8.88375  L 7.375 4.50875  L 10.24125 7.375  L 5.86625 11.75  Z M 8.25875 3.625  L 9.875 2.00875  L 12.74125 4.875  L 11.125 6.49125  L 8.25875 3.625  Z M 6.38375 13  L 14.066875 5.3175  L 14.0675 5.316875  C 14.311488711458 5.07281259282137  14.311488711458 4.67718740717863  14.0675 4.433125  L 14.066875 4.4325  L 10.3175 0.683125  L 10.316875 0.6825  C 10.0728125928214 0.43851128854196  9.67718740717863 0.43851128854196  9.433125 0.6825  L 9.4325 0.683125  L 1.75 8.36625  L 1.75 13  L 6.38375 13  Z " fill-rule="nonzero" fill="#181818" stroke="none" transform="matrix(1 0 0 1 660 40 )" />
  </g>
</svg>