<?xml version="1.0" encoding="utf-8"?>
<svg version="1.1" xmlns:xlink="http://www.w3.org/1999/xlink" width="24px" height="21px" xmlns="http://www.w3.org/2000/svg">
  <g transform="matrix(1 0 0 1 -44 -576 )">
    <path d="M 21.8417252282609 20.766093097826  L 20.8057277934782 20.766093097826  L 3.19437231521738 20.766093097826  L 2.15837491304347 20.766093097826  C 1.01406277173913 20.766093097826  0.0863800760869822 19.8410131630434  0 18.6998376847826  L 0 4.75249676086958  C 0.0863800434782434 3.61132124999995  1.01406273913045 2.68624134782613  2.15837488043479 2.68624134782613  L 3.19423881521737 2.68624134782613  L 6.56120540217393 2.68624134782613  L 7.85607704347825 0.619985934782562  C 7.85607704347825 0.334683717391272  8.60607149999998 0.103438760869608  8.89220794565216 0.103438760869608  L 15.1078921304348 0.103438760869608  C 15.3938617173913 0.103438760869608  16.1438895652174 0.334683717391272  16.1438895652174 0.619985934782562  L 17.4388613152174 2.68624134782613  L 20.8057277934782 2.68624134782613  L 21.8417252282609 2.68624134782613  C 22.9860373695652 2.68624134782613  23.9135865978261 3.61132128260874  24 4.75249676086958  L 24 18.6998376847826  C 23.9135865978261 19.8410131956521  22.9860373695652 20.766093097826  21.8417252282609 20.766093097826  Z M 12.0000333586956 4.75249676086958  C 8.28112728260868 4.75249676086958  5.26620029347828 7.75908159782603  5.26620029347828 11.4679436739131  C 5.26620029347828 15.1768391413043  8.28112731521742 18.1832571195652  12.0000333586956 18.1832571195652  C 15.7188393260869 18.1832571195652  18.7335994891304 15.1768391086956  18.7337329565217 11.4682106086956  C 18.7335994891304 7.75894813043476  15.7188393260869 4.75249676086958  12.0000333586956 4.75249676086958  Z M 12.0000333586956 16.1170017065217  C 9.42530598913044 16.1170017065217  7.33819513043477 14.0356302717391  7.33819513043477 11.4679436739131  C 7.33819513043477 8.90039057608692  9.42530598913044 6.81888564130429  12.0000333586956 6.81888564130429  C 14.5746606195652 6.81888564130429  16.6618715869565 8.90039054347824  16.6618715869565 11.4679436739131  C 16.6618715869565 14.0356302717391  14.5746606521739 16.1170017065217  12.0000333586956 16.1170017065217  Z " fill-rule="nonzero" fill="#999999" stroke="none" transform="matrix(1 0 0 1 44 576 )" />
  </g>
</svg>