<?xml version="1.0" encoding="utf-8"?>
<svg version="1.1" xmlns:xlink="http://www.w3.org/1999/xlink" width="12px" height="12px" viewBox="17 211.5  12 12" xmlns="http://www.w3.org/2000/svg">
  <path d="M 17.5 213.5  A 1.5 1.5 0 0 1 19 212 L 27 212  A 1.5 1.5 0 0 1 28.5 213.5 L 28.5 221.5  A 1.5 1.5 0 0 1 27 223 L 19 223  A 1.5 1.5 0 0 1 17.5 221.5 L 17.5 213.5  Z " fill-rule="nonzero" fill="#f0f0f0" stroke="none" />
  <path d="M 17.5 213.5  A 1.5 1.5 0 0 1 19 212 L 27 212  A 1.5 1.5 0 0 1 28.5 213.5 L 28.5 221.5  A 1.5 1.5 0 0 1 27 223 L 19 223  A 1.5 1.5 0 0 1 17.5 221.5 L 17.5 213.5  Z " stroke-width="1" stroke="#36a1ff" fill="none" />
</svg>