<?xml version="1.0" encoding="utf-8"?>
<svg version="1.1" xmlns:xlink="http://www.w3.org/1999/xlink" width="14px" height="14px" xmlns="http://www.w3.org/2000/svg">
  <g transform="matrix(1 0 0 1 -342 -91 )">
    <path d="M 4.78582887700533 2.87874161133399  C 4.70909090909089 2.98412811135176  4.77834224598931 3.13723680005682  4.90374331550803 3.13723680005682  L 6.2868983957219 3.13723680005682  L 6.2868983957219 9.86407698043535  C 6.2868983957219 9.95156765969536  6.35427807486631 10.0231509427263  6.43663101604277 10.0231509427263  L 7.55962566844922 10.0231509427263  C 7.64197860962568 10.0231509427263  7.70935828877003 9.95156765969536  7.70935828877003 9.86407698043535  L 7.70935828877003 3.13723680005682  L 9.09625668449197 3.13723680005682  C 9.2216577540107 3.13723680005682  9.29090909090911 2.98412811135176  9.21417112299467 2.88073003586268  L 7.1179144385027 0.0611440542555851  C 7.05802139037432 -0.0203813514185284  6.94197860962568 -0.0203813514185284  6.8820855614973 0.0611440542555851  L 4.78582887700533 2.87874161133399  Z M 14 9.42662358413523  C 14 9.33913290487516  13.9326203208556 9.26754962184427  13.8502673796791 9.26754962184427  L 12.7272727272727 9.26754962184427  C 12.6449197860962 9.26754962184427  12.5775401069519 9.33913290487516  12.5775401069519 9.42662358413523  L 12.5775401069519 12.488797358236  L 1.42245989304812 12.488797358236  L 1.42245989304812 9.42662358413523  C 1.42245989304812 9.33913290487516  1.35508021390377 9.26754962184427  1.27272727272731 9.26754962184427  L 0.149732620320867 9.26754962184427  C 0.0673796791444074 9.26754962184427  0 9.33913290487516  0 9.42662358413523  L 0 13.3637041508362  C 0 13.715655292405  0.267647058823566 14  0.598930481283469 14  L 13.4010695187165 14  C 13.7323529411764 14  14 13.715655292405  14 13.3637041508362  L 14 9.42662358413523  Z " fill-rule="nonzero" fill="#bcbcbc" stroke="none" transform="matrix(1 0 0 1 342 91 )" />
  </g>
</svg>