<?xml version="1.0" encoding="utf-8"?>
<svg version="1.1" xmlns:xlink="http://www.w3.org/1999/xlink" width="104px" height="104px" xmlns="http://www.w3.org/2000/svg">
  <g transform="matrix(1 0 0 1 -95 -373 )">
    <path d="M 96 377  A 3 3 0 0 1 99 374 L 195 374  A 3 3 0 0 1 198 377 L 198 473  A 3 3 0 0 1 195 476 L 99 476  A 3 3 0 0 1 96 473 L 96 377  Z " fill-rule="nonzero" fill="#000000" stroke="none" fill-opacity="0.0196078431372549" />
    <path d="M 95.5 377  A 3.5 3.5 0 0 1 99 373.5 L 195 373.5  A 3.5 3.5 0 0 1 198.5 377 L 198.5 473  A 3.5 3.5 0 0 1 195 476.5 L 99 476.5  A 3.5 3.5 0 0 1 95.5 473 L 95.5 377  Z " stroke-width="1" stroke-dasharray="9,4" stroke="#000000" fill="none" stroke-opacity="0.149019607843137" stroke-dashoffset="0.5" />
  </g>
</svg>