<?xml version="1.0" encoding="utf-8"?>
<svg version="1.1" xmlns:xlink="http://www.w3.org/1999/xlink" width="15px" height="15px" viewBox="95 183.5  15 15" xmlns="http://www.w3.org/2000/svg">
  <path d="M 95.5 185.5  A 1.5 1.5 0 0 1 97 184 L 108 184  A 1.5 1.5 0 0 1 109.5 185.5 L 109.5 196.5  A 1.5 1.5 0 0 1 108 198 L 97 198  A 1.5 1.5 0 0 1 95.5 196.5 L 95.5 185.5  Z " fill-rule="nonzero" fill="#f0f0f0" stroke="none" />
  <path d="M 95.5 185.5  A 1.5 1.5 0 0 1 97 184 L 108 184  A 1.5 1.5 0 0 1 109.5 185.5 L 109.5 196.5  A 1.5 1.5 0 0 1 108 198 L 97 198  A 1.5 1.5 0 0 1 95.5 196.5 L 95.5 185.5  Z " stroke-width="1" stroke="#36a1ff" fill="none" />
</svg>