<?xml version="1.0" encoding="utf-8"?>
<svg version="1.1" xmlns:xlink="http://www.w3.org/1999/xlink" width="10px" height="10px" xmlns="http://www.w3.org/2000/svg">
  <g transform="matrix(1 0 0 1 -27 -20 )">
    <path d="M 9.77119954427084 9.55635579427083  C 9.67631022135417 9.65340169270833  9.55122884114584 9.70084635416667  9.4261474609375 9.70084635416667  C 9.2967529296875 9.70084635416667  9.16951497395833 9.6512451171875  9.07246907552083 9.55204264322917  L 6.59456380208333 7.02884928385417  C 6.40694173177083 6.83907063802084  6.40478515625 6.5328369140625  6.58809407552083 6.3387451171875  C 7.13370768229167 5.76509602864583  7.4334716796875 5.012451171875  7.4334716796875 4.22098795572917  C 7.4334716796875 2.52591959635417  6.055419921875 1.14786783854167  4.3603515625 1.14786783854167  C 2.665283203125 1.14786783854167  1.2872314453125 2.52591959635417  1.2872314453125 4.22098795572917  C 1.2872314453125 5.91605631510417  2.665283203125 7.29410807291667  4.3603515625 7.29410807291667  C 4.95125325520833 7.29410807291667  5.279052734375 7.28548177083333  5.66292317708333 7.07845052083333  C 5.90445963541667 6.94905598958333  6.2042236328125 7.03963216145834  6.3336181640625 7.28116861979167  C 6.4630126953125 7.522705078125  6.3724365234375 7.82246907552083  6.13090006510417 7.95186360677083  C 5.50980631510417 8.2861328125  4.97713216145833 8.2861328125  4.3603515625 8.2861328125  C 2.11966959635417 8.2861328125  0.295206705729167 6.461669921875  0.295206705729167 4.22098795572917  C 0.295206705729167 1.98030598958333  2.11966959635417 0.155843098958333  4.3603515625 0.155843098958333  C 6.60103352864583 0.155843098958333  8.42549641927083 1.98030598958333  8.42549641927083 4.22098795572917  C 8.42549641927083 5.10734049479167  8.14082845052083 5.95487467447917  7.61678059895833 6.65360514322916  L 9.77766927083334 8.85546875  C 9.9696044921875 9.05171712239583  9.96744791666667 9.36442057291667  9.77119954427084 9.55635579427083  Z " fill-rule="nonzero" fill="#666666" stroke="none" transform="matrix(1 0 0 1 27 20 )" />
  </g>
</svg>