<?xml version="1.0" encoding="utf-8"?>
<svg version="1.1" xmlns:xlink="http://www.w3.org/1999/xlink" width="3px" height="4px" xmlns="http://www.w3.org/2000/svg">
  <g transform="matrix(1 0 0 1 -30 -22 )">
    <path d="M 1.7713623046875 3.7523046875  C 1.7558349609375 3.754375  1.73836669921875 3.7564453125  1.72283935546875 3.7564453125  C 1.58309326171875 3.7564453125  1.4608154296875 3.6487890625  1.43558349609375 3.49765625  C 1.38123779296875 3.158125  1.4219970703125 2.8827734375  1.557861328125 2.6798828125  C 1.6160888671875 2.590859375  1.70731201171875 2.5121875  1.81988525390625 2.4107421875  C 2.03338623046875 2.22234375  2.32452392578125 1.965625  2.32452392578125 1.6985546875  C 2.32452392578125 1.2969140625  2.01591796875 0.971875  1.63743896484375 0.971875  C 1.41229248046875 0.971875  1.03575439453125 1.1851171875  0.93482666015625 1.5329296875  C 0.886303710937499 1.696484375  0.7232666015625 1.787578125  0.569934082031251 1.737890625  C 0.416601562500001 1.6861328125  0.331201171875001 1.5122265625  0.379724121093751 1.348671875  C 0.55828857421875 0.731718749999999  1.17161865234375 0.35078125  1.63743896484375 0.35078125  C 2.33616943359375 0.35078125  2.90679931640625 0.955312499999999  2.90679931640625 1.6985546875  C 2.90679931640625 2.259609375  2.458447265625 2.6550390625  2.1906005859375 2.8910546875  C 2.132373046875 2.9428125  2.0508544921875 3.0152734375  2.0314453125 3.0421875  C 1.992626953125 3.1022265625  1.98292236328125 3.2305859375  2.01009521484375 3.394140625  C 2.03726806640625 3.56390625  1.930517578125 3.7233203125  1.7713623046875 3.7523046875  Z " fill-rule="nonzero" fill="#1890ff" stroke="none" transform="matrix(1 0 0 1 30 22 )" />
  </g>
</svg>