<?xml version="1.0" encoding="utf-8"?>
<svg version="1.1" xmlns:xlink="http://www.w3.org/1999/xlink" width="15px" height="19px" xmlns="http://www.w3.org/2000/svg">
  <g transform="matrix(1 0 0 1 -24 -14 )">
    <path d="M 14.8964711782095 17.7228848071809  C 14.8964711782095 18.3338472406915  14.3970782305743 18.8318234707447  13.7843776393581 18.8318234707447  L 1.42545133023649 18.8318234707447  C 0.812750739020271 18.8318234707447  0.313357791385135 18.3338472406915  0.313357791385135 17.7228848071809  L 0.313357791385135 1.10972822473404  C 0.313357791385135 0.498765791223404  0.812750739020271 0.000789561170212766  1.42545133023649 0.000789561170212766  L 2.28575010557432 0.000789561170212766  C 2.55223289695946 0.000789561170212766  2.76835673564189 0.216300282579787  2.76835673564189 0.482027094414894  C 2.76835673564189 0.74775390625  2.55223289695946 0.963264627659574  2.28575010557432 0.963264627659574  L 1.42545133023649 0.963264627659574  C 1.34361803209459 0.963264627659574  1.27857105152027 1.02812707779255  1.27857105152027 1.10972822473404  L 1.27857105152027 17.7228848071809  C 1.27857105152027 17.8044859541223  1.34361803209459 17.8693484042553  1.42545133023649 17.8693484042553  L 13.7843776393581 17.8693484042553  C 13.8662109375 17.8693484042553  13.9312579180743 17.8044859541223  14 17.7228848071809  L 14 4.65623961103723  L 9.69900760135135 0.963264627659574  L 5.85284258868243 0.963264627659574  C 5.5863597972973 0.963264627659574  5.37023595861486 0.74775390625  5.37023595861486 0.482027094414894  C 5.37023595861486 0.216300282579787  5.5863597972973 0.000789561170212766  5.85284258868243 0.000789561170212766  L 9.88155880489865 0.000789561170212766  C 9.99906302787162 0.000789561170212766  10.1123706714527 0.0426363031914894  10.1984005489865 0.120052775930851  L 14.7307062922297 4.07456989694149  C 14.835620777027 4.1666327293883  14.8964711782095 4.29844996675532  14.8964711782095 4.43654421542553  L 14.8964711782095 17.7228848071809  Z M 5.05339421452703 0.482027094414894  C 5.05339421452703 0.74775390625  4.83727037584459 0.963264627659574  4.57078758445946 0.963264627659574  L 3.75245460304054 0.963264627659574  C 3.4859718116554 0.963264627659574  3.26984797297297 0.74775390625  3.26984797297297 0.482027094414894  C 3.26984797297297 0.216300282579787  3.4859718116554 0.000789561170212766  3.75245460304054 0.000789561170212766  L 4.57078758445946 0.000789561170212766  C 4.83727037584459 0.000789561170212766  5.05339421452703 0.216300282579787  5.05339421452703 0.482027094414894  Z " fill-rule="nonzero" fill="#1890ff" stroke="none" transform="matrix(1 0 0 1 24 14 )" />
  </g>
</svg>