<?xml version="1.0" encoding="utf-8"?>
<svg version="1.1" xmlns:xlink="http://www.w3.org/1999/xlink" width="16px" height="16px" xmlns="http://www.w3.org/2000/svg">
  <g transform="matrix(1 0 0 1 -24 -14 )">
    <path d="M 16 6.22222222222222  L 10.6666666666667 6.22222222222222  L 10.6666666666667 0  L 0 0  L 0 16  L 3.11111111111111 16  L 7.55555555555556 16  L 9.77777777777778 16  L 10.6666666666667 16  L 16 16  L 16 6.22222222222222  Z M 6.66666666666667 15.1111111111111  L 4 15.1111111111111  L 4 10.6666666666667  L 6.66666666666667 10.6666666666667  L 6.66666666666667 15.1111111111111  Z M 9.77777777777778 6.22222222222222  L 9.77777777777778 15.1111111111111  L 7.55555555555556 15.1111111111111  L 7.55555555555556 9.77777777777778  L 3.11111111111111 9.77777777777778  L 3.11111111111111 15.1111111111111  L 1 15.1111111111111  L 1 0.888888888888889  L 9.77777777777778 0.888888888888889  L 9.77777777777778 6.22222222222222  Z M 15.1111111111111 7.11111111111111  L 15.1111111111111 15.1111111111111  L 10.6666666666667 15.1111111111111  L 10.6666666666667 7.11111111111111  L 15.1111111111111 7.11111111111111  Z " fill-rule="nonzero" fill="#1890ff" stroke="none" transform="matrix(1 0 0 1 24 14 )" />
  </g>
</svg>