<?xml version="1.0" encoding="utf-8"?>
<svg version="1.1" xmlns:xlink="http://www.w3.org/1999/xlink" width="615px" height="229px" xmlns="http://www.w3.org/2000/svg">
  <g transform="matrix(1 0 0 1 -50 -64 )">
    <path d="M 614 228  L 0.934124448501478 228  C 0.934124448501478 228  0 113.639412715972  0 114.149381890037  C 9.07981032006066 113.66749220472  33.7752678400099 111.34455143268  52.746893858715 111.34455143268  C 85.285562148182 111.34455143268  82.6388762107612 147.042393617215  109.417110401136 147.042393617215  C 136.195344591511 147.042393617215  126.412830620284 81.0084662518429  167.332826208225 81.596349612234  C 196.913433744105 82.0213239239552  201.221750967283 104.3091076205  219.021045691972 104.54496244515  C 251.092651757188 104.96993675687  248.290278411684 -0.423692549853058  280.050509660733 0.0012817618680856  C 311.810740909783 0.426256073589229  295.332839564743 109.564376922073  331.73872914448 116.444243173328  C 351.978092195345 120.269011978814  360.229524823774 115.806781705747  387.163446422232 118.994089043652  C 414.097368020691 122.181396381557  413.63030579644 186.565004607236  445.079162229322 186.989978918957  C 476.528018662204 187.414953230677  469.78058533722 163.859747306532  501.126629139409 164.041366086041  C 534.998192915335 164.237617712303  536.623358182463 188.689876165839  561.533343475835 189.53982478928  C 582.417610873715 190.252412697999  599.147421268827 145.767470682053  612.598813327248 147.042393617215  C 612.972463106649 147.807347378312  614 228  614 228  Z " fill-rule="nonzero" fill="#1890ff" stroke="none" transform="matrix(1 0 0 1 50 64 )" />
  </g>
</svg>