<?xml version="1.0" encoding="utf-8"?>
<svg version="1.1" xmlns:xlink="http://www.w3.org/1999/xlink" width="615px" height="193px" xmlns="http://www.w3.org/2000/svg">
  <g transform="matrix(1 0 0 1 -49 -64 )">
    <path d="M 0 113.312205683844  C 0 113.312205683844  20.3896236012207 111.608282061498  52.9196337741607 111.608282061498  C 85.4496439471007 111.608282061498  82.8036622583927 147.390678130759  109.57477110885 147.390678130759  C 136.345879959308 147.390678130759  126.565968987846 81.2003428499277  167.47507629705 81.7896186704463  C 197.047812817904 82.2155995760334  201.354983653891 104.556174101888  219.149542217701 104.792587572115  C 251.212614445575 105.218568477702  248.410986775178 -0.424696107737417  280.162767039675 0.0012847978487116  C 311.914547304171 0.427265703435295  295.441030514415 109.823891030756  331.837232960326 116.720052928535  C 352.071210579858 120.553881078814  360.320447609359 116.081081570155  387.247202441506 119.275938362054  C 414.173957273652 122.470795153952  413.707019328586 187.006902350299  445.147507629705 187.432883255885  C 476.587995930824 187.858864161472  469.84235801011 164.247865392591  501.18006103764 164.429914354217  C 535.042612030882 164.626630821947  536.667344862665 189.136806878231  561.570701932859 189.988768689404  C 586.474059003052 190.840730500577  596.641214699478 142.933720887186  612 144.834792697241  " stroke-width="2" stroke="#1890ff" fill="none" transform="matrix(1 0 0 1 50 65 )" />
  </g>
</svg>