<?xml version="1.0" encoding="utf-8"?>
<svg version="1.1" xmlns:xlink="http://www.w3.org/1999/xlink" width="13px" height="13px" xmlns="http://www.w3.org/2000/svg">
  <g transform="matrix(1 0 0 1 -167 -128 )">
    <path d="M 13 6.5  C 13 2.97142857324218  10.0285714267578 0  6.5 0  C 2.97142857324218 0  0 2.97142857324218  0 6.5  C 0 10.0285714267578  2.97142857324218 13  6.5 13  C 10.0285714267578 13  13 10.0285714267578  13 6.5  Z M 7.4285714267578 6.5  L 9.28571428027345 8.35714285351563  C 9.56428570703127 8.63571428027345  9.56428570703127 9.00714285351563  9.28571428027345 9.19285714648439  C 9.00714285351563 9.47142857324218  8.63571428027342 9.47142857324218  8.44999999999999 9.19285714648439  L 6.59285714648439 7.33571428027344  L 4.6428571464844 9.28571428027345  C 4.36428571972658 9.56428570703125  3.99285714648437 9.56428570703125  3.71428571972655 9.28571428027345  C 3.43571429296873 9.00714285351563  3.43571429296873 8.54285713378906  3.71428571972655 8.35714285351563  L 5.66428571972654 6.40714285351564  L 3.80714285351564 4.55000000000001  C 3.52857142675782 4.36428571972655  3.52857142675782 3.99285714648437  3.80714285351564 3.71428571972658  C 4.08571428027346 3.43571429296875  4.45714285351562 3.43571429296875  4.6428571464844 3.71428571972658  L 6.5 5.5714285732422  L 8.44999999999999 3.62142857324218  C 8.72857142675781 3.34285714648436  9.10000000000002 3.34285714648436  9.37857142675779 3.62142857324218  C 9.65714285351561 3.90000000000001  9.65714285351561 4.27142857324219  9.37857142675779 4.55000000000001  L 7.4285714267578 6.5  Z " fill-rule="nonzero" fill="#c9c9c9" stroke="none" transform="matrix(1 0 0 1 167 128 )" />
  </g>
</svg>