<?xml version="1.0" encoding="utf-8"?>
<svg version="1.1" xmlns:xlink="http://www.w3.org/1999/xlink" width="13px" height="13px" xmlns="http://www.w3.org/2000/svg">
  <g transform="matrix(1 0 0 1 -360 -90 )">
    <path d="M 12.8981392763985 12.8539325900395  C 13.0442938233318 12.5983146183294  13.0442938233318 12.2696629330804  12.8250619943681 12.0505617924638  L 11.2904391916234 10.5168539279684  C 12.2769824219592 9.38483146226086  12.7885233619168 7.92415729418708  12.7885233619168 6.39044944680897  C 12.7885233619168 2.84831460549144  9.93850958539042 0  6.39426168952218 0  C 2.85001379365372 0  0 2.84831460549144  0 6.39044944680897  C 0 9.93258428812649  2.88655242610525 12.7808988765007  6.39426168952218 12.7808988765007  C 7.92888449226689 12.7808988765007  9.35389138053006 12.2331460677523  10.5231277902508 11.283707860216  L 12.0942892425746 12.8539325900395  C 12.2039051570564 12.9634831517892  12.3500597039897 13  12.496214250923 13  C 12.6423687978561 13  12.7885233619168 12.9634831517892  12.8981392763985 12.8539325900395  Z M 6.39426168952218 11.685393259004  C 3.47117063096562 11.685393259004  1.09615916194525 9.31179774872199  1.09615914481788 6.39044944680897  C 1.09615914481788 3.46910112777866  3.47117063096562 1.09550563461399  6.39426168952218 1.09550561749671  C 9.31735274807875 1.09550560037943  11.6923642170989 3.46910112777866  11.6923642170989 6.39044944680897  C 11.6923642170989 7.77808990134388  11.1442846446901 9.09269664233992  10.1942800468055 10.0786516809697  C 10.1577414143542 10.0786516809697  10.1577414143542 10.1151685291805  10.1212027819026 10.1151685462978  C 10.1212027819026 10.1151685462978  10.0846641494513 10.1516853945086  10.0846641323237 10.1882022427193  C 9.09812090198761 11.1376404502556  7.78272992820644 11.685393259004  6.39426168952218 11.685393259004  Z " fill-rule="nonzero" fill="#d7d7d7" stroke="none" transform="matrix(1 0 0 1 360 90 )" />
  </g>
</svg>