<?xml version="1.0" encoding="utf-8"?>
<svg version="1.1" xmlns:xlink="http://www.w3.org/1999/xlink" width="15px" height="14px" xmlns="http://www.w3.org/2000/svg">
  <g transform="matrix(1 0 0 1 -740 -352 )">
    <path d="M 15 2.60200795420934  C 15 2.04227531369992  14.5232151096915 1.58710250455596  13.9374041440904 1.58710250455596  L 10.9474831605894 1.58710250455596  L 10.9474831605894 0.447963478687939  C 10.9474831605894 0.200580165367114  10.7377184404013 0  10.4784698784011 0  C 10.219238512156 0  10.0094565962129 0.200580165367114  10.0094566130056 0.447963478687939  L 10.0094566130056 1.58710250455596  L 5.49709080456194 1.58710250455596  L 5.49709080456194 0.447963478687939  C 5.49709080456194 0.200580165367114  5.28732608437394 0  5.02807752237368 0  C 4.76882896037353 0  4.55906424018542 0.200580165367114  4.55906424018542 0.447963478687939  L 4.55906424018542 1.58710250455596  L 1.06259585590965 1.58710250455596  C 0.476802086063685 1.58710250455596  0 2.04227531369992  0 2.60200795420934  L 0 12.9850945503466  C 0 13.544827190856  0.476802086063685 14  1.06259585590965 14  L 13.9374041440904 14  C 14.5231979139364 14  15 13.544827190856  15 12.9850945503466  L 15 2.60200795420934  Z M 14 12.9850945503466  L 14.0619906313786 12.9850945503466  C 14.0619148251915 13.0507836138468  14.006179936631 13.1040170626891  13.9374041440904 13  L 1.06259585590965 13  C 0.993820063368958 13.1040170626891  0.938085174808634 13.0507836138468  1 12.9850945503466  L 1 2.60200795420934  C 0.938085174808634 2.53631889070925  0.993820063368958 2.48308544186682  1.06259585590965 2.48301303794005  L 4.5590814359407 2.48301303794005  L 4.5590814359407 3.52066316605362  C 4.5590814359407 3.76804647937445  4.76884615612869 3.96862664474156  5.02809471812895 3.96862664474156  C 5.28734328012911 3.96862664474156  5.49710800031721 3.76804647937445  5.49710800031721 3.52066316605362  L 5.49710800031721 2.48301303794005  L 10.0094737919679 2.48301303794005  L 10.0094737919679 3.52066316605362  C 10.0094737919679 3.76804647937445  10.219238512156 3.96862664474156  10.4784870741563 3.96862664474156  C 10.7377184404013 3.96862664474156  10.9475003563446 3.76804647937445  10.9475003563446 3.52066316605362  L 10.9475003563446 2.48301303794005  L 13.9374213398455 2.48301303794005  C 14.0061971323862 2.48308544186682  14.0619320209465 2.53631889070925  14 2.60200795420934  L 14 12.9850945503466  Z " fill-rule="nonzero" fill="#949494" stroke="none" transform="matrix(1 0 0 1 740 352 )" />
  </g>
</svg>