<?xml version="1.0" encoding="utf-8"?>
<svg version="1.1" xmlns:xlink="http://www.w3.org/1999/xlink" width="62px" height="62px" xmlns="http://www.w3.org/2000/svg">
  <g transform="matrix(1 0 0 1 -24 -83 )">
    <path d="M 25 87  A 3 3 0 0 1 28 84 L 82 84  A 3 3 0 0 1 85 87 L 85 141  A 3 3 0 0 1 82 144 L 28 144  A 3 3 0 0 1 25 141 L 25 87  Z " fill-rule="nonzero" fill="#f6f6f6" stroke="none" />
    <path d="M 24.5 87  A 3.5 3.5 0 0 1 28 83.5 L 82 83.5  A 3.5 3.5 0 0 1 85.5 87 L 85.5 141  A 3.5 3.5 0 0 1 82 144.5 L 28 144.5  A 3.5 3.5 0 0 1 24.5 141 L 24.5 87  Z " stroke-width="1" stroke="#000000" fill="none" stroke-opacity="0.0470588235294118" />
  </g>
</svg>