<?xml version="1.0" encoding="utf-8"?>
<svg version="1.1" xmlns:xlink="http://www.w3.org/1999/xlink" width="148px" height="32px" viewBox="39 86  148 32" xmlns="http://www.w3.org/2000/svg">
  <path d="M 40 89  A 2 2 0 0 1 42 87 L 184 87  A 2 2 0 0 1 186 89 L 186 115  A 2 2 0 0 1 184 117 L 42 117  A 2 2 0 0 1 40 115 L 40 89  Z " fill-rule="nonzero" fill="#f0f0f0" stroke="none" />
  <path d="M 39.5 89  A 2.5 2.5 0 0 1 42 86.5 L 184 86.5  A 2.5 2.5 0 0 1 186.5 89 L 186.5 115  A 2.5 2.5 0 0 1 184 117.5 L 42 117.5  A 2.5 2.5 0 0 1 39.5 115 L 39.5 89  Z " stroke-width="1" stroke="#1890ff" fill="none" stroke-opacity="0.847058823529412" />
</svg>