<?xml version="1.0" encoding="utf-8"?>
<svg version="1.1" xmlns:xlink="http://www.w3.org/1999/xlink" width="16px" height="16px" xmlns="http://www.w3.org/2000/svg">
  <g transform="matrix(1 0 0 1 -24 -14 )">
    <path d="M 16 10.6666666666667  L 13.7777777777778 10.6666666666667  L 13.7777777777778 7.33333333333333  L 8.44444444444444 7.33333333333333  L 8.44444444444444 5.33333333333333  L 10.6666666666667 5.33333333333333  L 10.6666666666667 0  L 5.33333333333333 0  L 5.33333333333333 5.33333333333333  L 7.55555555555556 5.33333333333333  L 7.55555555555556 7.33333333333333  L 2.22222222222222 7.33333333333333  L 2.22222222222222 10.6666666666667  L 0 10.6666666666667  L 0 16  L 5.33333333333333 16  L 5.33333333333333 10.6666666666667  L 3.11111111111111 10.6666666666667  L 3.11111111111111 8.22222222222222  L 7.55555555555556 8.22222222222222  L 8.44444444444444 8.22222222222222  L 12.8888888888889 8.22222222222222  L 12.8888888888889 10.6666666666667  L 10.6666666666667 10.6666666666667  L 10.6666666666667 16  L 16 16  L 16 10.6666666666667  Z M 6.22222222222222 4.44444444444444  L 6.22222222222222 0.888888888888889  L 9.77777777777778 0.888888888888889  L 9.77777777777778 4.44444444444444  L 6.22222222222222 4.44444444444444  Z M 4.44444444444444 11.5555555555556  L 4.44444444444444 15.1111111111111  L 0.888888888888889 15.1111111111111  L 0.888888888888889 11.5555555555556  L 4.44444444444444 11.5555555555556  Z M 15.1111111111111 11.5555555555556  L 15.1111111111111 15.1111111111111  L 11.5555555555556 15.1111111111111  L 11.5555555555556 11.5555555555556  L 15.1111111111111 11.5555555555556  Z " fill-rule="nonzero" fill="#666666" stroke="none" transform="matrix(1 0 0 1 24 14 )" />
  </g>
</svg>