<?xml version="1.0" encoding="utf-8"?>
<svg version="1.1" xmlns:xlink="http://www.w3.org/1999/xlink" width="20px" height="20px" xmlns="http://www.w3.org/2000/svg">
  <g transform="matrix(1 0 0 1 -992 -89 )">
    <path d="M 19.6852966935569 19.6779894042978  C 20.1055534243137 19.2578048393961  20.1055534243137 18.5705870770938  19.6813690594578 18.1504025318308  L 11.5315305429145 9.99803653367572  L 19.6813690594578 1.84959749517237  C 19.8934612418858 1.63754173289568  19.9995073429208 1.3626546358302  19.9995073429208 1.0838405594744  C 19.9995073429208 0.808953462408923  19.8934612418858 0.530139405691674  19.6813690594578 0.318083643415039  C 19.2571846946018 -0.106027881138346  18.5737765381281 -0.106027881138346  18.1495921929142 0.318083643415039  L 9.99975367637087 8.4704496415701  L 1.84991515982754 0.318083643415039  C 1.42573079497169 -0.106027881138346  0.742322638497995 -0.106027881138346  0.31813827364203 0.318083643415039  C -0.106046091213934 0.742195167968366  -0.106046091213934 1.42548597061899  0.31813827364203 1.84959749517237  L 8.4719044242845 9.99803653367572  L 0.31813827364203 18.1504025318308  C -0.106046091213934 18.5745140563841  -0.106046091213934 19.2578048590347  0.31813827364203 19.6819163639495  C 0.742322638497995 20.1060278688642  1.42573079497169 20.1060278885028  1.84991515982754 19.6819163639495  L 9.99975367637087 11.5295503657944  L 18.1535198270133 19.6779894042978  C 18.3656120094413 19.8900451665744  18.6405463178137 19.9960730575321  18.9194082602851 19.9960730575321  C 19.1943425686575 19.9960730575321  19.4732045111289 19.8900451665744  19.6852966935569 19.6779894042978  Z " fill-rule="nonzero" fill="#d7d7d7" stroke="none" transform="matrix(1 0 0 1 992 89 )" />
  </g>
</svg>