<?xml version="1.0" encoding="utf-8"?>
<svg version="1.1" xmlns:xlink="http://www.w3.org/1999/xlink" width="16px" height="16px" xmlns="http://www.w3.org/2000/svg">
  <g transform="matrix(1 0 0 1 -993 -238 )">
    <path d="M 12 8  C 12 8.31428571428569  11.7428571428571 8.57142857142856  11.4285714285714 8.57142857142856  L 4.57142857142856 8.57142857142856  C 4.25714285714287 8.57142857142856  4 8.31428571428569  4 8  C 4 7.68571428571431  4.25714285714287 7.42857142857144  4.57142857142856 7.42857142857144  L 11.4285714285714 7.42857142857144  C 11.7428571428571 7.42857142857144  12 7.68571428571431  12 8  Z M 8.57142857142856 11.4285714285714  C 8.57142857142856 11.7428571428571  8.31428571428569 12  8 12  C 7.68571428571431 12  7.42857142857144 11.7428571428571  7.42857142857144 11.4285714285714  L 7.42857142857144 4.57142857142856  C 7.42857142857144 4.25714285714287  7.68571428571431 4  8 4  C 8.31428571428569 4  8.57142857142856 4.25714285714287  8.57142857142856 4.57142857142856  L 8.57142857142856 11.4285714285714  Z M 16 8  C 16 12.4  12.4 16  8 16  C 3.60000000000002 16  0 12.4  0 8  C 0 3.60000000000002  3.60000000000002 0  8 0  C 12.4 0  16 3.60000000000002  16 8  Z M 14.8571428571429 8  C 14.8571428571429 4.2285714285714  11.7714285714286 1.14285714285717  8 1.14285714285717  C 4.2285714285714 1.14285714285717  1.14285714285711 4.22857142857146  1.14285714285711 8  C 1.14285714285711 11.7714285714286  4.2285714285714 14.8571428571428  8 14.8571428571428  C 11.7714285714286 14.8571428571428  14.8571428571429 11.7714285714286  14.8571428571429 8  Z " fill-rule="nonzero" fill="#1890ff" stroke="none" transform="matrix(1 0 0 1 993 238 )" />
  </g>
</svg>