<?xml version="1.0" encoding="utf-8"?>
<svg version="1.1" xmlns:xlink="http://www.w3.org/1999/xlink" width="15px" height="15px" xmlns="http://www.w3.org/2000/svg">
  <g transform="matrix(1 0 0 1 -1170 -13 )">
    <path d="M 14.7639725201677 14.7584920532233  C 15.0791650682354 14.4433536295471  15.0791650682354 13.9279403078203  14.7610267945934 13.6128018988731  L 8.64864790718593 7.49852740025678  L 14.7610267945934 1.38719812137928  C 14.9200959314144 1.22815629967176  14.9996305071907 1.02199097687265  14.9996305071907 0.812880419605802  C 14.9996305071907 0.606715096806691  14.9200959314144 0.397604554268754  14.7610267945934 0.238562732561279  C 14.4428885209513 -0.0795209108537591  13.9303324035961 -0.0795209108537591  13.6121941446856 0.238562732561279  L 7.49981525727821 6.35283723117757  L 1.38743636987056 0.238562732561279  C 1.06929809622875 -0.0795209108537591  0.556741978873561 -0.0795209108537591  0.238603705231526 0.238562732561279  C -0.0795345684105087 0.556646375976274  -0.0795345684105087 1.06911447796424  0.238603705231526 1.38719812137928  L 6.35392831821332 7.49852740025678  L 0.238603705231526 13.6128018988731  C -0.0795345684105087 13.9308855422881  -0.0795345684105087 14.443353644276  0.238603705231526 14.7614372729621  C 0.556741978873561 15.0795209016482  1.06929809622875 15.0795209163771  1.38743636987056 14.7614372729621  L 7.49981525727821 8.64716277434583  L 13.61513987026 14.7584920532233  C 13.774209007081 14.9175338749308  13.9804097383603 14.9970547931491  14.1895561952138 14.9970547931491  C 14.395756926493 14.9970547931491  14.6049033833467 14.9175338749308  14.7639725201677 14.7584920532233  Z " fill-rule="nonzero" fill="#d7d7d7" stroke="none" transform="matrix(1 0 0 1 1170 13 )" />
  </g>
</svg>