<?xml version="1.0" encoding="utf-8"?>
<svg version="1.1" xmlns:xlink="http://www.w3.org/1999/xlink" width="16px" height="16px" xmlns="http://www.w3.org/2000/svg">
  <g transform="matrix(1 0 0 1 -977 -216 )">
    <path d="M 16 8.15999999999997  C 16 8.072  15.928 8  15.84 8  L 14.72 8  C 14.6319999999999 8  14.5599999999999 8.072  14.5599999999999 8.15999999999997  L 14.5599999999999 14.5599999999999  L 1.44000000000005 14.5599999999999  L 1.44000000000005 1.44000000000005  L 7.84000000000003 1.44000000000005  C 7.928 1.44000000000005  8 1.36800000000005  8 1.27999999999997  L 8 0.159999999999968  C 8 0.0720000000000027  7.928 0  7.84000000000003 0  L 0.639999999999986 0  C 0.285999999999945 0  0 0.285999999999945  0 0.639999999999986  L 0 15.36  C 0 15.7140000000001  0.285999999999945 16  0.639999999999986 16  L 15.36 16  C 15.7140000000001 16  16 15.7140000000001  16 15.36  L 16 8.15999999999997  Z " fill-rule="nonzero" fill="#666666" stroke="none" transform="matrix(1 0 0 1 977 216 )" />
  </g>
</svg>