<?xml version="1.0" encoding="utf-8"?>
<svg version="1.1" xmlns:xlink="http://www.w3.org/1999/xlink" width="11px" height="11px" xmlns="http://www.w3.org/2000/svg">
  <g transform="matrix(1 0 0 1 -982 -216 )">
    <path d="M 0.120070422535264 8.19696428571433  C 0.0929577464788736 8.22642857142853  0.0755281690140919 8.26571428571424  0.0755281690140919 8.30696428571423  L 0.0387323943662068 10.6425  C 0.0367957746478851 10.8173214285714  0.176232394366252 10.9607142857143  0.348591549295747 10.9607142857143  L 0.356338028169034 10.9607142857143  L 2.64154929577467 10.9037499999999  C 2.68028169014087 10.9017857142857  2.71901408450708 10.8860714285714  2.74612676056336 10.8585714285714  L 10.8005281690141 2.70678571428573  C 10.8605633802817 2.64589285714283  10.8605633802817 2.54571428571433  10.8005281690141 2.48482142857142  L 8.3933098591549 0.0451785714285506  C 8.36232394366198 0.0137499999999591  8.32359154929577 0  8.28292253521124 0  C 8.24225352112671 0  8.20352112676051 0.0157142857142389  8.17253521126759 0.0451785714285506  L 0.120070422535264 8.19696428571433  Z M 1.29172535211262 9.68196428571423  L 1.30528169014087 8.77053571428576  L 8.28292253521124 1.7089285714286  L 9.15827464788731 2.59482142857144  L 2.1767605633803 9.66035714285715  L 1.29172535211262 9.68196428571423  Z " fill-rule="nonzero" fill="#666666" stroke="none" transform="matrix(1 0 0 1 982 216 )" />
  </g>
</svg>