<?xml version="1.0" encoding="utf-8"?>
<svg version="1.1" xmlns:xlink="http://www.w3.org/1999/xlink" width="16px" height="17px" xmlns="http://www.w3.org/2000/svg">
  <g transform="matrix(1 0 0 1 -1017 -215 )">
    <path d="M 4.83333333333337 3  L 4.83333333333337 1.5  L 4.66666666666663 1.5  C 4.75833333333333 1.5  4.83333333333337 1.42499999999995  4.83333333333337 1.33333333333337  L 4.83333333333337 1.5  L 11.1666666666666 1.5  L 11.1666666666666 1.33333333333337  C 11.1666666666666 1.42499999999995  11.2416666666667 1.5  11.3333333333334 1.5  L 11.1666666666666 1.5  L 11.1666666666666 3  L 12.6666666666666 3  L 12.6666666666666 1.33333333333337  C 12.6666666666666 0.59791666666672  12.06875 0  11.3333333333334 0  L 4.66666666666663 0  C 3.93124999999998 0  3.33333333333337 0.59791666666672  3.33333333333337 1.33333333333337  L 3.33333333333337 3  L 4.83333333333337 3  Z M 16 3.66666666666663  C 16 3.29791666666665  15.7020833333333 3  15.3333333333334 3  L 0.666666666666629 3  C 0.297916666666652 3  0 3.29791666666665  0 3.66666666666663  L 0 4.33333333333337  C 0 4.42499999999995  0.0750000000000455 4.5  0.166666666666629 4.5  L 1.42499999999995 4.5  L 1.9395833333333 15.3958333333333  C 1.97291666666672 16.1062499999999  2.5604166666667 16.6666666666666  3.27083333333337 16.6666666666666  L 12.7291666666666 16.6666666666666  C 13.4416666666667 16.6666666666666  14.0270833333333 16.1083333333333  14.0604166666667 15.3958333333333  L 14.575 4.5  L 15.8333333333334 4.5  C 15.925 4.5  16 4.42499999999995  16 4.33333333333337  L 16 3.66666666666663  Z M 13.0729166666666 4.5  L 12.56875 15.1666666666666  L 3.43124999999998 15.1666666666666  L 2.92708333333337 4.5  L 13.0729166666666 4.5  Z " fill-rule="nonzero" fill="#666666" stroke="none" transform="matrix(1 0 0 1 1017 215 )" />
  </g>
</svg>