<?xml version="1.0" encoding="utf-8"?>
<svg version="1.1" xmlns:xlink="http://www.w3.org/1999/xlink" width="13px" height="13px" xmlns="http://www.w3.org/2000/svg">
  <g transform="matrix(1 0 0 1 -162 -99 )">
    <path d="M 13 2.56577130134366  C 13 2.28229998484392  12.7701450037822 2.05260812420957  12.486837424216 2  L 0.513162590301818 2  C 0.229855010735612 2.05260812420957  0 2.28228511856237  0 2.56575643506213  C 0 2.84922775156184  0.229855010735612 3.07890474591466  0.513162590301818 3.07890474591466  L 1.53947290464091 3.07890474591466  L 1.53947290464091 11.460540186643  C 1.53947290464091 12.3415133893608  2.44250653488861 13  3.24999999637054 13  L 9.74999998911163 13  C 10.5558147096079 13  11.118418692146 12.3669175126466  11.118418692146 11.460540186643  L 11.1184187066638 3.07891961219622  L 12.4868374096982 3.07891961219622  C 12.7701449892644 3.07891961219622  13 2.84924261784342  13 2.56577130134366  Z M 10.092093540578 3.07891961219622  L 10.092093540578 11.4605550674424  C 10.092093540578 11.694748348121  10.0326241995969 11.9737033782949  9.74998515188274 11.9737033782949  L 3.25000001088838 11.9737033782949  C 2.93027989722028 11.9737033782949  2.56578323349783 11.7004234059262  2.56578323349783 11.4605550674424  L 2.56578323349783 3.07891961219622  L 10.092093540578 3.07891961219622  Z M 4.44736451231618 0.513148310852557  C 4.44736451231618 0.796619627352285  4.6772195230518 1.02631148798663  4.960527102618 1.02631148798663  L 8.03947291189984 1.02631148798663  C 8.32278049146603 1.02631148798663  8.55263550220165 0.796634493633846  8.55263550220165 0.513163177134103  C 8.55263550220165 0.229691860634347  8.32278049146603 0  8.03947291189984 0  L 4.960527102618 0  C 4.6772195230518 0  4.44736451231618 0.229676994352801  4.44736451231618 0.513148310852557  Z M 4.27631031070963 10.6052979621552  C 4.27631032522746 10.8886058657007  4.50616532144524 11.1184462730077  4.78947291552929 11.1184462730077  C 5.0727804950955 11.1184462730077  5.30263550583112 10.8885909994191  5.30263550583112 10.6052979621552  L 5.30263549131327 4.44731017657222  C 5.30263549131327 4.16383884555461  5.07278048057766 3.93416186571969  4.78947290101145 3.93416186571969  C 4.50616532144524 3.93416186571969  4.27631031070963 4.16383886007249  4.27631031070963 4.44731017657222  L 4.27631031070963 10.6052979621552  Z M 7.35525611999145 10.6052979621552  C 7.35525613450929 10.8886058657007  7.58511113072706 11.1184462730077  7.86841871029328 11.1184462730077  C 8.15172628985948 11.1184462730077  8.3815813005951 10.8885909994191  8.3815813005951 10.6052979621552  L 8.3815813005951 4.44731017657222  C 8.3815813005951 4.16383884555461  8.15172628985948 3.93416186571969  7.86841871029328 3.93416186571969  C 7.58511113072706 3.93416186571969  7.35525611999145 4.16383886007249  7.35525611999145 4.44731017657222  L 7.35525611999145 10.6052979621552  Z " fill-rule="nonzero" fill="#868686" stroke="none" transform="matrix(1 0 0 1 162 99 )" />
  </g>
</svg>