<?xml version="1.0" encoding="utf-8"?>
<svg version="1.1" xmlns:xlink="http://www.w3.org/1999/xlink" width="22px" height="22px" xmlns="http://www.w3.org/2000/svg">
  <g transform="matrix(1 0 0 1 -463 -343 )">
    <path d="M 11 0  C 4.9247859914282 0  0 4.92490913747435  0 11  C 0 17.0750908625256  4.92490913747436 22  11 22  C 17.0750908625256 22  22 17.0750908625256  22 11  C 22 4.92490913747435  17.0752139784922 0  11 0  Z M 10.0829511263876 5.49998459922433  C 10.0829511263876 4.99379629574487  10.4929805960672 4.5833051035912  10.9996306220208 4.5833051035912  C 11.506311419446 4.5833051035912  11.9162177731591 4.99379626566519  11.9162177731591 5.49998459922433  L 11.9162177731591 12.0182865042286  C 11.9162177731591 12.5244748077081  11.506311419446 12.9349659998617  10.9996306220208 12.9349659998617  C 10.4929805960672 12.9349659998617  10.0829511263876 12.5244748377877  10.0829511263876 12.0182865042286  L 10.0829511263876 5.49998459922433  Z M 11 16.4999845992243  C 10.2881967224645 16.4999845992243  9.71118205640313 15.9230930491295  9.71118205640313 15.211289771594  C 9.71118205640313 14.4994864940584  10.2881967224645 13.9224718279971  11 13.9224718279971  C 11.7118032775356 13.9224718279971  12.2888179435969 14.4994864940584  12.2888179435969 15.211289771594  C 12.2888179435969 15.922969933163  11.7118032775356 16.4999845992243  11 16.4999845992243  Z " fill-rule="nonzero" fill="#ff0033" stroke="none" transform="matrix(1 0 0 1 463 343 )" />
  </g>
</svg>