<?xml version="1.0" encoding="utf-8"?>
<svg version="1.1" xmlns:xlink="http://www.w3.org/1999/xlink" width="13px" height="7px" xmlns="http://www.w3.org/2000/svg">
  <g transform="matrix(1 0 0 1 -829 -243 )">
    <path d="M 7.06317690025401 6.81144781362389  C 6.78158844416896 6.90572391878061  6.59386281472302 7  6.40613718527698 7  C 6.21841155583104 7  6.0306859263851 6.90572389484333  5.93682309974599 6.81144781362389  L 0.211191342063785 1.24915825568661  C -0.0703971140212616 0.966329964153886  -0.0703971140212616 0.494949510182323  0.211191342063785 0.2121212186496  C 0.492779798148831 -0.0707070728831809  0.962093859847641 -0.0707070728831809  1.24368231593257 0.2121212186496  L 6.5000000119162 5.3030302986781  L 11.7563176840674 0.2121212186496  C 12.0379061401524 -0.0707070728831809  12.5072202018512 -0.0707070728831809  12.7888086579362 0.2121212186496  C 13.0703971140213 0.494949510182323  13.0703971140213 0.966329964153886  12.7888086579362 1.24915825568661  L 7.06317690025401 6.81144781362389  Z " fill-rule="nonzero" fill="#949494" stroke="none" transform="matrix(1 0 0 1 829 243 )" />
  </g>
</svg>