<?xml version="1.0" encoding="utf-8"?>
<svg version="1.1" xmlns:xlink="http://www.w3.org/1999/xlink" width="8px" height="8px" xmlns="http://www.w3.org/2000/svg">
  <g transform="matrix(1 0 0 1 -27 -14 )">
    <path d="M 0.45945945945946 4.10810810810811  C 0.45945945945946 6.2572972972973  2.00756756756757 8  3.91891891891892 8  C 5.83027027027027 8  7.37837837837838 6.2572972972973  7.37837837837838 4.10810810810811  C 7.37837837837838 1.95891891891892  5.83027027027027 0.216216216216215  3.91891891891892 0.216216216216215  C 2.00756756756757 0.216216216216215  0.45945945945946 1.95891891891892  0.45945945945946 4.10810810810811  Z M 1.32432432432432 4.10810810810811  C 1.32432432432432 2.43891891891892  2.48756756756757 1.08108108108108  3.91891891891892 1.08108108108108  C 5.35027027027027 1.08108108108108  6.51351351351351 2.43891891891892  6.51351351351351 4.10810810810811  C 6.51351351351351 5.7772972972973  5.35027027027027 7.13513513513514  3.91891891891892 7.13513513513514  C 2.48756756756757 7.13513513513514  1.32432432432432 5.7772972972973  1.32432432432432 4.10810810810811  Z " fill-rule="nonzero" fill="#1890ff" stroke="none" transform="matrix(1 0 0 1 27 14 )" />
  </g>
</svg>