<?xml version="1.0" encoding="utf-8"?>
<svg version="1.1" xmlns:xlink="http://www.w3.org/1999/xlink" width="19px" height="13px" xmlns="http://www.w3.org/2000/svg">
  <g transform="matrix(1 0 0 1 -22 -14 )">
    <path d="M 16.5217391304348 0  L 2.47826086956521 0  C 1.10955518520194 0  0 1.09130592228744  0 2.4375  L 0 3.25  C 0 4.59619407771256  1.10955518520194 5.6875  2.47826086956521 5.6875  L 16.5217391304348 5.6875  C 17.890444814798 5.6875  19 4.59619407771256  19 3.25  L 19 2.4375  C 19 1.09130592228744  17.890444814798 0  16.5217391304348 0  Z M 18.1739130434783 2.4375  L 18.1739130434783 3.25  C 18.1739130434783 4.14746271847504  17.434209586677 4.875  16.5217391304348 5  L 2.47826086956521 5  C 1.56579041332304 4.875  0.826086956521742 4.14746271847504  0.826086956521742 3.25  L 0.826086956521742 2.4375  C 0.826086956521742 1.54003728152497  1.56579041332304 0.8125  2.47826086956521 1  L 16.5217391304348 1  C 17.434209586677 0.8125  18.1739130434783 1.54003728152497  18.1739130434783 2.4375  Z M 16.5217391304348 7.3125  L 2.47826086956521 7.3125  C 1.10955518520194 7.3125  0 8.40380592228744  0 9.75  L 0 10.5625  C 0 11.9086940777126  1.10955518520194 13  2.47826086956521 13  L 16.5217391304348 13  C 17.890444814798 13  19 11.9086940777126  19 10.5625  L 19 9.75  C 19 8.40380592228744  17.890444814798 7.3125  16.5217391304348 7.3125  Z M 18.1739130434783 9.75  L 18.1739130434783 10.5625  C 18.1739130434783 11.459962718475  17.434209586677 12.1875  16.5217391304348 12  L 2.47826086956521 12  C 1.56579041332304 12.1875  0.826086956521742 11.459962718475  0.826086956521742 10.5625  L 0.826086956521742 9.75  C 0.826086956521742 8.85253728152496  1.56579041332304 8.125  2.47826086956521 8  L 16.5217391304348 8  C 17.434209586677 8.125  18.1739130434783 8.85253728152496  18.1739130434783 9.75  Z M 4.1304347826087 2.84375  C 4.1304347826087 2.17065296114372  3.57565719000772 1.625  2.89130434782609 1.625  C 2.20695150564444 1.625  1.65217391304348 2.17065296114372  1.65217391304348 2.84375  C 1.65217391304348 3.51684703885628  2.20695150564444 4.0625  2.89130434782609 4.0625  C 3.57565719000772 4.0625  4.1304347826087 3.51684703885628  4.1304347826087 2.84375  Z M 3.30434782608695 2.84375  C 3.30434782608695 3.06811567961876  3.11942196188663 3.25  2.89130434782609 3.25  C 2.66318673376555 3.25  2.47826086956521 3.06811567961876  2.47826086956521 2.84375  C 2.47826086956521 2.61938432038125  2.66318673376555 2.4375  2.89130434782609 2.4375  C 3.11942196188663 2.4375  3.30434782608695 2.61938432038125  3.30434782608695 2.84375  Z M 16.1086956521739 8.9375  C 15.4243428099923 8.9375  14.8695652173913 9.48315296114372  14.8695652173913 10.15625  C 14.8695652173913 10.8293470388563  15.4243428099923 11.375  16.1086956521739 11.375  C 16.7930484943555 11.375  17.3478260869565 10.8293470388563  17.3478260869565 10.15625  C 17.3478260869565 9.34375  17.3478260869565 10.96875  17.3478260869565 10.15625  C 17.3478260869565 9.48315296114372  16.7930484943555 8.9375  16.1086956521739 8.9375  Z M 16.5217391304348 10.15625  C 16.5217391304348 10.3806156796187  16.3368132662345 10.5625  16.1086956521739 10.5625  C 15.8805780381134 10.5625  15.695652173913 10.3806156796187  15.695652173913 10.15625  C 15.695652173913 9.93188432038124  15.8805780381134 9.75  16.1086956521739 9.75  C 16.3368132662345 9.75  16.5217391304348 9.93188432038124  16.5217391304348 10.15625  Z M 4.95652173913044 8.53125  L 3.30434782608695 8.53125  C 2.39397484499352 8.53415511964974  1.65753435421361 9.26083699300393  1.65753435421361 10.1562414470869  C 1.65753435421361 10.2932952218554  1.67516285559979 10.429798439453  1.71 10.5625  L 2.59391304347827 10.5625  C 2.51966716659571 10.4394608431496  2.47977156490308 10.299320043031  2.47826086956521 10.15625  C 2.47826086956521 9.70751864076247  2.84811259796587 9.34375  3.30434782608695 9.34375  L 4.95652173913044 9.34375  L 4.95652173913044 8.53125  Z M 15.695652173913 2.03125  C 16.1518874020341 2.03125  16.5217391304348 2.39501864076249  16.5217391304348 2.84375  C 16.5202284350969 2.98682004303104  16.4803328334043 3.12696084314963  16.4060869565217 3.25  L 17.29 3.25  C 17.3248371444002 3.11729843945299  17.3424656457864 2.98079522185538  17.3424656457864 2.8437414470869  C 17.3424656457864 1.94833699300395  16.6060251550065 1.22165511964976  15.695652173913 1.21875  L 15.695652173913 2.03125  Z M 14.0434782608696 2.03125  L 14.0434782608696 1.21875  L 14.8695652173913 1.21875  L 14.8695652173913 2.03125  L 14.0434782608696 2.03125  Z " fill-rule="nonzero" fill="#666666" stroke="none" transform="matrix(1 0 0 1 22 14 )" />
  </g>
</svg>