<?xml version="1.0" encoding="utf-8"?>
<svg version="1.1" xmlns:xlink="http://www.w3.org/1999/xlink" width="18px" height="18px" xmlns="http://www.w3.org/2000/svg">
  <g transform="matrix(1 0 0 1 -22 -10 )">
    <path d="M 9.18214291558832 17.959460906734  C 9.12428577398599 17.9866302433495  9.06214292488733 17.9999992752631  9.00000005569937 17.9999992752631  C 8.93701640395307 18.0001160449855  8.87479695351328 17.9861209462413  8.81785719581043 17.9590296541611  L 0.246428823673043 13.9129547815305  C 0.0959136623566508 13.8420779658153  -0.000179195470821014 13.6898876223661  0 13.5226651182291  L 0 8.76156232084509  C 0 8.52303643163441  0.191878068597418 8.3299550641792  0.428571523978832 8.3299550641792  C 0.491533370152411 8.3299550641792  0.553721889212369 8.34391475373664  0.610714523361651 8.37084138475542  L 9.00000005569937 12.331095640949  L 17.1428570152567 8.48771265139482  L 17.1428570152567 5.15537194579895  L 9.18214291558832 8.91293433913149  C 9.06681067030152 8.967691369016  8.93318944109723 8.967691369016  8.81785719581043 8.91293433913149  L 0.246428823673043 4.86729073928916  C 0.096127952296527 4.79619600871198  0.000176619478409634 4.64412096255728  0.000176619478409634 4.47700105577243  C 0.000176619478409634 4.30988114898758  0.096127952296527 4.15780610283288  0.246428823673043 4.0867113722557  L 8.81785719581043 0.0410677724133922  C 8.93318944109723 -0.0136892574711307  9.06681067030152 -0.0136892574711307  9.18214291558832 0.0410677724133922  L 14.6532856473759 2.62301727624764  L 14.2889999476872 3.40402789585403  L 9.00000005569937 0.90746773566851  L 1.43785735586889 4.47700105577243  L 9.00000005569937 8.04610312330342  L 17.3892855880371 4.08628011968277  C 17.4462782221864 4.05935348866398  17.5084667412463 4.04539379910654  17.5714285874199 4.04539379910654  C 17.8081220428013 4.04539379910654  18 4.23847516656175  18 4.47665310372535  L 17.9999998605061 8.76199357341801  C 17.9999677430854 8.92915422243894  17.9039409212488 9.08123998701102  17.7535712877257 9.15228325693475  L 9.18214291558832 13.1979268567771  C 9.06681067030152 13.2526838866616  8.93318944109723 13.2526838866616  8.81785719581043 13.1979268567771  L 0.857143096142067 9.44036446344454  L 0.857143096142067 13.2488154487788  L 9.00000005569937 17.0926296909059  L 17.3892855880371 13.1323754347123  L 17.7535712877257 13.9133860543187  L 9.18214291558832 17.959460906734  Z " fill-rule="nonzero" fill="#1890ff" stroke="none" transform="matrix(1 0 0 1 22 10 )" />
  </g>
</svg>