<?xml version="1.0" encoding="utf-8"?>
<svg version="1.1" xmlns:xlink="http://www.w3.org/1999/xlink" width="15px" height="16px" xmlns="http://www.w3.org/2000/svg">
  <g transform="matrix(1 0 0 1 -23 -11 )">
    <path d="M 15 14.2857142857143  C 15 15.2303571428571  14.2508690614137 16  13.3314020857474 16  L 2.20741599073002 16  C 1.28794901506373 16  0.538818076477403 15.2303571428571  0.538818076477403 14.2857142857143  L 0.538818076477403 12.5535714285714  L 1.65121668597914 12.5535714285714  L 1.65121668597914 14.2857142857143  C 1.65121668597914 14.6  1.90150637311704 14.8571428571429  2.20741599073002 14.8571428571429  L 13.3314020857474 14.8571428571429  C 13.6373117033604 14.8571428571429  13.8876013904983 14.6  13.8876013904983 14.2857142857143  L 13.8876013904983 1.71428571428571  C 13.8876013904983 1.40000000000001  13.6373117033604 1.14285714285714  13.3314020857474 1.14285714285714  L 2.20741599073002 1.14285714285714  C 1.90150637311704 1.14285714285714  1.65121668597914 1.40000000000001  1.65121668597914 1.71428571428571  L 1.65121668597914 3.41249999999999  L 0.538818076477403 3.41249999999999  L 0.538818076477403 1.71428571428571  C 0.538818076477403 0.769642857142856  1.28794901506373 0  2.20741599073002 0  L 13.3314020857474 0  C 14.2508690614137 0  15 0.769642857142856  15 1.71428571428571  L 15 14.2857142857143  Z M 0.556199304750871 10.2857142857143  L 0.556199304750871 5.71428571428571  L 1.66859791425261 5.71428571428571  L 1.66859791425261 10.2857142857143  L 0.556199304750871 10.2857142857143  Z M 0 5.14285714285714  L 0 4  L 2.22479721900347 4  L 2.22479721900347 5.14285714285714  L 0 5.14285714285714  Z M 0 12  L 0 10.8571428571429  L 2.22479721900347 10.8571428571429  L 2.22479721900347 12  L 0 12  Z M 6.38760139049826 7.03035714285714  L 8.05793742757822 5.52321428571429  L 9.70741599073001 7.00535714285715  L 9.70741599073001 11.4285714285714  L 6.38760139049826 11.4285714285714  L 6.38760139049826 7.03035714285714  Z M 12.5057937427578 8  L 8.05619930475087 4.00357142857143  L 3.60660486674392 8.01785714285714  L 5.27520278099652 8.01785714285714  L 5.27520278099652 12.5714285714286  L 10.8198146002318 12.5714285714286  L 10.8198146002318 8  L 12.5057937427578 8  Z " fill-rule="nonzero" fill="#1890ff" stroke="none" transform="matrix(1 0 0 1 23 11 )" />
  </g>
</svg>