<?xml version="1.0" encoding="utf-8"?>
<svg version="1.1" xmlns:xlink="http://www.w3.org/1999/xlink" width="17px" height="16px" xmlns="http://www.w3.org/2000/svg">
  <g transform="matrix(1 0 0 1 -23 -9 )">
    <path d="M 13.0316642120766 15.55  C 12.7312223858616 15.85  12.380706921944 16  12.0301914580265 16  L 1.26435935198822 16  C 0.913843888070698 16  0.513254786450662 15.85  0.312960235640651 15.55  C 0.0625920471281302 15.25  -0.0375552282768752 14.9  0.0125184094256347 14.55  L 0.212812960235646 13.1  C 0.262886597938141 12.65  0.563328424153172 12.3  0.963917525773194 12.1  C 1.66494845360825 11.8  2.91678939617084 11.3  4.31885125184094 10.95  C 3.61782032400589 10.15  3.01693667157584 8.85  3.01693667157584 6.6  C 3.01693667157584 3.19999999999999  5.01988217967599 2.5  6.67231222385862 2.5  C 8.32474226804123 2.5  10.3276877761414 3.19999999999999  10.3276877761414 6.6  C 10.3276877761414 8.85  9.77687776141384 10.2  9.07584683357879 10.95  C 10.4779086892489 11.25  11.679675994109 11.75  12.380706921944 12.1  C 12.7812960235641 12.3  13.0817378497791 12.65  13.1318114874816 13.1  L 13.3321060382916 14.55  C 13.3821796759941 14.9  13.2820324005891 15.3  13.0316642120766 15.55  Z M 9.22606774668629 6.65  C 9.2761413843888 4.49999999999999  8.47496318114874 3.55  6.62223858615611 3.55  C 4.76951399116347 3.55  3.96833578792341 4.49999999999999  3.96833578792341 6.65  C 3.96833578792341 9.39999999999999  4.86966126656848 10.45  5.67083946980854 10.85  C 5.87113402061856 10.95  5.97128129602357 11.15  5.92120765832106 11.4  C 5.87113402061856 11.6  5.72091310751104 11.8  5.52061855670103 11.8  C 3.7680412371134 12.05  2.01546391752577 12.75  1.31443298969072 13.05  C 1.21428571428571 13.1  1.1642120765832 13.15  1.1642120765832 13.25  L 0.963917525773194 14.7  C 0.963917525773194 14.8  1.0139911634757 14.9  1.0139911634757 14.95  C 1.0640648011782 15  1.11413843888071 15.05  1.21428571428571 15  L 11.980117820324 15  C 12.080265095729 15.05  12.180412371134 15  12.180412371134 14.95  C 12.2304860088365 14.9  12.280559646539 14.85  12.2304860088365 14.7  L 12.0301914580265 13.25  C 12.0301914580265 13.15  11.980117820324 13.05  11.879970544919 13.05  C 11.2290132547864 12.75  9.47643593519881 12.05  7.72385861561118 11.8  C 7.52356406480117 11.75  7.32326951399116 11.6  7.32326951399116 11.4  C 7.32326951399116 11.2  7.37334315169366 10.95  7.57363770250368 10.85  C 8.67525773195876 10.3  9.22606774668629 8.85  9.22606774668629 6.65  Z M 16.6870397643593 13.1  C 16.4366715758468 13.4  16.0861561119293 13.5  15.7356406480118 13.5  L 14.3836524300442 13.5  C 14.0832106038291 13.5  13.8829160530191 13.3  13.8829160530191 13  C 13.8829160530191 12.7  14.0832106038291 12.5  14.3836524300442 12.5  L 15.7356406480118 12.5  C 15.8357879234168 12.5  15.9359351988218 12.45  15.9359351988218 12.4  C 15.9860088365243 12.35  16.0360824742268 12.3  15.9860088365243 12.15  L 15.7857142857143 10.7  C 15.7857142857143 10.6  15.6855670103093 10.5  15.6354933726068 10.5  C 14.9845360824742 10.2  13.2319587628866 9.5  11.479381443299 9.25  C 11.279086892489 9.2  11.0787923416789 9.04999999999999  11.0787923416789 8.85  C 11.0787923416789 8.64999999999999  11.1288659793814 8.39999999999999  11.3291605301914 8.3  C 12.4307805596465 7.74999999999999  12.9815905743741 6.29999999999999  12.9815905743741 4.10000000000001  C 12.9815905743741 1.95  12.180412371134 1.00000000000001  10.3276877761414 1.00000000000001  C 9.37628865979381 1.00000000000001  8.67525773195876 1.25000000000001  8.27466863033873 1.8  C 8.12444771723122 2.00000000000001  7.77393225331369 2.05  7.57363770250368 1.90000000000001  C 7.37334315169367 1.75000000000001  7.32326951399116 1.4  7.47349042709868 1.2  C 8.07437407952872 0.400000000000001  9.07584683357879 0  10.3276877761414 0  C 11.980117820324 0  13.9830633284241 0.700000000000006  13.9830633284241 4.10000000000001  C 13.9830633284241 6.35  13.4322533136966 7.7  12.7312223858616 8.45  C 14.1332842415317 8.75  15.3350515463917 9.25  16.0360824742268 9.6  C 16.4366715758468 9.79999999999999  16.7371134020618 10.15  16.7871870397644 10.6  L 16.9874815905744 12.05  C 17.0375552282769 12.4  16.9374079528719 12.8  16.6870397643593 13.1  Z " fill-rule="nonzero" fill="#1890ff" stroke="none" transform="matrix(1 0 0 1 23 9 )" />
  </g>
</svg>