<?xml version="1.0" encoding="utf-8"?>
<svg version="1.1" xmlns:xlink="http://www.w3.org/1999/xlink" width="16px" height="18px" xmlns="http://www.w3.org/2000/svg">
  <g transform="matrix(1 0 0 1 -23 -10 )">
    <path d="M 3.30099166014251 17.830178886241  L 0.411338524628349 18  L 0 15.4526832936158  L 5.42966852509422 8.20032278838082  C 4.31917832793247 6.33256959323944  4.4523881442056 4.00334105157602  5.76902280791261 2.26657328409765  C 6.64733803882574 1.08368319457862  7.97706306016987 0.292105693263357  9.46078606645205 0.0688882825112902  C 10.9518882182298 -0.160869694927293  12.4429903700076 0.188762009870542  13.6667224807769 1.04785705594521  C 14.8904545915463 1.90695210201987  15.6925647145716 3.18560519385195  15.9290843662328 4.63407939944295  C 16.1656040178941 6.08255360503396  15.8056828088444 7.53102781062498  14.9213049808934 8.7197756069376  C 14.0429897499803 9.90266569645663  12.7132647286361 10.6942431977719  11.2295417223539 10.917460608524  C 10.3554473575187 11.0473238131632  9.46078606645205 10.9873869494835  8.61754209096393 10.7276605402051  L 8.30903819749267 11.1372291086826  L 8.32960512372408 12.9752929281912  L 6.34489674239229 13.7544721560263  L 3.30099166014251 17.830178886241  Z M 6.66368409897927 8.24028069750057  L 1.07976362714942 15.7124097028942  L 1.28543288946359 16.9511048856065  L 2.76625157812565 16.8611995900871  L 5.70732202921836 12.9353350190714  L 7.31154227526892 12.3059979504353  L 7.2909753490375 10.8175658357246  L 8.25762088191412 9.51893378933262  L 8.62782555407963 9.66877594853172  C 9.39908528775779 9.96846026692984  10.2423292632459 10.0583655624493  11.0752897756183 9.93849183509003  C 12.2990218863877 9.74869176677121  13.3685020504214 9.10936522085517  14.0986279316367 8.14038592470119  C 14.828753812852 7.17140662854721  15.1166907800919 5.98265883223458  14.9213049808934 4.79391103592196  C 14.7259191816949 3.60516323960934  14.0677775422896 2.56625760249578  13.0702816200658 1.85700471562019  C 12.0727856978421 1.14775182874459  10.8490535870727 0.86804646490633  9.62532147630339 1.05784653322515  C 8.40158936553404 1.23765712426403  7.32182573838463 1.87698367018006  6.60198332028501 2.85595244361399  C 5.8718574390697 3.82493173976797  5.57363700871415 5.01367953608059  5.76902280791261 6.19243785511328  C 5.8718574390697 6.82177492374938  6.108377090731 7.42114356054566  6.4682982997808 7.95058585638237  L 6.66368409897927 8.24028069750057  Z M 12.4224234437762 5.95269040039477  C 12.3421938550924 6.01897965828591  12.2397936105068 6.05450565991582  12.1344864765363 6.05258517319415  C 12.0316518453792 6.05258517319415  11.9185337511064 6.02261674135434  11.8362660461808 5.95269040039477  L 9.09058139428653 4.0147318080868  C 8.91220528283779 3.89029706489558  8.83392222090324 3.67016654389871  8.89519559508807 3.46531055769021  C 9.14199870986507 2.63618394345535  9.87212459108039 2.0168363520992  10.7565024190314 1.87698367018006  C 11.3735102059739 1.78707837466062  11.9802345298007 1.92693105657975  12.4738407593547 2.27656276137759  C 12.9777304520244 2.62619446617542  13.3068012717271 3.15563676201213  13.3993524397685 3.74501592152847  C 13.5330374602727 4.5941214903232  13.1525493249915 5.46320601367781  12.4224234437762 5.95269040039477  Z M 10.9210378288827 2.87593139817387  C 10.5508331567172 2.93586826185349  10.2217623370145 3.14564728473218  10.026376537816 3.44533160313033  L 12.1036360871892 4.91378476328122  C 12.300049439065 4.68818061858321  12.4078210116677 4.40226961170505  12.4078210116677 4.10680184622358  C 12.4078210116677 3.70671987072561  12.2106271348672 3.33082398715413  11.8773998986436 3.09569989833251  C 11.5997463945195 2.89591035273374  11.2603921117011 2.82598401177418  10.9210378288827 2.87593139817387  Z M 15.9907851449271 17.2607786812846  C 15.9907851449271 17.5404840451228  15.7645489563815 17.7602525452815  15.4766119891417 17.7602525452815  L 10.9210378288827 17.7602525452815  C 10.6331008616429 17.7602525452815  10.4068646730973 17.5404840451228  10.4068646730973 17.2607786812846  C 10.4068646730973 16.9810733174463  10.6331008616429 16.7613048172877  10.9210378288827 16.7613048172877  L 15.4766119891417 16.7613048172877  C 15.7645489563815 16.7613048172877  15.9907851449271 16.9810733174463  15.9907851449271 17.2607786812846  Z M 14.2117460259095 15.262883225297  C 14.2117460259095 15.5425885891352  13.9752263742482 15.7623570892939  13.697572870124 15.7623570892939  L 11.0033055338084 15.7623570892939  C 10.7153685665685 15.7623570892939  10.4891323780229 15.5425885891352  10.4891323780229 15.262883225297  C 10.4891323780229 14.9831778614587  10.7153685665685 14.7634093613001  11.0033055338084 14.7634093613001  L 13.697572870124 14.7634093613001  C 13.9855098373639 14.7634093613001  14.2117460259095 14.9831778614587  14.2117460259095 15.262883225297  Z " fill-rule="nonzero" fill="#1890ff" stroke="none" transform="matrix(1 0 0 1 23 10 )" />
  </g>
</svg>