<?xml version="1.0" encoding="utf-8"?>
<svg version="1.1" xmlns:xlink="http://www.w3.org/1999/xlink" width="16px" height="16px" xmlns="http://www.w3.org/2000/svg">
  <g transform="matrix(1 0 0 1 -457 -320 )">
    <path d="M 16 2.07999999999998  C 16 1.726  15.7140000000001 1.44  15.36 1.44  L 12 1.44  L 12 0.160000000000025  C 12 0.0720000000000027  11.928 0  11.84 0  L 10.72 0  C 10.6319999999999 0  10.5599999999999 0.0720000000000027  10.5599999999999 0.160000000000025  L 10.5599999999999 1.44  L 5.44000000000005 1.44  L 5.44000000000005 0.160000000000025  C 5.44000000000005 0.0720000000000027  5.36800000000005 0  5.27999999999997 0  L 4.15999999999997 0  C 4.072 0  4 0.0720000000000027  4 0.160000000000025  L 4 1.44  L 0.639999999999986 1.44  C 0.285999999999945 1.44  0 1.726  0 2.07999999999998  L 0 15.36  C 0 15.714  0.285999999999945 16  0.639999999999986 16  L 15.36 16  C 15.7140000000001 16  16 15.714  16 15.36  L 16 2.07999999999998  Z M 14.5599999999999 7  L 14.5599999999999 14.56  L 1.44000000000005 14.56  L 1.44000000000005 7  L 14.5599999999999 7  Z M 14.5599999999999 5.60000000000002  L 1.44000000000005 5.60000000000002  L 1.44000000000005 2.88  L 4 2.88  L 4 3.83999999999998  C 4 3.928  4.072 4  4.15999999999997 4  L 5.27999999999997 4  C 5.36800000000005 4  5.44000000000005 3.928  5.44000000000005 3.83999999999998  L 5.44000000000005 2.88  L 10.5599999999999 2.88  L 10.5599999999999 3.83999999999998  C 10.5599999999999 3.928  10.6319999999999 4  10.72 4  L 11.84 4  C 11.928 4  12 3.928  12 3.83999999999998  L 12 2.88  L 14.5599999999999 2.88  L 14.5599999999999 5.60000000000002  Z " fill-rule="nonzero" fill="#cccccc" stroke="none" transform="matrix(1 0 0 1 457 320 )" />
  </g>
</svg>