<?xml version="1.0" encoding="utf-8"?>
<svg version="1.1" xmlns:xlink="http://www.w3.org/1999/xlink" width="160px" height="160px" xmlns="http://www.w3.org/2000/svg">
  <g transform="matrix(1 0 0 1 -82 -305 )">
    <path d="M 162.500126781819 305.501540116399  C 206.176607717068 305.770603997477  241.5 341.260191835549  241.5 385  C 241.5 428.906637611548  205.906637611548 464.5  162 464.5  C 156.146268278018 464.5  150.310955533978 463.853475079434  144.600142701464 462.572514257123  L 162.487179540616 385.112499312019  A 0.5 0.5 0 0 0 162.5 385 L 162.50012648695 305.501540114582  Z " fill-rule="nonzero" fill="#1890ff" stroke="none" />
    <path d="M 162.500126781819 305.501540116399  C 206.176607717068 305.770603997477  241.5 341.260191835549  241.5 385  C 241.5 428.906637611548  205.906637611548 464.5  162 464.5  C 156.146268278018 464.5  150.310955533978 463.853475079434  144.600142701464 462.572514257123  L 162.487179540616 385.112499312019  A 0.5 0.5 0 0 0 162.5 385 L 162.50012648695 305.501540114582  Z " stroke-width="1" stroke="#ffffff" fill="none" />
  </g>
</svg>