<?xml version="1.0" encoding="utf-8"?>
<svg version="1.1" xmlns:xlink="http://www.w3.org/1999/xlink" width="14px" height="14px" xmlns="http://www.w3.org/2000/svg">
  <g transform="matrix(1 0 0 1 -184 -9 )">
    <path d="M 191 9  C 194.92 9  198 12.08  198 16  C 198 19.92  194.92 23  191 23  C 187.08 23  184 19.92  184 16  C 184 12.08  187.08 9  191 9  Z " fill-rule="nonzero" fill="#ffffff" stroke="none" fill-opacity="0" />
    <path d="M 191 9.5  C 194.64 9.5  197.5 12.36  197.5 16  C 197.5 19.64  194.64 22.5  191 22.5  C 187.36 22.5  184.5 19.64  184.5 16  C 184.5 12.36  187.36 9.5  191 9.5  Z " stroke-width="1" stroke="#1890ff" fill="none" />
  </g>
</svg>