<?xml version="1.0" encoding="utf-8"?>
<svg version="1.1" xmlns:xlink="http://www.w3.org/1999/xlink" width="822px" height="181px" xmlns="http://www.w3.org/2000/svg">
  <g transform="matrix(1 0 0 1 -50 -597 )">
    <path d="M 821 180  L 1.24904914042298 180  C 1.24904914042298 180  0 89.7153258283988  0 90.1179330710816  C 12.1409190110257 89.737493845832  45.1620438056158 87.9035932363263  70.5296414625489 87.9035932363263  C 114.038186520615 87.9035932363263  110.499213956083 116.086100224117  146.305289314874 116.086100224117  C 182.111364673665 116.086100224117  169.030837034615 63.9540523040864  223.746336021096 64.4181707465007  C 263.299558801156 64.7536767820697  269.060354306415 82.3492954898683  292.860388457832 82.5354966672234  C 335.744408945687 82.8710027027923  331.997261524418 -0.334494118304748  374.464932298798 0.00101191726434991  C 416.932603073179 0.336517952833448  394.899448343085 86.4981923068999  443.578984735534 91.9296656631536  C 470.641716111365 94.9492199832744  481.674983518434 91.4264066098003  517.689233733962 93.9427018765673  C 553.70348394949 96.4589971433343  553.078959379279 147.288161532028  595.130280440184 147.623667567597  C 637.18160150109 147.959173603166  628.159382022569 129.362958399894  670.073228865561 129.506341646875  C 715.364033197866 129.661277141292  717.537096201633 148.965691709873  750.845073279578 149.636703781011  C 778.770127894658 150.199273182631  801.140118667275 115.079582117411  819.126426289366 116.086100224117  C 819.626045945535 116.690011088141  821 180  821 180  Z " fill-rule="nonzero" fill="#1890ff" stroke="none" transform="matrix(1 0 0 1 50 597 )" />
  </g>
</svg>