<?xml version="1.0" encoding="utf-8"?>
<svg version="1.1" xmlns:xlink="http://www.w3.org/1999/xlink" width="821px" height="153px" xmlns="http://www.w3.org/2000/svg">
  <g transform="matrix(1 0 0 1 -49 -597 )">
    <path d="M 0 89.4570044872449  C 0 89.4570044872449  27.2527975584944 88.1118016274983  70.732451678535 88.1118016274983  C 114.212105798576 88.1118016274983  110.675483214649 116.361061682179  146.457782299084 116.361061682179  C 182.24008138352 116.361061682179  169.168239594866 64.1055338288901  223.847405900305 64.5707515819313  C 263.374364191251 64.9070522968683  269.131334360919 82.5443479751743  292.915564598169 82.7309901885115  C 335.771108850458 83.0672909034484  332.026449643947 -0.335286400845915  374.465920651068 0.0010143140909804  C 416.90539165819 0.337315029027876  394.886867582993 86.7030718663861  443.534079348932 92.1474102067383  C 470.578840284842 95.1741166411685  481.60478128179 91.6429591343332  517.59511698881 94.1652144963583  C 553.585452695829 96.6874698583834  552.961342828077 147.637028171289  594.984740590031 147.973328886225  C 637.008138351984 148.309629601162  627.99190988933 129.669367415203  669.877924720244 129.813090279645  C 715.138654642584 129.968392754169  717.310274669379 149.318531745972  750.596134282808 149.991133175845  C 783.881993896236 150.663734605719  797.471427490479 112.842411226726  818 114.343257392558  " stroke-width="2" stroke="#1890ff" fill="none" transform="matrix(1 0 0 1 50 598 )" />
  </g>
</svg>