<?xml version="1.0" encoding="utf-8"?>
<svg version="1.1" xmlns:xlink="http://www.w3.org/1999/xlink" width="13px" height="12px" xmlns="http://www.w3.org/2000/svg">
  <g transform="matrix(1 0 0 1 -874 -107 )">
    <path d="M 880.5 110  C 882.46 110  884 111.32  884 113  C 884 114.68  882.46 116  880.5 116  C 878.54 116  877 114.68  877 113  C 877 111.32  878.54 110  880.5 110  Z " fill-rule="nonzero" fill="#ffffff" stroke="none" />
    <path d="M 880.5 109  C 883.02 109  885 110.76  885 113  C 885 115.24  883.02 117  880.5 117  C 877.98 117  876 115.24  876 113  C 876 110.76  877.98 109  880.5 109  Z " stroke-width="4" stroke="#1890ff" fill="none" />
  </g>
</svg>