<?xml version="1.0" encoding="utf-8"?>
<svg version="1.1" xmlns:xlink="http://www.w3.org/1999/xlink" width="115px" height="120px" xmlns="http://www.w3.org/2000/svg">
  <g transform="matrix(1 0 0 1 -43 -196 )">
    <path d="M 44 200  A 3 3 0 0 1 47 197 L 154 197  A 3 3 0 0 1 157 200 L 157 312  A 3 3 0 0 1 154 315 L 47 315  A 3 3 0 0 1 44 312 L 44 200  Z " fill-rule="nonzero" fill="#f6f6f6" stroke="none" />
    <path d="M 43.5 200  A 3.5 3.5 0 0 1 47 196.5 L 154 196.5  A 3.5 3.5 0 0 1 157.5 200 L 157.5 312  A 3.5 3.5 0 0 1 154 315.5 L 47 315.5  A 3.5 3.5 0 0 1 43.5 312 L 43.5 200  Z " stroke-width="1" stroke="#000000" fill="none" stroke-opacity="0.0470588235294118" />
  </g>
</svg>