<?xml version="1.0" encoding="utf-8"?>
<svg version="1.1" xmlns:xlink="http://www.w3.org/1999/xlink" width="15px" height="16px" xmlns="http://www.w3.org/2000/svg">
  <g transform="matrix(1 0 0 1 -1127 -100 )">
    <path d="M 9.64100597036669 11.9976962963552  C 9.64100595362592 12.3140717933352  9.40199655007598 12.5720867801228  9.10539452198842 12.5720867801228  C 8.80879249390063 12.5720867801228  8.56978307360993 12.3171434160516  8.56978307360993 12.0007679012149  L 8.56978307360993 5.71318871765201  C 8.56978307360993 5.39681322067201  8.80879247715987 5.14186983874412  9.10539452198842 5.14186983874412  C 9.40199656681675 5.14186983874412  9.64100597036669 5.39681320281531  9.64100597036669 5.71318871765201  L 9.64100597036669 11.9976962963552  Z M 6.42733733031848 11.9976962963552  C 6.42733731357771 12.3140717933352  6.18832791002778 12.5720867801228  5.89172586519945 12.5720867801228  C 5.59512383711166 12.5720867801228  5.35611441682095 12.3171434160516  5.35611441682095 12.0007679012149  L 5.35611443356172 5.71318871765201  C 5.35611443356172 5.39681322067201  5.59512383711166 5.14186983874412  5.89172588193999 5.14186983874412  C 6.18832791002778 5.14186983874412  6.42733733031848 5.39681320281531  6.42733733031848 5.71318871765201  L 6.42733733031848 11.9976962963552  Z M 15 3.42791323773389  C 15 3.11153772289719  14.7609905964498 2.856594358826  14.4643885516215 2.856594358826  L 11.786331343211 2.856594358826  L 11.7863313599516 1.71395661886695  C 11.7863313599516 0.767901714930056  11.0721827788544 0  10.1910155665092 0  L 4.82050298518323 0  C 3.93357651373245 0  3.21366865678897 0.767901714930056  3.21366865678897 1.71395661886695  L 3.21366865678897 2.856594358826  L 0.535611448378264 2.856594358826  C 0.239009420290706 2.856594358826  0 3.11153772289719  0 3.42791323773389  C 0 3.74428875257058  0.239009403549938 3.99923211664177  0.535611448378264 4  L 14.4643885516215 4  C 14.7609905797093 3.99923211664177  15 3.74428875257058  15 3.42791323773389  Z M 4.28489155354573 1.71395661886695  C 4.28489155354573 1.40065272674672  4.52678058664833 1.14263773995906  4.820503001924 1.14263773995906  L 10.1910155665092 1.14263773995906  C 10.4847379650441 1.14263773995906  10.7151084799356 1.39450949917047  10.7151084799356 1.71395661886695  L 10.7151084799356 2.856594358826  L 4.28489155354573 2.856594358826  L 4.28489155354573 1.71395661886695  Z M 12.8604338862612 14.2860433811331  C 12.8575542399678 15.2290266802102  12.1376463830243 16  11.2507199115733 16  L 3.75215973472013 16  C 2.86523326326913 16  2.14532540632565 15.2320982850699  2.14532540632565 14.2860433811331  L 2.14532540632565 5.70704549007574  C 2.14532540632565 5.39066999309576  2.38433480987558 5.13572661116787  2.68093685470391 5.13572661116787  C 2.97753889953247 5.13572661116787  3.21654830308241 5.39066997523906  3.21654830308241 5.70704549007574  L 3.21654830308241 14.2860433811331  C 3.21654830308241 14.602418878113  3.45843733618524 14.8573622600409  3.75215975146067 14.8573622600409  L 11.2535995578667 14.8573622600409  C 11.5502015859545 14.8573622600409  11.7892110062452 14.6024188959698  11.7892110062452 14.2860433811331  L 11.7892109895045 5.72854674195085  C 11.7892109895045 5.41217124497085  12.0282203930544 5.15722786304296  12.324822437883 5.15722786304296  C 12.6214244827113 5.15722786304296  12.8604338862612 5.41217122711415  12.8604338862612 5.72854674195085  L 12.8604338862612 14.2860433811331  Z " fill-rule="nonzero" fill="#000000" stroke="none" transform="matrix(1 0 0 1 1127 100 )" />
  </g>
</svg>