<?xml version="1.0" encoding="utf-8"?>
<svg version="1.1" xmlns:xlink="http://www.w3.org/1999/xlink" width="104px" height="102px" xmlns="http://www.w3.org/2000/svg">
  <g transform="matrix(1 0 0 1 -126 -375 )">
    <path d="M 127 379  A 3 3 0 0 1 130 376 L 226 376  A 3 3 0 0 1 229 379 L 229 473  A 3 3 0 0 1 226 476 L 130 476  A 3 3 0 0 1 127 473 L 127 379  Z " fill-rule="nonzero" fill="#000000" stroke="none" fill-opacity="0.0196078431372549" />
    <path d="M 126.5 379  A 3.5 3.5 0 0 1 130 375.5 L 226 375.5  A 3.5 3.5 0 0 1 229.5 379 L 229.5 473  A 3.5 3.5 0 0 1 226 476.5 L 130 476.5  A 3.5 3.5 0 0 1 126.5 473 L 126.5 379  Z " stroke-width="1" stroke-dasharray="9,4" stroke="#000000" fill="none" stroke-opacity="0.149019607843137" stroke-dashoffset="0.5" />
  </g>
</svg>