<?xml version="1.0" encoding="utf-8"?>
<svg version="1.1" xmlns:xlink="http://www.w3.org/1999/xlink" width="14px" height="15px" xmlns="http://www.w3.org/2000/svg">
  <g transform="matrix(1 0 0 1 -126 -84 )">
    <path d="M 4.22916666666669 2.7  L 4.22916666666669 1.35  L 4.08333333333331 1.35  C 4.16354166666667 1.35  4.22916666666669 1.28249999999999  4.22916666666669 1.20000000000002  L 4.22916666666669 1.35  L 9.77083333333331 1.35  L 9.77083333333331 1.20000000000002  C 9.77083333333331 1.28249999999999  9.83645833333333 1.35  9.91666666666669 1.35  L 9.77083333333331 1.35  L 9.77083333333331 2.7  L 11.0833333333333 2.7  L 11.0833333333333 1.20000000000002  C 11.0833333333333 0.538125000000005  10.56015625 0  9.91666666666669 0  L 4.08333333333331 0  C 3.43984375000002 0  2.91666666666669 0.538125000000005  2.91666666666669 1.20000000000002  L 2.91666666666669 2.7  L 4.22916666666669 2.7  Z M 14 3.29999999999998  C 14 2.96812500000002  13.7393229166667 2.7  13.4166666666667 3  L 0.583333333333314 3  C 0.260677083333348 2.7  0 2.96812500000002  0 3.29999999999998  L 0 3.90000000000002  C 0 3.98249999999999  0.0656250000000114 4.05000000000001  0.145833333333314 4.05000000000001  L 1.24687499999999 4.05000000000001  L 1.69713541666664 13.85625  C 1.72630208333334 14.495625  2.24036458333336 15  2.86197916666669 15  L 11.1380208333333 15  C 11.7614583333333 15  12.2736979166667 14.4975  12.3028645833334 13.85625  L 12.753125 4.05000000000001  L 13.8541666666667 4.05000000000001  C 13.934375 4.05000000000001  14 3.98249999999999  14 3.90000000000002  L 14 3.29999999999998  Z M 11.4388020833333 4.05000000000001  L 10.99765625 13.65  L 3.00234375000002 13.65  L 2.56119791666669 4.05000000000001  L 11.4388020833333 4.05000000000001  Z " fill-rule="nonzero" fill="#666666" stroke="none" transform="matrix(1 0 0 1 126 84 )" />
  </g>
</svg>