<?xml version="1.0" encoding="utf-8"?>
<svg version="1.1" xmlns:xlink="http://www.w3.org/1999/xlink" width="10px" height="10px" xmlns="http://www.w3.org/2000/svg">
  <g transform="matrix(1 0 0 1 -985 -208 )">
    <path d="M 0.0752837499317008 7.47849462365591  C 0.0501953145052049 7.50537634408602  0.0340670345881283 7.54121863799283  0.0340670345881283 7.57885304659498  L 1.84436521522156E-05 9.70967741935484  C -0.00177358744973164 9.86917562724014  0.127252651886637 10  0.286743419955276 10  L 0.293911544362872 10  L 2.40850824459862 9.94802867383512  C 2.44434886663648 9.94623655913979  2.4801894886744 9.93189964157706  2.5052779241009 9.90681003584229  L 9.95833527688096 2.46953405017921  C 10.0138882410397 2.41397849462366  10.0138882410397 2.3225806451613  9.95833527688096 2.26702508960574  L 7.73084061722585 0.0412186379928261  C 7.70216811959553 0.0125448028673839  7.66632749755761 0  7.62869484441786 0  C 7.59106219127806 0  7.55522156924014 0.0143369175627288  7.52654907160982 0.0412186379928261  L 0.0752837499317008 7.47849462365591  Z M 1.15946256657802 8.83333333333333  L 1.17200678429126 8.00179211469534  L 7.62869484441786 1.55913978494624  L 8.43869290247424 2.3673835125448  L 1.97842078014387 8.81362007168458  L 1.15946256657802 8.83333333333333  Z " fill-rule="nonzero" fill="#bcbcbc" stroke="none" transform="matrix(1 0 0 1 985 208 )" />
  </g>
</svg>