<?xml version="1.0" encoding="utf-8"?>
<svg version="1.1" xmlns:xlink="http://www.w3.org/1999/xlink" width="14px" height="14px" xmlns="http://www.w3.org/2000/svg">
  <g transform="matrix(1 0 0 1 -980 -208 )">
    <path d="M 14 7.14000000000001  C 14 7.063  13.937 7  13.86 7  L 12.88 7  C 12.803 7  12.74 7.063  12.74 7.14000000000001  L 12.74 12.74  L 1.26 12.74  L 1.26 1.26  L 6.85999999999998 1.26  C 6.93700000000001 1.26  7 1.197  7 1.12  L 7 0.13999999999999  C 7 0.0629999999999876  6.93700000000001 0  6.85999999999998 0  L 0.55999999999996 0  C 0.250249999999984 0  0 0.250249999999999  0 0.55999999999999  L 0 13.44  C 0 13.74975  0.250249999999984 14  0.55999999999996 14  L 13.44 14  C 13.74975 14  14 13.74975  14 13.44  L 14 7.14000000000001  Z " fill-rule="nonzero" fill="#bcbcbc" stroke="none" transform="matrix(1 0 0 1 980 208 )" />
  </g>
</svg>