<?xml version="1.0" encoding="utf-8"?>
<svg version="1.1" xmlns:xlink="http://www.w3.org/1999/xlink" width="12px" height="12px" xmlns="http://www.w3.org/2000/svg">
  <g transform="matrix(1 0 0 1 -1103 -14 )">
    <path d="M 6.46194563266897 9.22825099389004  L 6.46273889522558 0.494430850731419  L 5.9988389520762 0  L 5.53948223993302 0.494430850731419  L 5.53868897737641 9.22825099389004  L 6.46194563266897 9.22825099389004  Z M 6.19144310083925 1.14647559621384  L 5.53966973835554 0.495526893919356  L 2.4949693932864 3.53413357305271  L 3.14674275577011 4.18509669696809  L 6.19144310083925 1.14647559621384  Z M 6.46210428518032 0.495526893919356  L 5.81034534565208 1.14649001783474  L 8.80894992470019 4.13900519659073  L 9.46072328718378 3.48804207267536  L 6.46210428518032 0.495526893919356  Z M 0.923242232336975 12  L 0.923242232336975 11  L 11.0981037419157 11  L 11.0981037419157 12  L 0.923242232336975 12  Z M 0 12  L 0 8.3127520779152  L 0.923242232336975 8.3127520779152  L 0.923242232336975 12  L 0 12  Z M 11.0758923903285 11.9919094706784  L 11.0758923903285 8.30825253219627  L 12 8.30825253219627  L 12 11.9919094706784  L 11.0758923903285 11.9919094706784  Z " fill-rule="nonzero" fill="#000000" stroke="none" transform="matrix(1 0 0 1 1103 14 )" />
  </g>
</svg>