<?xml version="1.0" encoding="utf-8"?>
<svg version="1.1" xmlns:xlink="http://www.w3.org/1999/xlink" width="9px" height="10px" xmlns="http://www.w3.org/2000/svg">
  <g transform="matrix(1 0 0 1 -228 -188 )">
    <path d="M 5.78460358222 7.498560185222  C 5.78460357217554 7.69629487083446  5.64119793004559 7.85755423757675  5.46323671319306 7.85755423757675  C 5.28527549634038 7.85755423757675  5.14186984416597 7.69821463503226  5.14186984416597 7.50047993825936  L 5.14186984416597 3.57074294853251  C 5.14186984416597 3.37300826292  5.28527548629592 3.21366864921509  5.46323671319306 3.21366864921509  C 5.64119794009005 3.21366864921509  5.78460358222 3.37300825175956  5.78460358222 3.57074294853251  L 5.78460358222 7.498560185222  Z M 3.85640239819108 7.498560185222  C 3.85640238814662 7.69629487083446  3.71299674601667 7.85755423757675  3.53503551911967 7.85755423757675  C 3.35707430226699 7.85755423757675  3.21366865009256 7.69821463503226  3.21366865009256 7.50047993825936  L 3.21366866013702 3.57074294853251  C 3.21366866013702 3.37300826292  3.35707430226699 3.21366864921509  3.53503552916399 3.21366864921509  C 3.71299674601667 3.21366864921509  3.85640239819108 3.37300825175956  3.85640239819108 3.57074294853251  L 3.85640239819108 7.498560185222  Z M 9 2.14244577358369  C 9 1.94471107681073  8.85659435786991 1.78537147426624  8.67863313097291 1.78537147426624  L 7.07179880592662 1.78537147426624  L 7.07179881597094 1.07122288679187  C 7.07179881597094 0.479938571831298  6.64330966731265 0  6.11460933990551 0  L 2.89230179110993 0  C 2.36014590823947 0  1.92820119407338 0.479938571831298  1.92820119407338 1.07122288679187  L 1.92820119407338 1.78537147426624  L 0.321366869026946 1.78537147426624  C 0.143405652174408 1.78537147426624  0 1.94471107681073  0 2.14244577358369  C 0 2.34018047035661  0.143405642129949 2.49952007290113  0.321366869026946 2.49952007290113  L 8.67863313097291 2.49952007290113  C 8.85659434782559 2.49952007290113  9 2.34018047035661  9 2.14244577358369  Z M 2.57093493212744 1.07122288679187  C 2.57093493212744 0.875407954216712  2.71606835198901 0.714148587474398  2.89230180115439 0.714148587474398  L 6.11460933990551 0.714148587474398  C 6.29084277902646 0.714148587474398  6.42906508796133 0.87156843698159  6.42906508796133 1.07122288679187  L 6.42906508796133 1.78537147426624  L 2.57093493212744 1.78537147426624  L 2.57093493212744 1.07122288679187  Z M 7.71626033175673 8.92877711320813  C 7.71453254398068 9.51814167513135  7.28258782981459 10  6.75043194694396 10  L 2.25129584083209 10  C 1.71913995796146 10  1.2871952437954 9.5200614281687  1.2871952437954 8.92877711320813  L 1.2871952437954 3.56690343129736  C 1.2871952437954 3.36916874568485  1.43060088592534 3.20982913197992  1.60856211282234 3.20982913197992  C 1.78652333971948 3.20982913197992  1.92992898184943 3.36916873452441  1.92992898184943 3.56690343129736  L 1.92992898184943 8.92877711320813  C 1.92992898184943 9.12651179882064  2.07506240171114 9.2858514125256  2.2512958508764 9.2858514125256  L 6.75215973472004 9.2858514125256  C 6.93012095157272 9.2858514125256  7.07352660374715 9.12651180998111  7.07352660374715 8.92877711320813  L 7.07352659370267 3.58034171371929  C 7.07352659370267 3.3826070281068  7.21693223583264 3.22326741440185  7.39489346272978 3.22326741440185  C 7.57285468962678 3.22326741440185  7.71626033175673 3.38260701694634  7.71626033175673 3.58034171371929  L 7.71626033175673 8.92877711320813  Z " fill-rule="nonzero" fill="#000000" stroke="none" transform="matrix(1 0 0 1 228 188 )" />
  </g>
</svg>