<?xml version="1.0" encoding="utf-8"?>
<svg version="1.1" xmlns:xlink="http://www.w3.org/1999/xlink" width="19px" height="11px" xmlns="http://www.w3.org/2000/svg">
  <g transform="matrix(1 0 0 1 -501 -377 )">
    <path d="M 19 5.5  C 19 5.5  15.197205522939 0  9.5 0  C 3.80000461134823 0  0 5.5  0 5.5  C 0 5.5  3.80000461134823 11  9.5 11  C 15.1999953886517 11  19 5.5  19 5.5  Z M 13.2804294378766 5.47839743382307  C 13.2776165154225 7.49533403986799  11.5875112553304 9.12618317584626  9.5 9.12618317584626  C 7.4125118014111 9.12618317584626  5.71957056212337 7.49266430975343  5.71957056212337 5.47839743382307  C 5.71957056212337 3.46413055789272  7.41248874466963 1.83061169179988  9.5 1.83061169179988  C 11.5874881985889 1.83061169179988  13.2804294378766 3.46413055789272  13.2804294378766 5.47839743382307  Z M 8.15403966244931 4.19857331240699  C 7.80426889499961 4.53878592000522  7.59998616595509 5.01128365477967  7.59998616595509 5.48920984078704  C 7.59998616595509 5.9671360267944  7.80426889499961 6.44232573943435  8.15403966244931 6.77984636916708  C 8.50381042989901 7.11736699889976  8.9963024267827 7.31445982460682  9.49160734612053 7.31445982460682  C 9.98691226545825 7.31445982460682  10.4793812056006 7.11734475114883  10.8291750297918 6.77984636916708  C 11.1789457972415 6.44234798718534  11.3832285262859 5.9671360267944  11.3832285262859 5.48920984078704  C 11.3832285262859 5.01128365477967  11.1789457972415 4.53609394213967  10.8291750297918 4.19857331240699  C 10.4794042623421 3.86107493042525  9.98691226545825 3.6639598569672  9.49160734612053 3.6639598569672  C 8.9963024267827 3.6639598569672  8.50383348664037 3.86107493042525  8.15403966244931 4.19857331240699  Z " fill-rule="nonzero" fill="#c9c9c9" stroke="none" transform="matrix(1 0 0 1 501 377 )" />
  </g>
</svg>