<?xml version="1.0" encoding="utf-8"?>
<svg version="1.1" xmlns:xlink="http://www.w3.org/1999/xlink" width="14px" height="13px" xmlns="http://www.w3.org/2000/svg">
  <g transform="matrix(1 0 0 1 -503 -321 )">
    <path d="M 0 1.00000000292971  C 0 0.447715251480872  0.447715251387194 0  1.00000000272036 0  L 12.9999999972796 0  C 13.5522847486129 0  14 0.447715251480872  14 1.00000000292971  L 14 2  L 0 2  L 0 1.00000000292971  Z M 14 3  L 0 3  L 0 11.9999999970703  C 0 12.5522847485191  0.447715251387194 13  1.00000000272036 13  L 12.9999999972796 13  C 13.5522847486129 13  14 12.5522847485191  14 11.9999999970703  L 14 3  Z M 10.0000000018136 3.99999999902343  L 10.0000000018136 5.00000000195314  L 3.99999999818641 5.00000000195314  L 3.99999999818641 3.99999999902343  L 10.0000000018136 3.99999999902343  Z " fill-rule="nonzero" fill="#ff9966" stroke="none" transform="matrix(1 0 0 1 503 321 )" />
  </g>
</svg>