<?xml version="1.0" encoding="utf-8"?>
<svg version="1.1" xmlns:xlink="http://www.w3.org/1999/xlink" width="14px" height="13px" xmlns="http://www.w3.org/2000/svg">
  <g transform="matrix(1 0 0 1 -665 -376 )">
    <path d="M 14 2.43042110358181  C 14 2.10007260406576  13.7275830678198 1.8310745401742  13.39144287665 2  L 0.60855712335001 2  C 0.272416932180249 1.8310745401742  0 2.10007260406576  0 2.43199419167473  C 0 2.76391577928359  0.272416932180249 3.03291384317521  0.60855712335001 3.03291384317521  L 2.0200273099681 3.03291384317521  L 2.0200273099681 10.4122700871248  C 2.0200273099681 11.8390609874153  3.19572143832499 13  4.64064633591261 13  L 9.35935366408739 13  C 10.804278561675 13  11.9799726900319 11.8390609874153  11.9799726900319 10.4122700871248  L 11.9799726900319 3.03134075508228  L 13.39144287665 3.03134075508228  C 13.7275830678198 3.03134075508228  14 2.76234269119067  14 2.43042110358181  Z M 6.23054164770144 5.42558083252663  L 6.23054164770144 9.19941916747331  C 6.23054164770144 9.53134075508228  5.95812471552119 9.8003388189739  5.62198452435143 9.8003388189739  C 5.28584433318156 9.8003388189739  5.01342740100131 9.53134075508228  5.01342740100131 9.19941916747331  L 5.01342740100131 5.42558083252663  C 5.01342740100131 5.09365924491766  5.28584433318156 4.82466118102604  5.62198452435143 4.82466118102604  C 5.95812471552119 4.82466118102604  6.23054164770144 5.09365924491766  6.23054164770144 5.42558083252663  Z M 8.98497951752381 5.42558083252663  L 8.98497951752381 9.19941916747331  C 8.98497951752381 9.53134075508228  8.71256258534356 9.8003388189739  8.37642239417391 9.8003388189739  C 8.04028220300404 9.8003388189739  7.76786527082379 9.53134075508228  7.76786527082379 9.19941916747331  L 7.76786527082379 5.42558083252663  C 7.76786527082379 5.09365924491766  8.04028220300404 4.82466118102604  8.37642239417391 4.82466118102604  C 8.71256258534356 4.82466118102604  8.98497951752381 5.09365924491766  8.98497951752381 5.42558083252663  Z M 4.06076467910782 0.600919651500476  C 4.06076467910782 0.932841239109337  4.33318161128807 1.2018393030009  4.66932180245794 1.2018393030009  L 9.33067819754206 1.2018393030009  C 9.66681838871193 1.2018393030009  9.93923532089218 0.932841239109337  9.93923532089218 0.600919651500476  C 9.93923532089218 0.268998063891615  9.66681838871193 0  9.33067819754206 0  L 4.66932180245794 0  C 4.33318161128807 0  4.06076467910782 0.268998063891615  4.06076467910782 0.600919651500476  Z " fill-rule="nonzero" fill="#c9c9c9" stroke="none" transform="matrix(1 0 0 1 665 376 )" />
  </g>
</svg>