<?xml version="1.0" encoding="utf-8"?>
<svg version="1.1" xmlns:xlink="http://www.w3.org/1999/xlink" width="13px" height="13px" xmlns="http://www.w3.org/2000/svg">
  <g transform="matrix(1 0 0 1 -580 -376 )">
    <path d="M 5.84144617383814 12.9989550343109  L 5.84144617383814 11.4634989023535  L 7.37508596397751 11.4634989023535  L 7.37508596397751 12.9989550343109  L 5.84144617383814 12.9989550343109  Z M 8.65468726127178 12.9989550343109  L 8.65468726127178 11.4634989023535  L 10.1883270514111 11.4634989023535  L 10.1883270514111 12.9989550343109  L 8.65468726127178 12.9989550343109  Z M 11.4663602098606 12.9989550343109  L 11.4663602098606 11.4634989023535  L 13 11.4634989023535  L 13 12.9989550343109  L 11.4663602098606 12.9989550343109  Z M 7.97097872497235 2.12359243096802  L 1.31736560681144 8.78665564572003  C 1.15741544464964 8.94679524230457  1.05705455858736 9.14147475187792  1.01001039324569 9.34557423772094  L 0.0158103656910952 12.3960765530516  L 0.0205147822252342 12.4007865411864  C -0.0280975219611718 12.559356141726  0.0095378103122243 12.7383356908499  0.134988917890041 12.8655053704906  C 0.25730374777845 12.9879650619963  0.431367159542786 13.025644967075  0.588181044015127 12.9832550738615  L 0.589749182859802 12.9848250699065  L 3.65389248544913 11.9925875695004  L 3.6523243466044 11.9910175734555  C 3.85618239641842 11.9423476960621  4.05219975200889 11.8418679491855  4.2105817753259 11.683298348646  L 10.8641948934868 5.02180512993885  L 7.97097872497235 2.12359243096802  Z M 11.9713009178615 3.91181792616186  L 12.6816678145211 3.20060971780111  C 13.1379962183356 2.74374086872177  13.0752706645467 1.63375366494472  12.4605602374152 0.98220530629203  L 12.2300438272408 0.737285923280467  L 11.9932548616876 0.514346484898056  C 11.3769762957114 -0.104231956810793  10.2447800498212 -0.152901834204101  9.78845164600666 0.303967014875241  L 9.07808474934707 1.01517522323587  L 11.9713009178615 3.91181792616186  Z " fill-rule="nonzero" fill="#c9c9c9" stroke="none" transform="matrix(1 0 0 1 580 376 )" />
  </g>
</svg>