<?xml version="1.0" encoding="utf-8"?>
<svg version="1.1" xmlns:xlink="http://www.w3.org/1999/xlink" width="2px" height="12px" xmlns="http://www.w3.org/2000/svg">
  <g transform="matrix(1 0 0 1 -14 -9 )">
    <path d="M 1.77909930715936 9.16193181818182  C 1.83614318706698 9.26988636363636  1.86466512702079 9.39772727272727  1.86466512702079 9.54545454545455  L 1.86466512702079 11.4545454545455  C 1.86466512702079 11.6022727272727  1.83614318706698 11.7301136363636  1.77909930715936 11.8380681818182  C 1.72205542725173 11.9460227272727  1.65450346420323 12  1.57644341801386 12  L 0.423556581986142 12  C 0.345496535796766 12  0.277944572748266 11.9460227272727  0.220900692840644 11.8380681818182  C 0.163856812933025 11.7301136363636  0.135334872979215 11.6022727272727  0.135334872979215 11.4545454545455  L 0.135334872979215 9.54545454545455  C 0.135334872979215 9.39772727272727  0.163856812933025 9.26988636363636  0.220900692840644 9.16193181818182  C 0.277944572748266 9.05397727272727  0.345496535796766 9  0.423556581986142 9  L 1.57644341801386 9  C 1.65450346420323 9  1.72205542725173 9.05397727272727  1.77909930715936 9.16193181818182  Z M 1.9209584295612 0.161931818181818  C 1.97650115473441 0.269886363636362  2.00277136258661 0.397727272727272  1.99976905311778 0.545454545454545  L 1.87367205542725 7.09090909090909  C 1.87066974595843 7.23863636363636  1.839896073903 7.36647727272727  1.78135103926097 7.47443181818182  C 1.72280600461894 7.58238636363636  1.65450346420323 7.63636363636363  1.57644341801386 7.63636363636363  L 0.423556581986142 7.63636363636363  C 0.345496535796766 7.63636363636363  0.277193995381062 7.58238636363636  0.218648960739028 7.47443181818182  C 0.160103926096998 7.36647727272727  0.129330254041568 7.23863636363636  0.126327944572745 7.09090909090909  L 0.000230946882217253 0.545454545454545  C -0.00277136258660526 0.397727272727272  0.0234988452655891 0.269886363636362  0.0790415704387968 0.161931818181818  C 0.134584295612008 0.0539772727272716  0.201385681293301 0  0.279445727482678 0  L 1.72055427251732 0  C 1.7986143187067 0  1.86541570438799 0.0539772727272716  1.9209584295612 0.161931818181818  Z " fill-rule="nonzero" fill="#f6c92e" stroke="none" transform="matrix(1 0 0 1 14 9 )" />
  </g>
</svg>