<?xml version="1.0" encoding="utf-8"?>
<svg version="1.1" xmlns:xlink="http://www.w3.org/1999/xlink" width="18px" height="18px" xmlns="http://www.w3.org/2000/svg">
  <g transform="matrix(1 0 0 1 -1398 -12 )">
    <path d="M 16.7142857142858 9  C 16.7142857142858 13.2602142857143  13.2602142857143 16.7142857142857  9 16.7142857142857  C 4.73978571428574 16.7142857142857  1.28571428571422 13.2602142857143  1.28571428571422 9  C 1.28571428571422 4.73978571428574  4.73978571428574 1.28571428571431  9 1.28571428571431  C 13.2602142857143 1.28571428571431  16.7142857142858 4.73978571428574  16.7142857142858 9  Z M 18 9  C 18 4.03714285714284  13.962857142857 0  9 0  C 4.03714285714295 0  0 4.03714285714284  0 9  C 0 13.9628571428572  4.03714285714295 18  9 18  C 13.962857142857 18  18 13.9628571428572  18 9  Z " fill-rule="nonzero" fill="#181818" stroke="none" transform="matrix(1 0 0 1 1398 12 )" />
  </g>
</svg>