<?xml version="1.0" encoding="utf-8"?>
<svg version="1.1" xmlns:xlink="http://www.w3.org/1999/xlink" width="1072px" height="32px" xmlns="http://www.w3.org/2000/svg">
  <g transform="matrix(1 0 0 1 -441 -3766 )">
    <path d="M 442 3770  A 3 3 0 0 1 445 3767 L 1509 3767  A 3 3 0 0 1 1512 3770 L 1512 3794  A 3 3 0 0 1 1509 3797 L 445 3797  A 3 3 0 0 1 442 3794 L 442 3770  Z " fill-rule="nonzero" fill="#ffffff" stroke="none" />
    <path d="M 441.5 3770  A 3.5 3.5 0 0 1 445 3766.5 L 1509 3766.5  A 3.5 3.5 0 0 1 1512.5 3770 L 1512.5 3794  A 3.5 3.5 0 0 1 1509 3797.5 L 445 3797.5  A 3.5 3.5 0 0 1 441.5 3794 L 441.5 3770  Z " stroke-width="1" stroke-dasharray="9,4" stroke="#d9d9d9" fill="none" stroke-dashoffset="0.5" />
  </g>
</svg>