<!-- Generator: Adobe Illustrator 23.0.0, SVG Export Plug-In  -->
<svg version="1.1" xmlns="http://www.w3.org/2000/svg" xmlns:xlink="http://www.w3.org/1999/xlink" x="0px" y="0px" width="16.25px"
	 height="20px" viewBox="0 0 16.25 20" style="enable-background:new 0 0 16.25 20;" xml:space="preserve">
<style type="text/css">
	.st0{fill:#42A0F8;}
	.st1{fill:#7AC5FC;}
	.st2{fill:#FFFFFF;}
</style>
<defs>
</defs>
<g>
	<g>
		<path class="st0" d="M11.25,0.02C11.17,0.02,2.5,0,2.5,0C1.12,0,0,1.12,0,2.5v15C0,18.88,1.12,20,2.5,20h11.25
			c1.38,0,2.5-1.12,2.5-2.5V5L11.25,0.02z"/>
		<path class="st1" d="M12.49,5c-0.69,0-1.25-0.56-1.25-1.25V0.02l5,4.98H12.49z"/>
	</g>
	<g>
		<path class="st2" d="M5.59,13.73l1.63-6.29h2.04l1.45,6.29h0.05l1.36-6.29h1.67l-2.13,8.37H9.66L8.17,9.43l-1.63,6.38H4.51
			L2.47,7.44h1.85L5.59,13.73z"/>
	</g>
</g>
</svg>