<?xml version="1.0" encoding="utf-8"?>
<svg version="1.1" xmlns:xlink="http://www.w3.org/1999/xlink" width="15px" height="11px" xmlns="http://www.w3.org/2000/svg">
  <g transform="matrix(1 0 0 1 -225 -24 )">
    <path d="M 15 10.2894736842105  C 15 10.6842105263158  14.6774193548387 11  14.2831541218638 11  L 0.716845878136198 11  C 0.322580645161284 11  0 10.6842105263158  0 10.2982456140351  L 0 0.701754385964913  C 0 0.315789473684211  0.322580645161284 0  0.716845878136198 0  L 4.33691756272401 0  L 4.33691756272401 1.05263157894737  L 1.0752688172043 1.05263157894737  L 1.0752688172043 10  L 13.9247311827957 10  L 13.9247311827957 1.05263157894737  L 10.4301075268817 1.05263157894737  L 10.4301075268817 0  L 14.2831541218638 0  C 14.6774193548387 0  15 0.315789473684211  15 0.701754385964913  L 15 10.2894736842105  Z " fill-rule="nonzero" fill="#666666" stroke="none" transform="matrix(1 0 0 1 225 24 )" />
  </g>
</svg>