<?xml version="1.0" encoding="utf-8"?>
<svg version="1.1" xmlns:xlink="http://www.w3.org/1999/xlink" width="7px" height="7px" xmlns="http://www.w3.org/2000/svg">
  <g transform="matrix(1 0 0 1 -284 -324 )">
    <path d="M 0 3.9375  C 0 4.01770833333336  0.0656249999999545 4.08333333333331  0.145833333333371 4.08333333333331  L 2.91666666666663 4.08333333333331  L 2.91666666666663 6.85416666666669  C 2.91666666666663 6.93437499999999  2.9822916666667 7  3.0625 7  L 3.9375 7  C 4.0177083333333 7  4.08333333333337 6.93437499999999  4.08333333333337 6.85416666666669  L 4.08333333333337 4.08333333333331  L 6.85416666666663 4.08333333333331  C 6.93437500000005 4.08333333333331  7 4.01770833333336  7 3.9375  L 7 3.0625  C 7 2.98229166666664  6.93437500000005 2.91666666666669  6.85416666666663 2.91666666666669  L 4.08333333333337 2.91666666666669  L 4.08333333333337 0.145833333333314  C 4.08333333333337 0.0656250000000114  4.0177083333333 0  3.9375 0  L 3.0625 0  C 2.9822916666667 0  2.91666666666663 0.0656250000000114  2.91666666666663 0.145833333333314  L 2.91666666666663 2.91666666666669  L 0.145833333333371 2.91666666666669  C 0.0656249999999545 2.91666666666669  0 2.98229166666664  0 3.0625  L 0 3.9375  Z " fill-rule="nonzero" fill="#1890ff" stroke="none" transform="matrix(1 0 0 1 284 324 )" />
  </g>
</svg>