<?xml version="1.0" encoding="utf-8"?>
<svg version="1.1" xmlns:xlink="http://www.w3.org/1999/xlink" width="60px" height="60px" xmlns="http://www.w3.org/2000/svg">
  <g transform="matrix(1 0 0 1 -30 -234 )">
    <path d="M 31 238  A 3 3 0 0 1 34 235 L 86 235  A 3 3 0 0 1 89 238 L 89 290  A 3 3 0 0 1 86 293 L 34 293  A 3 3 0 0 1 31 290 L 31 238  Z " fill-rule="nonzero" fill="#f6f6f6" stroke="none" />
    <path d="M 30.5 238  A 3.5 3.5 0 0 1 34 234.5 L 86 234.5  A 3.5 3.5 0 0 1 89.5 238 L 89.5 290  A 3.5 3.5 0 0 1 86 293.5 L 34 293.5  A 3.5 3.5 0 0 1 30.5 290 L 30.5 238  Z " stroke-width="1" stroke="#000000" fill="none" stroke-opacity="0.0470588235294118" />
  </g>
</svg>