<?xml version="1.0" encoding="utf-8"?>
<svg version="1.1" xmlns:xlink="http://www.w3.org/1999/xlink" width="16px" height="15px" xmlns="http://www.w3.org/2000/svg">
  <g transform="matrix(1 0 0 1 -1141 -16 )">
    <path d="M 5.48297872340424 7.64255319148936  L 7.86595744680847 10.6595744680851  C 7.93404255319149 10.7468085106383  8.06595744680851 10.7468085106383  8.13404255319153 10.6595744680851  L 10.5170212765958 7.64468085106387  C 10.6042553191489 7.53404255319151  10.5255319148936 7.37021276595749  10.3829787234042 7.37021276595749  L 8.80638297872338 7.37021276595749  L 8.80638297872338 0.170212765957444  C 8.80638297872338 0.0765957446808443  8.72978723404253 0  8.63617021276593 0  L 7.35957446808516 0  C 7.26595744680856 0  7.18936170212771 0.0765957446808443  7.18936170212771 0.170212765957444  L 7.18936170212771 7.36808510638298  L 5.61702127659578 7.36808510638298  C 5.47446808510642 7.36808510638298  5.39574468085107 7.531914893617  5.48297872340424 7.64255319148936  Z M 15.9574468085107 10.0851063829788  C 15.9574468085107 9.99148936170218  15.8808510638298 9.91489361702133  15.7872340425532 9.91489361702133  L 14.5106382978723 9.91489361702133  C 14.4170212765957 9.91489361702133  14.3404255319149 9.99148936170218  14.3404255319149 10.0851063829788  L 14.3404255319149 13.3617021276596  L 1.65957446808511 13.3617021276596  L 1.65957446808511 10.0851063829788  C 1.65957446808511 9.99148936170218  1.58297872340427 9.91489361702133  1.48936170212767 9.91489361702133  L 0.212765957446777 9.91489361702133  C 0.119148936170177 9.91489361702133  0.0425531914893327 9.99148936170218  0.0425531914893327 10.0851063829788  L 0.0425531914893327 14.2978723404256  C 0.0425531914893327 14.6744680851064  0.346808510638311 14.9787234042553  0.72340425531911 15  L 15.2765957446809 15  C 15.6531914893617 14.9787234042553  15.9574468085107 14.6744680851064  15.9574468085107 14.2978723404256  L 15.9574468085107 10.0851063829788  Z " fill-rule="nonzero" fill="#1890ff" stroke="none" transform="matrix(1 0 0 1 1141 16 )" />
  </g>
</svg>