<?xml version="1.0" encoding="utf-8"?>
<svg version="1.1" xmlns:xlink="http://www.w3.org/1999/xlink" width="12px" height="12px" xmlns="http://www.w3.org/2000/svg">
  <g transform="matrix(1 0 0 1 -77 -8 )">
    <path d="M 12 0  L 0 12  L 11.2561821151482 12  C 11.6669638648512 12  12 11.6523177748241  12 11.2234119079196  L 12 0  Z M 10.7002883266059 7.14494796801539  C 10.7002883266059 7.25843011827759  10.6569157979624 7.36721940672269  10.5797951045591 7.44717549080222  L 8.06737954475935 10.0704862640738  C 8.0165276744651 10.124161723663  7.9472264243988 10.154365090098  7.87492061770335 10.154365090098  C 7.8026148110079 10.154365090098  7.73331356094166 10.124161723663  7.68246169064742 10.0704862640738  L 7.29789021452898 9.66854776003319  L 6.02436286693026 8.37889631458645  C 5.86367572500207 8.21114395396183  5.86367572500207 7.94191230234988  6.02436286693026 7.77452165729712  C 6.18505000885845 7.60713101224429  6.44284220002792 7.60713101224429  6.60318294371952 7.77452165729712  L 7.68246169064742 8.86133502921212  C 7.73331356094166 8.91501048880125  7.8026148110079 8.94521385523634  7.87492061770335 8.94521385523634  C 7.9472264243988 8.94521385523634  8.0165276744651 8.91501048880125  8.06737954475935 8.86133502921212  L 10.0006286295332 6.84235872965683  C 10.1613157714614 6.67424467459851  10.4191079626309 6.67500826817705  10.5797951045591 6.84272044522863  C 10.6569157979624 6.92267652930816  10.7002883266059 7.0314658177532  10.7002883266059 7.14494796801539  Z " fill-rule="nonzero" fill="#1890ff" stroke="none" transform="matrix(1 0 0 1 77 8 )" />
  </g>
</svg>