<?xml version="1.0" encoding="utf-8"?>
<svg version="1.1" xmlns:xlink="http://www.w3.org/1999/xlink" width="14px" height="15px" xmlns="http://www.w3.org/2000/svg">
  <g transform="matrix(1 0 0 1 -833 -109 )">
    <path d="M 7.52995283018868 3.31839622641508  C 7.52995283018868 3.24575471698114  7.47051886792451 3.18632075471697  7.39787735849052 3.18632075471697  L 6.60377358490564 3.18632075471697  C 6.53113207547165 3.18632075471697  6.47169811320759 3.24575471698114  6.47169811320759 3.31839622641508  L 6.47169811320759 7.86344339622639  C 6.47169811320759 7.9063679245283  6.49150943396228 7.94599056603772  6.52617924528306 7.97075471698111  L 9.25518867924529 9.96344339622641  C 9.31462264150946 10.0063679245283  9.39716981132074 9.99481132075471  9.44009433962265 9.93537735849054  L 9.91226415094343 9.29150943396223  C 9.9568396226415 9.23042452830185  9.94363207547167 9.14787735849058  9.8841981132075 9.10660377358488  L 7.52995283018868 7.40448113207543  L 7.52995283018868 3.31839622641508  Z M 10.9771226415095 4.19504716981129  C 10.8896226415094 4.2643867924528  10.9193396226415 4.4014150943396  11.0266509433962 4.42783018867925  L 13.6153301886792 5.06014150943395  C 13.6978773584906 5.07995283018869  13.7787735849057 5.01721698113209  13.7787735849057 4.93301886792455  L 13.7919811320754 2.26674528301885  C 13.7919811320754 2.1561320754717  13.6648584905661 2.09339622641511  13.5790094339623 2.16273584905662  L 10.9771226415095 4.19504716981129  Z M 13.876179245283 9.57051886792453  C 13.9009433962265 9.50117924528303  13.8646226415094 9.42358490566039  13.795283018868 9.39882075471695  L 12.8591981132075 9.0768867924528  C 12.7915094339622 9.05377358490563  12.7172169811321 9.08844339622641  12.6924528301887 9.1561320754717  C 12.6610849056603 9.24033018867925  12.6280660377358 9.32287735849053  12.5933962264151 9.40542452830186  C 12.2995283018868 10.1004716981132  11.878537735849 10.726179245283  11.3403301886792 11.2627358490566  C 10.8037735849057 11.7992924528302  10.1780660377359 12.2219339622641  9.48301886792456 12.5158018867924  C 8.76320754716983 12.8195754716981  7.99882075471703 12.9747641509434  7.20966981132074 12.9747641509434  C 6.42051886792456 12.9747641509434  5.65613207547165 12.8212264150943  4.93632075471703 12.5158018867924  C 4.24127358490568 12.2219339622641  3.6155660377359 11.7992924528302  3.07900943396226 11.2627358490566  C 2.54245283018872 10.726179245283  2.12146226415098 10.1004716981132  1.82594339622642 9.40542452830186  C 1.52382075471701 8.68726415094341  1.37028301886789 7.92122641509434  1.37028301886789 7.1320754716981  C 1.37028301886789 6.34292452830186  1.52382075471701 5.5768867924528  1.82924528301885 4.85707547169812  C 2.12311320754714 4.16202830188678  2.54410377358488 3.536320754717  3.08231132075468 2.99976415094341  C 3.61886792452833 2.46320754716982  4.24457547169811 2.04056603773586  4.93962264150946 1.74669811320757  C 5.65613207547165 1.44127358490567  6.42216981132071 1.28773584905662  7.21132075471701 1.28773584905662  C 8.00047169811319 1.28773584905662  8.76485849056598 1.44127358490567  9.48466981132071 1.74669811320757  C 10.1797169811321 2.04056603773586  10.8054245283018 2.46320754716982  11.3419811320755 2.99976415094341  C 11.5103773584906 3.16981132075472  11.6688679245283 3.34646226415094  11.8141509433963 3.53301886792451  L 12.8014150943396 2.76037735849059  C 11.5021226415095 1.09952830188678  9.47971698113213 0.031367924528297  7.20801886792458 0.0330188679245111  C 3.25235849056605 0.0346698113207822  0.0759433962264211 3.24740566037735  0.115566037735903 7.20471698113204  C 0.155188679245271 11.0926886792453  3.31674528301892 14.2311320754717  7.21132075471701 14.2311320754717  C 10.273820754717 14.2311320754717  12.8823113207548 12.2896226415094  13.876179245283 9.57051886792453  Z " fill-rule="nonzero" fill="#999999" stroke="none" transform="matrix(1 0 0 1 833 109 )" />
  </g>
</svg>