<?xml version="1.0" encoding="utf-8"?>
<svg version="1.1" xmlns:xlink="http://www.w3.org/1999/xlink" width="12px" height="15px" xmlns="http://www.w3.org/2000/svg">
  <g transform="matrix(1 0 0 1 -1035 -108 )">
    <path d="M 11.7857142857142 4.14006696428574  C 11.7857142857142 3.99776785714288  11.7287946428571 3.86049107142855  11.6283482142858 3.76004464285715  L 8.02566964285711 0.157366071428569  C 7.92522321428578 0.0569196428571672  7.78962053571422 0  7.64732142857133 0  L 0.535714285714221 0  C 0.239397321428669 0  0 0.239397321428555  0 0.535714285714278  L 0 14.4642857142857  C 0 14.7606026785714  0.239397321428669 15  0.535714285714221 15  L 11.25 15  C 11.5463169642858 15  11.7857142857142 14.7606026785714  11.7857142857142 14.4642857142857  L 11.7857142857142 4.14006696428574  Z M 7.39955357142844 1.23549107142856  L 10.5502232142858 4.38616071428572  L 7.39955357142844 4.38616071428572  L 7.39955357142844 1.23549107142856  Z M 10.5803571428571 5.5245535714286  L 10.5803571428571 13.7946428571429  L 1.20535714285711 13.7946428571429  L 1.20535714285711 1.20535714285714  L 6.26116071428578 1.20535714285714  L 6.26116071428578 4.8214285714286  C 6.26116071428578 5.20982142857144  6.57589285714289 5.5245535714286  6.96428571428578 5.5245535714286  L 10.5803571428571 5.5245535714286  Z " fill-rule="nonzero" fill="#999999" stroke="none" transform="matrix(1 0 0 1 1035 108 )" />
  </g>
</svg>