<?xml version="1.0" encoding="utf-8"?>
<svg version="1.1" xmlns:xlink="http://www.w3.org/1999/xlink" width="18px" height="9px" xmlns="http://www.w3.org/2000/svg">
  <g transform="matrix(1 0 0 1 -49 -1333 )">
    <path d="M 0.254032258064626 7.51607143800004  C 0.254032258064626 8.239285752  0.720622106129213 8.72142859500002  1.42050692612906 8.72142856199997  L 16.5846774193549 8.72142856199997  C 17.2845622074194 8.72142856199997  17.7511520874193 8.23928571900001  17.7511520874193 7.51607143800004  C 17.7511520874193 6.79285715700001  17.284562239355 6.31071428099995  16.5846774193549 6.31071428099995  L 1.42050692612906 6.31071428099995  C 0.720622138064527 6.31071428099995  0.254032258064626 6.79285712399997  0.254032258064626 7.51607143800004  Z M 9.58582950677419 1.48928571900001  C 9.58582953870973 2.21250003300003  10.0524193548388 2.69464287599999  10.7523041429033 2.694642843  L 16.5846774193549 2.694642843  C 17.2845622074194 2.694642843  17.7511520874193 2.21249999999998  17.7511520874193 1.48928571900001  C 17.7511520874193 0.76607143800004  17.284562239355 0.283928561999971  16.5846774193549 0.283928561999971  L 10.7523041429033 0.283928561999971  C 10.0524193548388 0.283928561999971  9.58582947483865 0.766071404999991  9.58582950677419 1.48928571900001  Z " fill-rule="nonzero" fill="#bae7ff" stroke="none" transform="matrix(1 0 0 1 49 1333 )" />
  </g>
</svg>