<?xml version="1.0" encoding="utf-8"?>
<svg version="1.1" xmlns:xlink="http://www.w3.org/1999/xlink" width="12px" height="11px" xmlns="http://www.w3.org/2000/svg">
  <g transform="matrix(1 0 0 1 -306 -160 )">
    <path d="M 8.32881700635342 5.67362840091115  L 12 5.67362840091115  L 12 6.53861549569043  L 8.32881700635342 6.53861549569043  L 8.32881700635342 5.67362840091115  Z M 8.32881700635342 7.55708676905905  L 12 7.55708676905905  L 12 8.42208913740524  L 8.32881700635342 8.42208913740524  L 8.32881700635342 7.55708676905905  Z M 8.32881700635342 9.28707623218452  L 12 9.28707623218452  L 12 10.1520786005307  L 8.32881700635342 10.1520786005307  L 8.32881700635342 9.28707623218452  Z M 10.5456129476391 0.801353637615719  C 10.6663513084728 0.654943240599414  10.6918877578489 0.452217619714442  10.6102051398615 0.280766351553274  C 10.5285792034361 0.10923868569713  10.3551524431618 0  10.1641675961511 0  L 0.493393550640837 0  C 0.300651478263706 0  0.125510007256652 0.111484571893555  0.045074452879183 0.285762300956646  C -0.0354177830604844 0.459841413928872  -0.00656528919161774 0.664537907224614  0.119303036911797 0.809817731824237  L 3.55524462694118 4.78059066142168  L 3.55524462694118 9.25849083346962  C 3.55524462694118 9.44463967741831  3.66121663069478 9.61497564672983  3.8290174308713 9.6977373130156  L 6.52414699813004 10.9490474105823  C 6.59333064616038 10.983132935711  6.66872126453551 11  6.74353085881522 11  C 6.83136376558542 11  6.91925335391776 10.9766397288433  6.99746403580605 10.9302094589524  C 7.14138642962541 10.844331044412  7.23155757200914 10.691442714095  7.23660250801147 10.5244068206318  L 7.25475577192328 4.78088093384422  L 10.5456129476391 0.801353637615719  Z M 6.25829587527749 5.08923960365844  L 6.24527257663545 9.73098253815018  L 4.5414871215296 8.95439475789354  L 4.5414871215296 5.08923960365844  L 6.25829587527749 5.08923960365844  Z M 9.12007838914705 0.980428699991317  L 6.5333866051567 4.10873450597208  L 6.44254940940999 4.10873450597208  L 4.27478571985071 4.10873450597208  L 1.56804996224649 0.980428699991317  L 9.12007838914705 0.980428699991317  Z " fill-rule="nonzero" fill="#000000" stroke="none" transform="matrix(1 0 0 1 306 160 )" />
  </g>
</svg>