<?xml version="1.0" encoding="utf-8"?>
<svg version="1.1" xmlns:xlink="http://www.w3.org/1999/xlink" width="64px" height="64px" xmlns="http://www.w3.org/2000/svg">
  <g transform="matrix(1 0 0 1 -329 -1305 )">
    <path d="M 361 1305  C 378.92 1305  393 1319.08  393 1337  C 393 1354.92  378.92 1369  361 1369  C 343.08 1369  329 1354.92  329 1337  C 329 1319.08  343.08 1305  361 1305  Z " fill-rule="nonzero" fill="#ffc53d" stroke="none" fill-opacity="0.0784313725490196" />
    <path d="M 361 1305.5  C 378.64 1305.5  392.5 1319.36  392.5 1337  C 392.5 1354.64  378.64 1368.5  361 1368.5  C 343.36 1368.5  329.5 1354.64  329.5 1337  C 329.5 1319.36  343.36 1305.5  361 1305.5  Z " stroke-width="1" stroke="#ffc53d" fill="none" />
  </g>
</svg>