<?xml version="1.0" encoding="utf-8"?>
<svg version="1.1" xmlns:xlink="http://www.w3.org/1999/xlink" width="30px" height="30px" xmlns="http://www.w3.org/2000/svg">
  <g transform="matrix(1 0 0 1 -346 -1320 )">
    <path d="M 1.43973212812489 29.8603723404255  L 28.18359375 29.8603723404255  C 29.0625 29.8603723404255  29.815848209375 28.9627659574468  29.6902901687502 27.9369300861702  L 29.188058040625 24.6029635308511  C 28.8113839187502 23.1924392297873  27.6813616218751 22.0383738702128  26.300223209375 22.0383738698139  L 19.0178571281249 22.0383738698139  L 18.390066959375 18.1914893617021  C 21.7801339187502 16.7809650606383  24.0401785812498 13.5752279585107  24.0401785812498 9.60011399680852  C 24.0401785812498 4.47093467553191  19.8967634124999 0.239361702127638  14.874441959375 0.239361702127638  C 9.85212050624978 0.239361702127638  5.70870537187511 4.4709346404255  5.70870537187511 9.60011399680852  C 5.70870537187511 13.4469985053192  7.96875 16.7809650606383  11.358816959375 18.1914893617021  L 10.8565848312498 22.0383738702128  L 3.57421875 22.0383738702128  C 2.19308037187511 22.0383738702128  0.811941959374963 23.1924392297873  0.686383918750153 24.4747340425532  L 0.05859375 27.9369300861702  C -0.192522331249847 28.8345364691489  0.560825878124888 29.8603723404255  1.43973212812489 29.8603723404255  Z " fill-rule="nonzero" fill="#ffc53d" stroke="none" transform="matrix(1 0 0 1 346 1320 )" />
  </g>
</svg>