<?xml version="1.0" encoding="utf-8"?>
<svg version="1.1" xmlns:xlink="http://www.w3.org/1999/xlink" width="6px" height="6px" xmlns="http://www.w3.org/2000/svg">
  <g transform="matrix(1 0 0 1 -361 -1321 )">
    <path d="M 5.30357143762512 5.8125  C 5.06249999962506 5.8125  4.94196428062492 5.94642857666668  4.82142856199994 5.94642857666668  C 4.45982140500018 5.94642857666668  4.21875 5.8125  3.97767856199994 5.41071426999997  C 3.61607140500018 4.60714284666665  3.13392856199994 3.9375  2.77232143800006 3.53571426999997  C 2.29017859499982 3.13392854  1.6875 2.73214284666665  0.723214281000082 2.33035715333335  C 0.241071438000063 2.19642857666668  0 1.52678573000003  0.120535718999918 0.991071423333324  C 0.241071438000063 0.455357153333352  0.84375 0.1875  1.32589284300002 0.321428576666676  C 2.53125 0.723214306666648  3.375 1.25892857666668  3.97767856199994 1.92857142333332  C 4.58035712399987 2.46428569333335  5.18303571899992 3.40178569333335  5.66517856199994 4.47321426999997  C 5.90625 5.00892854  5.66517856199994 5.54464284666665  5.30357143762512 5.8125  Z " fill-rule="nonzero" fill="#fff1b8" stroke="none" transform="matrix(1 0 0 1 361 1321 )" />
  </g>
</svg>