<?xml version="1.0" encoding="utf-8"?>
<svg version="1.1" xmlns:xlink="http://www.w3.org/1999/xlink" width="4px" height="7px" xmlns="http://www.w3.org/2000/svg">
  <g transform="matrix(1 0 0 1 -955 -1335 )">
    <path d="M 1.88235294117658 6.97222223444442  C 1.12605041647066 6.97222223444442  0.369747891764746 6.45138890925926  0.0861344611764707 5.61805554333336  C -0.00840335764701194 5.40972220185188  0.0861344611764707 5.09722221814815  0.275210072941263 4.99305554740738  C 0.464285710588229 4.88888887666667  0.747899141176504 4.99305554740738  0.842436985882387 5.20138888888891  C 1.03151262352935 5.72222221407407  1.40966387294111 6.03472222629631  1.88235294117658 6.03472222629631  C 2.54411764705878 6.03472222629631  3.01680671529402 5.5138889011111  3.01680671529402 4.78472223444442  C 3.01680671529402 4.05555556777779  2.54411764705878 3.53472224259258  1.88235294117658 3.53472221407407  C 1.69327730352938 3.53472221407407  1.50420169176459 3.32638887259259  1.50420169176459 3.11805555962962  L 1.50420169176459 0.51388887666667  C 1.50420169176459 0.305555535185192  1.69327732941179 0.0972222222222285  1.88235294117658 0.0972222222222285  C 2.07142855294114 0.0972222222222285  2.26050419058834 0.305555563703706  2.26050419058834 0.51388887666667  L 2.26050419058834 2.59722223444442  C 3.20588235294122 2.80555557592595  3.86764705882342 3.63888891333335  3.86764705882342 4.78472223444442  C 3.86764705882342 6.03472222629631  3.01680671529402 6.97222223444442  1.88235294117658 6.97222223444442  Z " fill-rule="nonzero" fill="#d46b08" stroke="none" transform="matrix(1 0 0 1 955 1335 )" />
  </g>
</svg>