<?xml version="1.0" encoding="utf-8"?>
<svg version="1.1" xmlns:xlink="http://www.w3.org/1999/xlink" width="5px" height="8px" xmlns="http://www.w3.org/2000/svg">
  <g transform="matrix(1 0 0 1 -955 -1335 )">
    <path d="M 4.20758929749991 7.25123152275864  C 3.70535716249992 7.6945812634483  3.10267859500004 7.91625614896554  2.5 7.91625614896554  C 1.49553570250009 7.91625614896554  0.691964297499908 7.25123152275864  0.290178567500107 6.3645320110345  C 0.189732134999986 6.14285712551725  0.189732134999986 5.92118227034484  0.290178567500107 5.81034482758622  C 0.390625 5.58866994206898  0.491071432499893 5.47783249931035  0.691964297499908 5.36699508689657  C 0.892857162499922 5.25615764413794  1.09375 5.25615764413794  1.19419643249989 5.36699508689657  C 1.39508929749991 5.47783252965519  1.49553573000003 5.58866997241381  1.59598213499999 5.81034482758622  C 1.796875 6.25369456827588  2.09821426999997 6.47536945379312  2.5 6.47536945379312  C 3.00223213499999 6.47536945379312  3.50446429749991 6.03201971310347  3.50446429749991 5.36699508689657  C 3.50446429749991 4.70197046068967  3.10267859500004 4.25862068965517  2.5 4.25862068965517  C 2.09821429749991 4.25862068965517  1.796875 3.92610836137931  1.796875 3.48275862068965  L 1.796875 0.822660085517214  C 1.796875 0.379310344827559  2.09821429749991 0.0467980165517474  2.5 0.0467980165517474  C 2.90178570250009 0.0467980165517474  3.203125 0.379310344827559  3.203125 0.822660085517214  L 3.203125 2.81773399448275  C 4.20758929749991 3.15024632275862  4.91071429749991 4.14778324689655  4.91071429749991 5.36699508689657  C 4.91071429749991 6.03201971310347  4.70982143249989 6.69704433931037  4.20758929749991 7.25123152275864  Z M 0.691964297499908 6.0320197127586  C 0.792410730000029 6.0320197127586  0.792410730000029 6.0320197127586  0.792410702500092 6.14285715586209  C 1.09375 6.91871922482761  1.796875 7.36206896551727  2.5 7.36206896551727  C 3.00223213499999 7.36206896551727  3.50446429749991 7.14039408000002  3.80580356750011 6.69704433931037  C 4.10714286500001 6.25369459862071  4.30803570250009 5.81034482758622  4.30803570250009 5.25615764413794  C 4.30803570250009 4.25862068965517  3.70535713499999 3.48275862068965  2.80133929749991 3.26108373551722  L 2.60044643249989 3.26108373551722  L 2.60044643249989 0.822660085517214  C 2.60044643249989 0.711822642758648  2.5 0.600985200000025  2.39955356750011 0.600985229999992  C 2.29910713499999 0.600985260000016  2.29910713499999 0.711822672758615  2.29910713499999 0.822660085517214  L 2.29910713499999 3.48275862068965  C 2.29910713499999 3.59359606344827  2.39955356750011 3.7044335062069  2.5 3.70443350586208  C 3.30357143249989 3.70443350586208  4.00669643249989 4.48029557482761  4.00669643249989 5.36699508689657  C 4.00669643249989 6.25369459896552  3.30357143249989 7.02955666758623  2.5 7.0295566372414  C 1.89732143249989 7.0295566372414  1.39508929749991 6.58620689655174  1.09375 6.0320197127586  C 1.09375 5.92118226999997  1.09375 5.92118226999997  0.993303567500107 5.92118227034484  L 0.792410702500092 5.92118227034484  C 0.691964269999971 5.92118227034484  0.691964269999971 5.92118227034484  0.691964297499908 6.0320197127586  Z " fill-rule="nonzero" fill="#d46b09" stroke="none" transform="matrix(1 0 0 1 955 1335 )" />
  </g>
</svg>