<?xml version="1.0" encoding="utf-8"?>
<svg version="1.1" xmlns:xlink="http://www.w3.org/1999/xlink" width="9px" height="13px" xmlns="http://www.w3.org/2000/svg">
  <g transform="matrix(1 0 0 1 -665 -1333 )">
    <path d="M 0.259978979117705 1.28607142040005  C 0.259978979117705 0.659285681599954  0.685399134705904 0.241428551000013  1.32352941176464 0.241428579599983  L 7.70483192029405 0.241428579599983  C 8.34296216823532 0.241428579599983  8.76838235294122 0.659285710200038  8.76838235294122 1.28607142040005  C 8.76838235294122 1.91285713059995  8.34296219735302 2.33071428979997  7.70483192029405 2.33071428979997  L 1.32352941176464 2.33071428979997  C 0.685399163823604 2.33071428979997  0.259978979117705 1.91285715920003  0.259978979117705 1.28607142040005  Z M 0.259978979117705 6.50928571019995  C 0.259978979117705 5.88249997139997  0.685399134705904 5.46464284080002  1.32352941176464 5.4646428694  L 7.70483192029405 5.4646428694  C 8.34296216823532 5.4646428694  8.76838235294122 5.88250000000005  8.76838235294122 6.50928571019995  C 8.76838235294122 7.13607142039996  8.34296219735302 7.55392857959998  7.70483192029405 7.55392857959998  L 1.32352941176464 7.55392857959998  C 0.685399163823604 7.55392857959998  0.259978979117705 7.13607144900004  0.259978979117705 6.50928571019995  Z M 0.259978979117705 11.7325  C 0.259978979117705 11.1057142612  0.685399134705904 10.6878571306  1.32352941176464 10.6878571306  L 7.70483192029405 10.6878571306  C 8.34296216823532 10.6878571306  8.76838235294122 11.1057142612  8.76838235294122 11.7325  C 8.76838235294122 12.3592857388001  8.34296219735302 12.7771428694  7.70483192029405 12.7771428694  L 1.32352941176464 12.7771428694  C 0.685399163823604 12.7771428694  0.259978979117705 12.3592857388001  0.259978979117705 11.7325  Z " fill-rule="nonzero" fill="#b5f5ec" stroke="none" transform="matrix(1 0 0 1 665 1333 )" />
  </g>
</svg>