<?xml version="1.0" encoding="utf-8"?>
<svg version="1.1" xmlns:xlink="http://www.w3.org/1999/xlink" width="16px" height="11px" xmlns="http://www.w3.org/2000/svg">
  <g transform="matrix(1 0 0 1 -1019 -30 )">
    <path d="M 15.9999244713962 7.36596947331811  C 16.0106386714162 5.65372072068518  14.8802905693 4.21095865610047  13.3463742664283 3.79297930320935  C 12.5285236648971 1.5765887872209  10.4446117609957 0  8.00355985642569 0  C 5.56250795185566 0  3.47859604795426 1.57475554444506  2.66074544642321 3.79114606043351  C 1.12325774354472 4.2072921705488  -0.00887605857477338 5.6500542351335  5.2441441927964E-05 7.36230298776644  C 0.0107666414619464 9.27620844574158  1.45718364416988 10.8326315624283  3.27859764757984 10.9994566550295  C 3.36252554773702 11.0067896261329  3.43395354787075 10.9389596434269  3.43395354787075 10.8527972329625  L 3.43395354787075 9.74551859635617  C 3.43395354787075 9.67218888532264  3.38038254777043 9.60985863094414  3.3089545476367 9.60069241706495  C 2.82681554673402 9.53836216268645  2.37146204588155 9.32203951513753  2.02146484522631 8.96822365940075  C 1.59289684442395 8.53741160707876  1.35718444398273 7.95810688991387  1.35718444398273 7.34397056000805  C 1.35718444398273 6.83066258277334  1.5196831442869 6.34668648995204  1.82503784485853 5.94337307926763  C 2.12324974541689 5.55105912523824  2.54288924620254 5.26690649498331  3.00538554706839 5.14224598622631  L 3.68216584833542 4.95892170864248  L 3.93037814880008 4.28612160990984  C 4.08394834908767 3.86814225701872  4.29823234948873 3.47582830298933  4.56787304999355 3.12201244725255  C 4.83394235049174 2.77002983429161  5.1500112510835 2.46204504795078  5.50357985174538 2.20539105933342  C 6.23750255311937 1.67558389711617  7.10178135473747 1.39509775241291  8.00355985642569 1.39509775241291  C 8.90533835811403 1.39509775241291  9.76961715973213 1.67558389711617  10.5035398611061 2.20722430210926  C 10.8588941617714 2.46387829072662  11.1731773623598 2.77186307706745  11.4392466628578 3.12384569002839  C 11.7088873633627 3.47766154576517  11.9231713637638 3.86997549979456  12.0767415640514 4.28795485268568  L 12.3231681645128 4.95892170864248  L 12.9981627657765 5.14224598622631  C 13.9660121675884 5.40623294594702  14.6427924688554 6.31002163443528  14.6427924688554 7.34213731723222  C 14.6427924688554 7.95810688991387  14.4070800684142 8.53557836430292  13.9785120676118 8.96639041662491  C 13.6303005669599 9.31837302958586  13.1767327661107 9.53652891991061  12.6945937652081 9.59885917428911  C 12.6231657650743 9.6080253881683  12.5713804649774 9.6703556425468  12.5713804649774 9.74368535358033  L 12.5713804649774 10.8527972329625  C 12.5713804649774 10.9389596434269  12.6445941651145 11.0067896261329  12.7285220652717 10.9994566550295  C 14.5445789686716 10.8307983196524  15.9874245713727 9.27620844574158  15.9999244713962 7.36596947331811  Z " fill-rule="nonzero" fill="#333333" stroke="none" transform="matrix(1 0 0 1 1019 30 )" />
  </g>
</svg>