<?xml version="1.0" encoding="utf-8"?>
<svg version="1.1" xmlns:xlink="http://www.w3.org/1999/xlink" width="7px" height="7px" xmlns="http://www.w3.org/2000/svg">
  <g transform="matrix(1 0 0 1 -1023 -35 )">
    <path d="M 0.983513432091584 3.5008752188047  C 1.05739839249163 3.4991247811953  1.11896919282491 3.44136034008502  1.12248752427256 3.36609152288072  C 1.15415250730105 2.77969492373093  1.39867654291045 2.2335583895974  1.81735798517696 1.81520380095024  C 2.26418607902432 1.36884221055264  2.87285741946214 1.1185296324081  3.50615708003327 1.1185296324081  C 4.14297507205205 1.1185296324081  4.74285058387086 1.36534133533383  5.19495617488969 1.81520380095024  C 5.219584495023 1.83970992748187  5.24245364943249 1.8642160540135  5.2670819695658 1.89047261815454  L 4.82729053861362 2.2335583895974  C 4.73405475525185 2.30532633158289  4.76571973828035 2.45236309077269  4.88006551032789 2.48037009252313  L 6.60756625110811 2.90047511877969  C 6.69552453729852 2.92148037009252  6.78172365776511 2.85496374093523  6.78172365776511 2.76569142285571  L 6.79051948638423 0.992498124531132  C 6.79051948638423 0.875218804701172  6.65682289137473 0.808702175543885  6.56358710801284 0.882220555138783  L 6.15546066008927 1.20080020005001  C 5.5116060051752 0.465616404101024  4.56517484576621 0  3.5079162457571 0  C 1.61857225838654 0  0.0775430843302104 1.4896224056014  0.000139792482629133 3.35558889722431  C -0.00337853896501936 3.43435858964741  0.0599514270920821 3.5008752188047  0.140873050387312 3.5008752188047  L 0.983513432091584 3.5008752188047  Z M 6.99986020751737 3.64441110277569  C 7.00337853896502 3.56564141035259  6.94004857290792 3.4991247811953  6.85912694961269 3.4991247811953  L 6.0164865679083 3.4991247811953  C 5.94260160750837 3.4991247811953  5.88103080717509 3.55688922230557  5.87575331000362 3.63215803950988  C 5.84408832697513 4.21855463865966  5.59956429136573 4.7646911727932  5.18088284909921 5.18304576144036  C 4.73405475525185 5.62940735183796  4.12538341481403 5.87971992998249  3.49208375424291 5.87971992998249  C 2.85526576222413 5.87971992998249  2.25539025040532 5.63290822705676  1.80328465938648 5.18304576144036  C 1.77865633925317 5.15853963490873  1.75578718484369 5.1340335083771  1.73115886471038 5.10777694423606  L 2.17095029566255 4.7646911727932  C 2.26418607902432 4.6929232308077  2.23252109599583 4.54588647161791  2.11817532394828 4.51787946986747  L 0.390674583168069 4.0977744436109  C 0.302716296977657 4.07676919229807  0.216517176511069 4.14328582145536  0.216517176511069 4.23255813953489  L 0.209480513615772 6.00750187546887  C 0.209480513615772 6.12478119529883  0.343177108625272 6.19129782445611  0.436412891987157 6.11777944486122  L 0.844539339910726 5.79919979994999  C 1.48839399482469 6.53438359589898  2.43482515423379 7  3.49208375424291 7  C 5.38142774161335 7  6.92245691566979 5.5103775943986  6.99986020751737 3.64441110277569  Z " fill-rule="nonzero" fill="#333333" stroke="none" transform="matrix(1 0 0 1 1023 35 )" />
  </g>
</svg>