<?xml version="1.0" encoding="utf-8"?>
<svg version="1.1" xmlns:xlink="http://www.w3.org/1999/xlink" width="14px" height="14px" xmlns="http://www.w3.org/2000/svg">
  <g transform="matrix(1 0 0 1 -1092 -29 )">
    <path d="M 14 3.96375000000001  C 14 3.66624999999999  13.88275 3.38274999999999  13.67275 3.17275000000001  L 10.82725 0.327249999999992  C 10.696 0.195999999999998  10.535 0.0997500000000002  10.36 0.0472499999999911  L 10.36 0  L 0.559999999999945 0  C 0.250250000000051 0  0 0.250249999999994  0 0.560000000000002  L 0 13.44  C 0 13.74975  0.250250000000051 14  0.559999999999945 14  L 13.4400000000001 14  C 13.7497499999999 14  14 13.74975  14 13.44  L 14 3.96375000000001  Z M 4.75999999999999 3.08000000000001  L 4.75999999999999 1.25999999999999  L 9.24000000000001 1.25999999999999  L 9.24000000000001 3.08000000000001  L 4.75999999999999 3.08000000000001  Z M 12.74 4.0215  L 12.74 12.74  L 1.25999999999999 12.74  L 1.25999999999999 1.25999999999999  L 3.63999999999999 1.25999999999999  L 3.63999999999999 3.63999999999999  C 3.63999999999999 3.94974999999999  3.89025000000004 4.19999999999999  4.20000000000005 4.19999999999999  L 9.79999999999995 4.19999999999999  C 10.10975 4.19999999999999  10.36 3.94974999999999  10.36 3.63999999999999  L 10.36 1.64150000000001  L 12.74 4.0215  Z M 9.51999999999998 8.29499999999999  C 9.51999999999998 6.90375  8.39125000000001 5.77500000000001  7 5.77500000000001  C 5.60874999999999 5.77500000000001  4.48000000000002 6.90375  4.48000000000002 8.29499999999999  C 4.48000000000002 9.68625  5.60874999999999 10.815  7 10.815  C 8.39125000000001 10.815  9.51999999999998 9.68625  9.51999999999998 8.29499999999999  Z M 8.39999999999998 8.29499999999999  C 8.39999999999998 9.0685  7.77350000000001 9.69499999999999  7 9.69499999999999  C 6.22649999999999 9.69499999999999  5.60000000000002 9.0685  5.60000000000002 8.29499999999999  C 5.60000000000002 7.5215  6.22649999999999 6.89500000000001  7 6.89500000000001  C 7.77350000000001 6.89500000000001  8.39999999999998 7.5215  8.39999999999998 8.29499999999999  Z " fill-rule="nonzero" fill="#333333" stroke="none" transform="matrix(1 0 0 1 1092 29 )" />
  </g>
</svg>