<?xml version="1.0" encoding="utf-8"?>
<svg version="1.1" xmlns:xlink="http://www.w3.org/1999/xlink" width="23px" height="23px" xmlns="http://www.w3.org/2000/svg">
  <g transform="matrix(1 0 0 1 -1147 -7 )">
    <path d="M 16.1042797204724 22.099762000026  C 14.6760594005697 22.6980496073028  13.1408421227956 23.0042251585447  11.5905511811024 22.9999559619531  C 5.20300027635157 22.9807785319925  0.0350943611867914 17.8377077668795  0.0350943611867914 11.500030629791  C 0.0350943611867914 6.89307661937264  2.80612083926545 2.7307367262111  7.07682264173228 0.92269881041371  C 8.4325903373074 0.391357268764432  9.87720994538283 0.11853166519787  11.334911365672 0.11853166519787  C 17.7361838101768 0.11853166519787  22.9254404296484 5.26724718389115  22.9254404296484 11.6185096461744  C 22.9254404296484 16.1387359380669  20.2565211486786 20.2397412784445  16.1042797204724 22.099762000026  Z M 21.366516003937 11.4999779809766  C 21.366516003937 6.14382386146564  16.9661977253937 1.80038794631505  11.5905511811024 1.80038794631505  C 6.19222258464567 1.80038794631505  1.81458635826772 6.16632870995229  1.81458635826772 11.4999779809766  C 1.81458635826772 16.8336272520008  6.19222258464567 21.1995680156381  11.5905511811024 21.1995680156381  C 16.9888797775591 21.1995680156381  21.366516003937 16.8561321004875  21.366516003937 11.4999779809766  Z " fill-rule="nonzero" fill="#c9c9c9" stroke="none" transform="matrix(1 0 0 1 1147 7 )" />
  </g>
</svg>