<?xml version="1.0" encoding="utf-8"?>
<svg version="1.1" xmlns:xlink="http://www.w3.org/1999/xlink" width="14px" height="14px" xmlns="http://www.w3.org/2000/svg">
  <g transform="matrix(1 0 0 1 -1091 -33 )">
    <path d="M 0 12.8333715624712  L 0 14  L 14 14  L 14 12.8333715624712  L 0 12.8333715624712  Z M 5.00849999999991 10.5001146874136  L 2.33333333333333 10.5001146874136  L 2.33333333333333 7.82503568016014  L 6.41666666666667 3.7418361488094  L 9.09183333333325 6.4169151560629  L 5.00849999999991 10.5001146874136  Z M 7.24150000000009 2.91702984347654  L 8.75 1.40857927375182  L 11.4251666666666 4.08365828100532  L 9.91666666666667 5.59210885073005  L 7.24150000000009 2.91702984347654  Z M 5.49150000000009 11.6667431249424  L 12.6624166666666 4.49664474789051  L 12.663 4.49606143367175  C 12.8907227973609 4.26827731787469  12.8907227973609 3.89903924413595  12.663 3.6712551283389  L 12.6624166666666 3.67067181412013  L 9.16299999999998 0.171369815752545  L 9.16241666666659 0.170786501533775  C 8.93462508663336 -0.0569288338445868  8.56537491336664 -0.0569288338445868  8.33758333333341 0.170786501533775  L 8.33700000000002 0.171369815752545  L 1.16666666666667 7.34205150702322  L 1.16666666666667 11.6667431249424  L 5.49150000000009 11.6667431249424  Z " fill-rule="nonzero" fill="#181818" stroke="none" transform="matrix(1 0 0 1 1091 33 )" />
  </g>
</svg>