<?xml version="1.0" encoding="utf-8"?>
<svg version="1.1" xmlns:xlink="http://www.w3.org/1999/xlink" width="14px" height="14px" xmlns="http://www.w3.org/2000/svg">
  <g transform="matrix(1 0 0 1 -1127 -33 )">
    <path d="M 8.99827223900898 10.4979842593108  C 8.9982722233843 10.7748128191683  8.77519678007104 11.0005759326075  8.49836822052247 11.0005759326075  C 8.22153966097389 11.0005759326075  7.99846420203595 10.7775004890452  7.99846420203595 10.5006719135631  L 7.99846420203595 4.9990401279455  C 7.99846420203595 4.72221156808802  8.22153964534944 4.4991361089011  8.49836822052247 4.4991361089011  C 8.77519679569572 4.4991361089011  8.99827223900898 4.72221155246339  8.99827223900898 4.9990401279455  L 8.99827223900898 10.4979842593108  Z M 5.99884817496393 10.4979842593108  C 5.99884815933925 10.7748128191683  5.77577271602599 11.0005759326075  5.49894414085296 11.0005759326075  C 5.22211558130439 11.0005759326075  4.99904012236644 10.7775004890452  4.99904012236644 10.5006719135631  L 4.99904013799113 4.9990401279455  C 4.99904013799113 4.72221156808802  5.22211558130439 4.4991361089011  5.49894415647741 4.4991361089011  C 5.77577271602599 4.4991361089011  5.99884817496393 4.72221155246339  5.99884817496393 4.9990401279455  L 5.99884817496393 10.4979842593108  Z M 14 2.99942408301715  C 14 2.72259550753504  13.7769245566867 2.49952006397275  13.5000959815135 2.49952006397275  L 11.0005759203303 2.49952006397275  L 11.0005759359549 1.49971204150858  C 11.0005759359549 0.67191400056379  10.3340372602642 0  9.51161452874205 0  L 4.49913611950461 0  C 3.6713380794837 0  2.99942407966974 0.67191400056379  2.99942407966974 1.49971204150858  L 2.99942407966974 2.49952006397275  L 0.499904018486518 2.49952006397275  C 0.223075458937946 2.49952006397275  0 2.72259550753504  0 2.99942408301715  C 0 3.27625265849926  0.223075443313491 3.49932810206155  0.499904018486518 3.49932810206155  L 13.5000959815135 3.49932810206155  C 13.7769245410621 3.49932810206155  14 3.27625265849926  14 2.99942408301715  Z M 3.99923211664278 1.49971204150858  C 3.99923211664278 1.22557113590338  4.2249952142053 0.999808022464177  4.49913613512906 0.999808022464177  L 9.51161452874205 0.999808022464177  C 9.78575543404112 0.999808022464177  10.0007679146066 1.22019581177417  10.0007679146066 1.49971204150858  L 10.0007679146066 2.49952006397275  L 3.99923211664278 2.49952006397275  L 3.99923211664278 1.49971204150858  Z M 12.0030716271772 12.5002879584914  C 12.0003839573033 13.3253983451839  11.3284699574893 14  10.5006719174684 14  L 3.50201575240552 14  C 2.67421771238461 14  2.00230371257065 13.3280859994362  2.00230371257065 12.5002879584914  L 2.00230371257065 4.99366480381628  C 2.00230371257065 4.7168362439588  2.22537915588391 4.49376078477188  2.50220773105717 4.49376078477188  C 2.7790363062302 4.49376078477188  3.00211174954369 4.71683622833417  3.00211174954369 4.99366480381628  L 3.00211174954369 12.5002879584914  C 3.00211174954369 12.7771165183489  3.22787484710621 13.0001919775358  3.50201576803021 13.0001919775358  L 10.5033595873424 13.0001919775358  C 10.780188146891 13.0001919775358  11.0032636058289 12.7771165339735  11.0032636058289 12.5002879584914  L 11.0032635902042 5.01247839920698  C 11.0032635902042 4.7356498393495  11.2263390335177 4.51257438016258  11.5031676086907 4.51257438016258  C 11.779996183864 4.51257438016258  12.0030716271772 4.73564982372488  12.0030716271772 5.01247839920698  L 12.0030716271772 12.5002879584914  Z " fill-rule="nonzero" fill="#000000" stroke="none" transform="matrix(1 0 0 1 1127 33 )" />
  </g>
</svg>