<?xml version="1.0" encoding="utf-8"?>
<svg version="1.1" xmlns:xlink="http://www.w3.org/1999/xlink" width="12px" height="10px" xmlns="http://www.w3.org/2000/svg">
  <g transform="matrix(1 0 0 1 -389 -489 )">
    <path d="M 11.9572528026316 9.52795085  C 11.9572528026316 9.7364878625  11.7796211184211 9.90523105  11.5600994736842 9.90523105  L 11.5600994736842 10  L 0.439900526315789 10  C 0.220378881578947 9.90523105  0.0427471973684211 9.7364878625  0.0427471973684211 9.52795085  L 0.0427471973684211 6.5097348  C 0.0427471973684211 6.3015687375  0.220378881578947 6.1324546  0.439900526315789 6.1324546  C 0.659422171052632 6.1324546  0.837053855263158 6.3015687375  0.837053855263158 6.5097348  L 0.837053855263158 9  L 11.1629461447368 9  L 11.1629461447368 6.5097348  C 11.1629461447368 6.3015687375  11.3405778289474 6.1324546  11.5600994736842 6.1324546  C 11.7796211184211 6.1324546  11.9572528026316 6.3015687375  11.9572528026316 6.5097348  L 11.9572528026316 9.52795085  Z M 8.27081622368421 3.0011248375  C 8.11528077631579 3.1499775125  7.86279655263158 3.1499775125  7.70727456578947 3.0011248375  L 6.39714659210526 1.4927587125  L 6.39714659210526 6.8862731125  C 6.39714659210526 7.095181075  6.21951490789474 7.2642952125  5.99999326315789 7.2642952125  C 5.78047161842105 7.2642952125  5.60283993421053 7.095181075  5.60283993421053 6.8862731125  L 5.60283993421053 1.5071361625  L 4.30512678947368 3.001137625  C 4.14960480263158 3.1499903  3.89712057894737 3.1499903  3.74158513157895 3.001137625  C 3.58567265789474 2.8526686875  3.58567265789474 2.6117056625  3.74158513157895 2.463223925  L 5.70446110526316 0.20286845  C 5.78746002631579 0.1236517625  5.89760460526316 0.0897547375  6.00620068421052 0.0952806000000001  C 6.11478330263158 0.08975475  6.22494134210526 0.1236517625  6.30833075 0.20286845  L 8.27081622368421 2.4632111375  C 8.42672869736842 2.611680075  8.42672869736842 2.8526431  8.27081622368421 3.0011248375  Z " fill-rule="nonzero" fill="#acacac" stroke="none" transform="matrix(1 0 0 1 389 489 )" />
  </g>
</svg>