<?xml version="1.0" encoding="utf-8"?>
<svg version="1.1" xmlns:xlink="http://www.w3.org/1999/xlink" width="9px" height="9px" xmlns="http://www.w3.org/2000/svg">
  <g transform="matrix(1 0 0 1 -510 -518 )">
    <path d="M 8.99723886830357 1.775412984375  C 8.99723886830357 1.57928425111607  8.83820612611607 1.42036456138393  8.64219045535714 1.42036456138393  L 0.357809544642857 1.42036456138393  C 0.161793873883929 1.42036456138393  0.00276112165178569 1.57927396540179  0.00276112165178569 1.77540269866071  C 0.00276112165178569 1.97153143191964  0.161793873883929 2.1304408359375  0.357809544642857 2.1304408359375  L 1.06789610491071 2.1304408359375  L 1.06789610491071 7.92954446986607  C 1.06789610491071 8.5390740703125  1.69268963504464 8.99466917745536  2.25138055580357 8.99466917745536  L 6.74861942410714 8.99466917745536  C 7.30614885267857 8.99466917745536  7.6954049296875 8.55665072879464  7.6954049296875 7.92954446986607  L 7.69540493973214 2.13045112165179  L 8.6421904453125 2.13045112165179  C 8.83820611607143 2.13045112165179  8.99723886830357 1.97154171763393  8.99723886830357 1.775412984375  Z M 6.98530810379464 2.13045112165179  L 6.98530810379464 7.929554765625  C 6.98530810379464 8.09158890736607  6.94416228348214 8.28459290290179  6.74860915848214 8.28459290290179  L 2.25138056584821 8.28459290290179  C 2.03017168526786 8.28459290290179  1.77798267522321 8.09551537834821  1.77798267522321 7.929554765625  L 1.77798267522321 2.13045112165179  L 6.98530810379464 2.13045112165179  Z M 3.07981659375 0.355239853794643  C 3.07981659375 0.551368587053572  3.23884934598214 0.710288276785714  3.43486501674107 0.710288276785714  L 5.56513498325893 0.710288276785714  C 5.76115065401786 0.710288276785714  5.92018340625 0.551378872767857  5.92018340625 0.355250139508929  C 5.92018340625 0.15912140625  5.76115065401786 0.000201716517857164  5.56513498325893 0.000201716517857164  L 3.43486501674107 0.000201716517857164  C 3.23884934598214 0.000201716517857164  3.07981659375 0.159111120535714  3.07981659375 0.355239853794643  Z M 2.96146711607143 7.33781767299107  C 2.96146712611607 7.53383334375  3.12049986830357 7.69285581026786  3.31651554910714 7.69285581026786  C 3.51253121986607 7.69285581026786  3.67156397209821 7.53382305803571  3.67156397209821 7.33781767299107  L 3.67156396205357 3.07721607589286  C 3.67156396205357 2.88108733258929  3.51253120982143 2.72217793861607  3.3165155390625 2.72217793861607  C 3.12049986830357 2.72217793861607  2.96146711607143 2.88108734263393  2.96146711607143 3.07721607589286  L 2.96146711607143 7.33781767299107  Z M 5.09173708258929 7.33781767299107  C 5.09173709263393 7.53383334375  5.25076983482143 7.69285581026786  5.44678550558036 7.69285581026786  C 5.64280117633929 7.69285581026786  5.80183392857143 7.53382305803571  5.80183392857143 7.33781767299107  L 5.80183392857143 3.07721607589286  C 5.80183392857143 2.88108733258929  5.64280117633929 2.72217793861607  5.44678550558036 2.72217793861607  C 5.25076983482143 2.72217793861607  5.09173708258929 2.88108734263393  5.09173708258929 3.07721607589286  L 5.09173708258929 7.33781767299107  Z " fill-rule="nonzero" fill="#d5d5d5" stroke="none" transform="matrix(1 0 0 1 510 518 )" />
  </g>
</svg>