<?xml version="1.0" encoding="utf-8"?>
<svg version="1.1" xmlns:xlink="http://www.w3.org/1999/xlink" width="14px" height="14px" xmlns="http://www.w3.org/2000/svg">
  <g transform="matrix(1 0 0 1 -1024 -13 )">
    <path d="M 4.78582887700541 7.14318181818181  L 6.8820855614973 9.96306818181818  C 6.94197860962563 10.0446022727273  7.05802139037437 10.0446022727273  7.1179144385027 9.96306818181818  L 9.21417112299459 7.14517045454548  C 9.29090909090903 7.04176136363638  9.22165775401062 6.8886363636364  9.09625668449189 6.8886363636364  L 7.70935828877002 6.8886363636364  L 7.70935828877002 0.159090909090907  C 7.70935828877002 0.0715909090909027  7.64197860962567 0  7.55962566844916 0  L 6.43663101604283 0  C 6.35427807486632 0  6.28689839572197 0.0715909090909027  6.28689839572197 0.159090909090907  L 6.28689839572197 6.88664772727272  L 4.9037433155081 6.88664772727272  C 4.77834224598938 6.88664772727272  4.70909090909097 7.0397727272727  4.78582887700541 7.14318181818181  Z M 14 9.42613636363641  C 14 9.3386363636364  13.9326203208555 9.2670454545455  13.8502673796791 9.2670454545455  L 12.7272727272727 9.2670454545455  C 12.6449197860962 9.2670454545455  12.5775401069518 9.3386363636364  12.5775401069518 9.42613636363641  L 12.5775401069518 12.4886363636363  L 1.42245989304817 12.4886363636363  L 1.42245989304817 9.42613636363641  C 1.42245989304817 9.3386363636364  1.35508021390382 9.2670454545455  1.2727272727273 9.2670454545455  L 0.149732620320866 9.2670454545455  C 0.067379679144464 9.2670454545455  0 9.3386363636364  0 9.42613636363641  L 0 13.3636363636364  C 0 13.715625  0.267647058823678 14  0.598930481283464 14  L 13.4010695187165 14  C 13.7323529411763 14  14 13.715625  14 13.3636363636364  L 14 9.42613636363641  Z " fill-rule="nonzero" fill="#bcbcbc" stroke="none" transform="matrix(1 0 0 1 1024 13 )" />
  </g>
</svg>