<?xml version="1.0" encoding="utf-8"?>
<svg version="1.1" xmlns:xlink="http://www.w3.org/1999/xlink" width="75px" height="56px" xmlns="http://www.w3.org/2000/svg">
  <g transform="matrix(1 0 0 1 -325 -17 )">
    <path d="M 14.6041744358748 15.1689105277633  C 16.5241872686088 11.7021352686289  19.300953872539 8.7757438026295  22.6739782213158 6.66426887132018  C 26.0372377040947 4.54833410463036  29.8870478762707 3.31317137418816  33.862984432244 3.07441824379855  L 38.4641315785539 0.183930830575142  C 32.3707037551444 -0.532845769846715  26.2145700351096 0.858771559019648  21.0367205166513 4.12346306524588  C 15.8466348295907 7.36677330749787  11.9482211781257 12.2906041270956  10.0030272895648 18.0593979409867  L 14.6041744358748 15.1689105277633  Z M 56.1180407418924 37.8853826398998  C 54.1970868130161 41.3523344707878  51.4205794067943 44.2795565513881  48.0482369564514 46.3932323844819  C 44.6863142279646 48.5119868089901  40.8357500686444 49.7473914466377  36.8592307455231 49.9830830120035  L 32.2580835992132 52.8735704252269  C 38.3520179254173 53.5918032414904  44.5089884623422 52.1988633540878  49.6854946611158 48.9308301024172  C 54.8764457081048 45.6899196493013  58.7752493918537 40.7667297974378  60.7191878882023 34.9981033148154  L 56.1180407418924 37.8853826398998  Z M 0.0629963236968023 36.6695172352253  C -0.150559029085494 36.2043444550728  0.179481061578076 35.7487959393373  1.04340953419747 35.2964555117407  L 2.27944203060425 34.5329305346629  C 2.94922927342154 34.1960812800697  3.39251841480302 34.3372371581849  3.61254514191205 34.9596062571476  C 4.22732570295207 36.7657598793948  4.53471598347208 38.0939083689336  4.53795167063544 38.9248031969302  C 4.64149365986325 39.7909869944555  4.59295835241271 40.4101480052792  4.38911006112052 40.7854943175401  L 6.00371795564134 39.7781546418996  C 6.44700709702282 39.502259061947  6.77381150052308 39.5952936179776  6.97765979181528 40.06046639813  C 7.40153481021657 41.9853192815197  7.69598234208306 43.1434390996924  7.86100238741487 43.5444501170652  L 14.0476362437754 53.3162865884065  C 14.5071038209737 54.0381064196776  14.4812183236668 54.5578166981928  13.9764511261813 54.8690012476742  L 12.4556781593981 55.818595336813  C 12.1159310072444 56.1201556218774  11.7600054192739 56.0431615065418  11.3911370826499 55.6068615196402  L 7.03266647359255 48.7255124615223  C 6.59908439370117 47.9042418979427  6.19785918544345 47.6925080807699  5.83222653598286 48.0871029218647  C 5.4148228919083 48.2635477695088  5.15596791883883 48.3437499729833  5.05242592961102 48.3180852678715  L 3.73550125412005 46.2392441538107  C 3.64490201354576 45.9569323975802  3.75815106426361 45.7195338752955  4.07524840627377 45.5238404988176  C 4.04612722180343 44.7795640505736  3.79050793589732 43.6823979070415  3.3083905485554 42.2163016275264  C 3.1142493187533 41.914741342462  2.90716534029773 41.7960420813197  2.67743155169855 41.8537876678214  L 1.92028075547033 42.3221685361128  C 1.64201165942067 42.5852317635094  1.37021393769768 42.4986133837569  1.10165190313811 42.0783538375502  L 0.185952435904807 40.631506086869  C -0.0696668500012987 40.3684428594724  -0.0146601682240276 40.0412178692961  0.354208168399986 39.6402068519233  C 0.532170962385261 39.3643112719708  0.431864660320815 38.3730120370251  0.0629963236968023 36.6695172352253  Z M 9.02584976622749 30.5837740355751  C 8.79611597762837 30.3912887472362  8.91907208983637 30.1089769910057  9.38501104136141 29.7400468550227  L 11.5464500664916 28.39264983665  C 12.2291800579623 27.8825638225517  12.6077554560764 27.8536910293009  12.691883322324 28.2931991043415  L 13.5331619847998 29.6277637701583  C 13.8987946342604 29.7272145024668  14.2061849147804 29.6598446515481  14.4585685135232 29.4160299529855  L 17.0503539313813 27.8087777953551  C 17.5551211288669 27.4943851577348  17.9013396553473 27.5649630967924  18.092245197986 28.026927788806  L 18.9917662294024 29.4416946580973  C 19.3606345660264 29.868370380582  19.3120992585759 30.1859711063413  18.8429246198875 30.4009130116531  L 16.2511392020293 32.0113732574225  C 15.6719511997863 32.2070666339004  15.5878233335388 32.5503320647716  15.9922842289598 33.0379614618969  L 16.5002871136087 33.8335673203646  C 16.6167718514899 34.1768327512358  16.9241621320099 34.1832489275138  17.4289293294955 33.8720643780324  L 20.2375057872993 32.1236563422869  C 20.9234714659334 31.7803909114157  21.2858684282307 31.7964313521106  21.3279323613545 32.1878181050665  L 22.2824600745482 33.6924114422494  C 22.7257492159297 34.0805901070663  22.570436232088 34.4623525956052  21.8100497486964 34.8569474367001  L 10.4689662410898 41.917949430601  C 9.71505113202498 42.3061280954179  9.31382592376731 42.3125442716959  9.26852630348013 41.924365606879  L 8.36900527206372 40.5031825613097  C 8.0713220530338 40.0348016930182  8.10044323750415 39.688328174008  8.46284019980137 39.4637620042792  L 12.0253317666701 37.2405569239642  C 12.6368766405467 36.9454128151778  12.8730818034726 36.6759334115033  12.7242401939577 36.4385348892186  L 12.1062239457543 35.4600680068288  C 11.7761838550907 35.0975540471238  11.4267296414469 35.0205599317882  11.067568366313 35.248334189656  L 8.152214232118 37.0641120763202  C 7.72186783938998 37.4972039750829  7.34005675411251 37.3656723613846  7.00030960195884 36.6695172352253  L 6.32728667197818 35.6044319730831  C 5.87752615626997 35.059056989456  5.96165402251753 34.6387974432493  6.57643458355756 34.3372371581849  L 9.70857975769825 32.3835114815444  C 10.2489395139808 32.1332806067038  10.2295253910006 31.8573850267513  9.64063032726751 31.5622409179649  L 9.02584976622749 30.5837740355751  Z M 18.2184369973574 38.4467980642217  C 17.9919388959215 37.9302958738455  18.0566526391889 37.5581576497235  18.4158139143228 37.3335914799948  L 20.3604618995073 36.1241422515983  C 21.2599829309238 35.6493452070288  21.8812348662905 35.6718018240017  22.2177463312808 36.2043444550728  C 22.8001700206871 36.1658473974051  23.1431528600042 36.0792290176525  23.2499305363953 35.9284488751203  C 23.7158694879204 35.5595187391373  23.9909028968067 35.7584202037542  24.0782664502177 36.5251532689711  L 24.7512893801983 37.5902385311134  C 25.1622216499461 38.2414804233268  25.0813294708619 38.6617399695336  24.5021414686189 38.8574333460115  C 24.107387634688 39.1910745124657  24.0426738914206 39.6402068519233  24.3047645516535 40.2176627169402  L 26.100570927323 43.0504045436619  C 27.0000919587394 44.6352000843194  26.8771358465314 45.8638978415497  25.7284669035356 46.74612207977  L 23.7838189183512 47.9619874844444  C 23.4634858891777 48.2378830643969  22.9522473173655 48.1448485083664  22.2501032029145 47.679675728214  L 21.745336005429 46.8776536934683  C 21.4832453451961 46.4638103235395  21.5997300830774 45.9376838687463  22.0980259062362 45.2992743290888  C 22.3115812590185 45.1613265391125  22.1983322083006 44.7410669929058  21.7518073797557 44.0320795141906  L 20.515774883349 42.0847700138281  C 20.3248693407103 41.6260134099536  19.9980649372101 41.5778920878689  19.5288902985216 41.9532384001298  L 13.7046534044583 45.5847941734582  C 12.8374892446756 45.9601404857192  12.3262506728634 45.9473081331633  12.1741733761851 45.5462971157905  L 11.5011504462044 44.4812118536482  C 11.0902181764566 43.9999986328008  11.2973021549122 43.4546236491737  12.1256380687345 42.857919255323  L 17.8528043478967 39.2937333329132  C 18.1375448182732 38.950467902042  18.2572652433178 38.6745723220895  18.2184369973574 38.4467980642217  Z M 16.222018017559 45.992221367109  L 18.707025759026 44.4523390603974  C 19.3541631916997 44.0449118667466  19.7197958411603 44.144362599055  19.8039237074079 44.7538993454617  L 21.0399562038147 46.7012088458242  C 21.683857949325 48.035773511641  20.6160811854134 49.4409161165154  17.8366259120799 50.9166366604475  C 16.7947346454753 51.6512888442745  16.1573042742916 51.757155752861  15.9308061728559 51.2438616506237  L 15.5328166517615 50.3776778530984  C 15.0830561360533 49.6686903743832  15.0053996441325 49.2259742112036  15.2933758016723 49.0431131872816  C 16.2317250790491 48.6292698173528  16.493815739282 48.0903110100037  16.0828834695342 47.4390691177903  C 15.5263452774348 46.7172492865191  15.5684092105586 46.2360360656717  16.222018017559 45.992221367109  Z M 27.7281215704973 19.1565640845188  C 28.1972962091857 18.9448302673459  28.5338076741761 18.9801192368747  28.7150061553247 19.2688471693832  L 29.5401063819837 20.5713309538102  C 29.7601331090927 20.9145963846813  29.6662981813551 21.2578618155525  29.261837285934 21.5882948938677  L 26.9806778357592 23.009477939437  C 26.2817694084716 23.4425698381997  26.1102779888131 23.8724536488234  26.469439263947 24.2959212831691  L 27.1359908196009 26.1790690207519  C 27.2104116243584 26.2945601937553  27.5501587765121 26.2047337258638  28.155232276062 25.9063815289384  L 30.0545806409593 24.7225970056538  C 30.6078831458953 24.6231462733453  30.9638087338658 24.7643021514605  31.1223574048709 25.1492727281385  L 38.1599769851973 36.2556738652966  C 38.6744512441729 37.6287355887812  38.4447174555737 38.6553237932556  37.4675399322364 39.3450627431369  L 33.7626781301795 41.6516781150655  C 33.1931971894267 42.0077758984925  32.7110798020848 41.9468222238519  32.3195616553172 41.4624009148655  L 27.3721959825268 33.6539143845816  C 27.2265900601752 33.4229320385748  27.0550986405167 33.3651864520731  26.8674287850413 33.4838857132155  C 26.5891596889916 33.7405327643341  26.2688266598182 33.6603305608596  25.9129010718476 33.2272386620969  L 24.8710098052429 31.5846975349378  C 24.6736328882775 31.1387732836192  24.7707035031786 30.795507852748  25.1492789012927 30.5645255067413  C 25.1816357729263 30.057647580782  24.7351109443815 28.7230829149652  23.8032330413314 26.5544153330129  C 23.4796643249945 25.6272778608469  23.1755097316379 25.2904286062537  22.8972406355882 25.5470756573723  L 22.5186652374741 25.784474179657  C 22.14008983936 26.0218727019418  21.8456423074934 26.0475374070536  21.6353226418745 25.8518440305757  L 20.7584514206016 24.4659499545351  C 20.4025258326311 24.0424823201894  20.4413540785915 23.6928007130403  20.8878789071364 23.4169051330878  L 27.7281215704973 19.1565640845188  Z M 28.0096263537104 29.0246432000296  L 34.0053546674322 38.4852951218895  L 35.4290570193143 37.5966547073913  L 29.4333287055925 28.1424189618093  L 28.0096263537104 29.0246432000296  Z M 30.7631961297369 17.3054972283258  C 30.5914163635884 16.931084279711  30.6600475788139 16.491306662802  30.9379232365589 16.1858744678208  L 32.458696203342 15.2394884668209  C 33.037884205585 14.7165701001667  33.3776313577387 14.7935642155023  33.4747019726398 15.4704708128277  C 33.5232372800903 15.9388516811192  33.8953413038776 15.8714818302005  34.5974854183286 15.2715693482108  L 35.312572281433 14.8256450968922  L 38.9786058375295 12.5446944300755  C 39.9072480534163 12.0442326803942  40.6190992293573 12.5094054605467  41.107687991026 13.9370046823939  L 41.1885801701102 17.2220869367122  L 42.2628283083485 16.5548046038038  L 42.977915171453 16.1088803524852  C 43.4794466817751 15.7142855113904  43.8547863927258 15.8522333013666  44.1136413657953 16.519515634275  L 51.2450958738594 27.7734888258263  C 52.0604890390283 29.326203485094  51.6042571489933 30.6415196220768  49.8764002037546 31.719437236775  L 46.569527922792 33.7758217338629  C 46.1521242787175 34.0388849612595  45.8253198752173 33.9073533475612  45.5826433379646 33.400475421602  L 45.0196337715385 32.5182511833817  C 44.6960650552017 32.1429048711208  44.7672501727958 31.8477607623344  45.2234820628307 31.6488592977174  L 48.7083171377786 29.4801917157651  L 47.9770518388573 28.3284880738703  L 41.4506708303431 32.3963438341004  L 43.1882348370719 35.1392591929306  C 43.4373827486513 35.3959062440492  43.3985545026909 35.6653856477238  43.0814571606808 35.9541135802322  L 41.292122159338 37.0705282525982  C 41.0332671862685 37.3079267748829  40.7194055314218 37.2148922188524  40.3634799434513 36.7753841438118  L 32.3325044039707 24.1066440829691  C 31.9215721342229 23.4586102788946  32.1027706153715 22.8907786782947  32.8760998474166 22.4095654574473  L 37.8817078891476 19.2913037863561  C 38.2182193541379 16.9429832686208  38.1082059905834 15.977348738787  37.5484321113207 16.4104406375496  L 35.0472459340369 17.9695714730952  C 34.2965665121354 18.3577501379121  33.9632907343084 18.8132986536477  34.0441829133926 19.3330089321629  C 34.0441829133926 19.9970831769323  33.8823985552242 20.5873713945051  33.555594151724 21.1231221137152  L 32.3939824600747 21.8481500331253  C 31.8956866369159 22.2395367860812  31.4976971158216 22.2010397284134  31.1967782096283 21.7294507719829  L 30.3554995471525 20.3980941943051  C 30.1516512558603 19.9489618548476  30.2487218707614 19.6441934816442  30.6434757046923 19.4805809865561  C 30.895859303435 18.8293390943426  30.9346875493955 18.1011030867935  30.7631961297369 17.3054972283258  Z M 35.9920665857404 24.1611815813318  L 37.1730924003699 26.0250807900807  L 39.4057165430942 24.6327705377623  L 38.2246907284647 22.7688713290133  L 35.9920665857404 24.1611815813318  Z M 40.6967557212782 26.6731145941553  L 38.6420943725392 27.9531417616093  L 40.1013892832184 30.2597571335379  L 42.1592863191207 28.9765218779448  L 40.6967557212782 26.6731145941553  Z M 41.9101384075414 23.0736397022167  L 43.874200515706 21.8481500331253  L 42.6964103882399 19.9842508243763  L 40.7323482800752 21.2097404934677  L 41.9101384075414 23.0736397022167  Z M 44.6604724964046 27.4173910423992  L 46.6277702917326 26.1919013733079  L 45.1652396938901 23.8852860013793  L 43.2011775857254 25.1107756704707  L 44.6604724964046 27.4173910423992  Z M 44.0456919353646 9.50342687431986  C 43.7868369622951 9.0895835043911  43.8806718900328 8.73990189724198  44.3239610314143 8.46079822915049  L 45.5826433379646 7.67802472323871  C 45.9709257975688 7.43421002467603  46.3203800112126 7.55290928581839  46.6180632302425 8.02449824224885  L 47.2328437912825 8.99975703649959  C 47.5693552562728 9.53229966757071  47.9641090902038 9.66062319313002  48.4073982315853 9.38151952503853  L 48.9962932953183 9.0157974771945  C 49.2939765143482 8.74631807351995  49.6046024820316 8.92597100930298  49.9216998240417 9.55154819640461  L 50.5364803850818 10.5268069906553  C 50.837399291275 10.7545812485231  50.7532714250274 11.0529334454485  50.2873324735024 11.4218635814315  L 48.0223514591445 12.8302142744449  C 47.394628149451 13.3082194071533  46.6827769735099 13.1702716171771  45.8997406799747 12.4292032570721  L 44.0456919353646 9.50342687431986  Z M 46.753962091104 15.9837649150649  C 46.5242283025048 15.6244590434989  46.6827769735099 15.3228987584345  47.2231367297924 15.0662517073159  L 50.4911807647946 13.0291157390618  C 51.0509546440573 12.6826422200517  51.5071865340923 12.8494628032788  51.8631121220628 13.5392017531601  L 58.0432746040966 23.2885816075285  L 59.5511048222263 22.3486117828066  C 59.9426229689939 22.1047970842439  60.2564846238407 22.2299125216642  60.5023968482567 22.7432066239015  L 60.9521573639649 23.4521941026166  C 61.4569245614504 24.122684523664  61.3857394438563 24.6231462733453  60.7321306368558 24.9503712635215  L 58.3862574434137 26.4132594548977  C 57.4155512944031 26.8463513536603  56.6519291238481 26.6249932720705  56.0921552445854 25.7427690338503  L 50.0834841822101 16.2564524068784  L 48.4915260978329 17.2477516418241  C 47.9705804645305 17.6551788354749  47.61465487656 17.5910170726952  47.4269850210846 17.0456420890682  L 46.753962091104 15.9837649150649  Z M 62.2626106651291 23.2372521973048  C 61.7513720933169 23.4008646923929  61.4083892539998 23.2917896956675  61.2401335215046 22.8971948545726  L 60.2856058083109 21.3893934292507  C 59.9296802203405 20.9530934423491  59.9749798406276 20.593787570783  60.4215046691724 20.3146839026915  C 60.9230361794946 20.0002912650712  61.1624770295838 19.5222861323628  61.146298593767 18.8742523282883  L 56.0727411216052 2.75681751803926  C 55.9012497019467 2.36222267694439  56.0306771884814 1.95479548329359  56.4610235812094 1.52170358453092  L 57.800598066844 0.687600668395427  C 58.5448061144187 0.145433772907347  58.9848595686368 0.283381562883602  59.117522742335 1.10786021460216  L 60.8065514416133 6.35629240997784  L 62.3985095259906 5.3617850868932  C 62.9356335951098 5.10834612391357  63.4889361000457 5.29762332411356  64.0519456664719 5.94244904004907  L 70.8630671453625 13.19272823415  C 71.7075814950017 13.9049238010041  72.3644259891655 14.0268311502855  72.8497790636708 13.558450281994  C 73.4095529429335 13.2119767629839  73.8107781511912 13.2921789664584  74.0502190012805 13.7958488042787  L 74.6682352494838 14.7743156866684  C 75.1179957651921 15.233072290543  75.1115243908653 15.6501237486107  74.6423497521769 16.0254700608717  L 72.966263801552 17.0713067941801  C 71.9243725349474 17.632722218502  70.9148381399764 17.5236472217766  69.9441319909658 16.7248332751699  L 61.3889751310196 7.84163721832683  L 64.79938940121 19.31055231519  C 65.0258875026458 20.6515331572847  64.7152615349624 21.6332081278134  63.8545687495064 22.2459529623591  L 62.2626106651291 23.2372521973048  Z " fill-rule="nonzero" fill="#29a1f7" stroke="none" transform="matrix(1 0 0 1 325 17 )" />
  </g>
</svg>