<?xml version="1.0" encoding="utf-8"?>
<svg version="1.1" xmlns:xlink="http://www.w3.org/1999/xlink" width="100px" height="81px" xmlns="http://www.w3.org/2000/svg">
  <g transform="matrix(1 0 0 1 -310 -3 )">
    <path d="M 97.9127707054216 32.2700769098616  C 100.005498907326 30.9438457356449  100.62860366169 28.1725551459875  99.3050694791159 26.0777561764633  L 84.1133982801621 2.08292008183432  C 82.7831092747621 -0.00409669503110712  80.0183751093384 -0.626088042002874  77.9228735924514 0.690217363024826  L 2.08487987484784 48.7286992270075  C -0.00308690215711347 50.0595481571096  -0.626301796159475 52.8263207086713  0.689328066635611 54.9242739387207  L 15.8842523001073 78.9158560550347  C 17.2134358769977 81.004446898338  19.9796006967262 81.6267601043186  22.074776987818 80.3085587738443  L 97.9127707054216 32.2700769098616  Z M 96.7319191753959 27.7210152255259  C 97.1371465545119 28.3913333783859  96.9403340773099 29.2621579353019  96.286253446433 29.6929260844011  L 20.4450066943114 77.7346619266987  C 20.2169708175519 77.8784917781524  19.9528928754247 77.9548197413185  19.6833091431596 77.9548197413185  C 19.1918383888545 77.9548197413185  18.7348995443625 77.7020286245317  18.4736677764172 77.285612919232  L 3.28199657746347 53.2907768246031  C 3.13777315886278 53.0627774959536  3.06121078787319 52.7985119434809  3.06121078787319 52.5287043089527  C 3.06121078787319 52.0386464164224  3.31290854467538 51.582957488442  3.72766230642635 51.3221199440429  L 79.5656560240299 3.28038410174529  C 79.7936748992846 3.13532968928688  80.0583018587128 3.05828838088288  80.3285261846148 3.05828838088288  C 80.8184847157228 3.05828838088288  81.2739109514342 3.31067055976856  81.5337419074062 3.72617913089693  L 96.7319191753959 27.7210152255259  Z M 27.7025267039187 13.7972420157459  L 30.1845920411353 11.6821561110119  L 29.8300112786758 8.4216698394065  L 32.6308739986542 10.1169925415087  L 35.6139066516393 8.77635347573883  L 34.8657087125046 11.9587442677848  L 37.0615070121392 14.3927200473865  L 33.801966425126 14.6530383125845  L 32.1721961316194 17.4937613815581  L 30.9067657041263 14.4675615486309  L 27.7025267039187 13.7972420157459  Z M 44.1010737090419 6.19920265027827  L 47.3248309163574 5.58094677043293  L 48.6520689996921 2.58403274234054  L 50.2167786028392 5.46380355109382  L 53.4763191898524 5.80547127416624  L 51.2284723379301 8.1841294224133  L 51.9116095867053 11.3925520409791  L 48.954601209864 9.9868334089097  L 46.1147020756699 11.6300924579723  L 46.534343528489 8.3826220996268  L 44.1010737090419 6.19920265027827  Z M 82.7731480587555 52.7018067495925  L 81.6671163226432 55.7768162572443  L 83.5864066882498 58.4320625622643  L 80.3138539631647 58.340951169445  L 78.3815514594862 60.983181561205  L 77.4609426908987 57.8430924872537  L 74.3477886571944 56.8180893180364  L 77.0543133761515 54.9795915700753  L 77.0673255142234 51.70608938521  L 79.6567409905333 53.70077809229  L 82.7731480587555 52.7018067495925  Z M 72.272352634725 67.4390745381163  L 69.7870342629903 69.5541604428504  L 70.118843783824 72.8146467144558  L 67.3309932019175 71.0802762725739  L 64.3349484108605 72.3948835118239  L 65.1091706261391 69.209238741463  L 62.9263844645763 66.7655010269164  L 66.1859250515895 66.5279606099232  L 67.8449726557579 63.7035074325245  L 69.0778727380713 66.7427231787116  L 72.272352634725 67.4390745381163  Z M 55.8119979737601 74.9329865975048  L 52.5947468354806 75.5089407592555  L 51.2414844760021 78.4960928524029  L 49.6897870109269 75.6033061303898  L 46.4302464239137 75.2356065807975  L 48.7041175519798 72.8667103674954  L 48.0470045793484 69.6647957055596  L 50.9910008181178 71.0932921858338  L 53.8439120903838 69.479318941606  L 53.391740292385 72.7267892999515  L 55.8119979737601 74.9329865975048  Z M 17.5270347316858 28.1212545582679  L 18.6590907439419 25.0397370939861  L 16.7658246544792 22.3714748757063  L 20.0383773795643 22.4918720733604  L 21.9967041593866 19.8626575948602  L 22.8912886518303 23.0190165603864  L 25.9914305474626 24.0700515561235  L 23.2718936904337 25.8987873691397  L 23.2328572762179 29.172289554005  L 20.6564539379799 27.1483150420903  L 17.5270347316858 28.1212545582679  Z " fill-rule="nonzero" fill="#29a1f7" stroke="none" transform="matrix(1 0 0 1 310 3 )" />
  </g>
</svg>