<?xml version="1.0" encoding="utf-8"?>
<svg version="1.1" xmlns:xlink="http://www.w3.org/1999/xlink" width="100px" height="88px" xmlns="http://www.w3.org/2000/svg">
  <g transform="matrix(1 0 0 1 -310 0 )">
    <path d="M 97.9541723560738 36.0915302767075  C 100.013748296589 34.681102555356  100.616551010886 31.9106195312727  99.3104784632425 29.8957227864848  L 84.0897099272384 5.81770668626965  C 82.7836373795944 3.70206510424236  79.9705580462075 3.14796849942568  77.9109821056921 4.45765138353781  L 2.05830722329513 52.6136835839682  C -0.0515022767449626 53.9233664680803  -0.604071431517459 56.7442219107834  0.70200111612653 58.8094910741909  L 15.9227696521307 82.8875071744062  C 17.2288421997745 85.0031487564334  20.0419215331615 85.5572453612501  22.1014974736769 84.2475624771379  L 97.9541723560738 36.0915302767075  Z M 96.7485669274794 31.4572677636954  C 97.1504354036776 32.1624816243712  96.8992676060538 33.0188127409061  96.2964648917566 33.4721645084833  L 20.4437900093596 81.6281967089137  C 19.7405201760128 82.0311760578713  18.8865496640918 81.8800588020122  18.434447628369 81.1748449413364  L 3.21367909236484 57.0968288411212  C 2.81181061616662 56.3916149804455  2.96251129474101 55.5352838639106  3.66578112808767 55.0819320963333  L 79.5184560104846 6.92589989590296  C 80.2217258438314 6.5229205469454  81.0756963557524 6.67403780280447  81.5277983914752 7.37925166348022  L 96.7485669274794 31.4572677636954  Z M 27.5769554618764 17.6552250618985  C 27.6774225809259 17.554480224659  30.1388669976395 15.3884662240121  30.1388669976395 15.3884662240121  L 29.7872320809661 12.1142590137318  L 32.6003114143531 13.8269212468015  L 35.5640914263142 12.5172383626893  L 34.8105880334427 15.7410731543499  L 36.9706310930076 18.2093216667151  L 33.7054497238978 18.5115561784333  L 32.0477422595806 21.382784039756  L 30.7919032714614 18.3604389225742  L 27.5769554618764 17.6552250618985  Z M 44.0535629859997 9.94824501308478  C 44.1037965455244 9.89787259446507  47.3187443551095 9.29340357102874  47.3187443551095 9.29340357102874  L 48.6248169027534 6.27105845384692  L 50.1820572480212 9.14228631516962  L 53.447238617131 9.49489324550752  L 51.2369619980413 11.912769339253  L 51.940231831388 15.1366041309136  L 48.9764518194268 13.7261764095621  L 46.1131389265151 15.3884662240121  L 46.5150074027132 12.1142590137318  L 44.0535629859997 9.94824501308478  Z M 82.6329367010201 56.5427322363046  L 81.6282655105248 59.6154497721061  L 83.5371407724659 62.2348155403304  L 80.2719594033561 62.1340707030909  L 78.3128505818903 64.7534364713152  L 77.4086465104444 61.5799740982743  L 74.3443993794337 60.5725257258803  L 77.0067780342463 58.7591186555712  L 77.0067780342463 55.484911445291  L 79.5686895700094 57.4998081900788  L 82.6329367010201 56.5427322363046  Z M 72.2848234389182 71.3018508918758  L 69.77314546268 73.4678648925228  L 70.1247803793533 76.7420721028031  L 67.3117010459664 75.0294098697334  L 64.2976874744805 76.3390927538455  L 65.051190867352 73.1152579621849  L 62.891147807787 70.6470094498197  L 66.1563291768968 70.3951473567213  L 67.8140366412141 67.5742919140182  L 69.0698756293333 70.5966370312  L 72.2848234389182 71.3018508918758  Z M 55.7579823552702 78.756968847591  L 52.59326810521 79.3614378710274  L 51.2369619980413 82.3334105695895  L 49.6797216527736 79.411810289647  L 46.4145402836638 79.0592033593092  L 48.725284021803 76.6916996841834  L 48.0220141884562 73.4678648925228  L 50.9355606408927 74.8782926138743  L 53.7988735338043 73.266375218044  L 53.3467714980815 76.5405824283243  L 55.7579823552702 78.756968847591  Z M 17.3293093188241 31.8098746940333  C 17.5302435569232 31.9106195312727  18.5851483069432 28.7875295768515  18.5851483069432 28.7875295768515  L 16.6762730450022 26.1177913900075  L 19.941454414112 26.218536227247  L 21.9005632355778 23.5991704590227  L 22.8047673070236 26.7726328320636  L 25.8690144380343 27.7800812044575  L 23.1061686641722 29.5934882747666  L 23.0559351046475 32.8676954850469  L 20.4940235688843 30.8527987402591  L 17.3293093188241 31.8098746940333  Z M 9.19147267581195 45.0074483723939  C 8.78960419961384 31.1550332519773  15.5209011759326 17.4033629688  28.0290574975993 9.49489324550752  C 40.5372138192661 1.5360511035954  55.8082159147949 1.28418901049692  68.2159051174122 7.53036891933934  L 71.2299186888982 5.61621701179082  C 67.5628688435903 3.55094784838329  63.6446512006585 2.03977528979238  59.475265760103 1.08269933601809  C 53.9495742123787 -0.176611129474341  48.27318198608 -0.327728385333409  42.6470233193063 0.578975149821115  C 36.8701639739582 1.5360511035954  31.3947059857586 3.60132026700294  26.4215835928067 6.8251550586636  C 21.4484611998549 10.0489898503242  17.1786086402498 14.0787833399  13.8631937116152 18.9145355273909  C 10.5980123425054 23.548798040403  8.38773572341573 28.7875295768515  7.13189673529658 34.3284956250181  C 6.22769266385081 38.509406370453  5.87605774717742 42.6903171158879  6.17745910432598 46.9216002799424  L 9.19147267581195 45.0074483723939  Z M 90.4693719868836 42.9925516276061  C 90.9214740226065 56.8449667480227  84.1399434867631 70.5966370312  71.6317871650963 78.5051067544925  C 59.1236308434296 86.4639488964046  43.8526287479006 86.7158109895031  31.4449395452833 80.4696310806606  L 28.4309259737974 82.3837829882092  C 32.0979758191054 84.4490521516167  36.0161934620371 85.9602247102076  40.1855789025927 86.9173006639819  C 45.711270450317 88.1766111294743  51.3876626766155 88.3277283853334  57.0138213433894 87.4210248501789  C 62.7906806887375 86.4639488964046  68.266138676937 84.3986797329971  73.2392610698888 81.1748449413364  C 78.2123834628407 78.0013825682955  82.4822360224459 73.9715890787197  85.7976509510804 69.0854644726091  C 89.0125987606655 64.451201959597  91.2731089392799 59.2124704231485  92.5289479273991 53.6715043749819  C 93.4331519988448 49.490593629547  93.7847869155183 45.3096828841121  93.4833855583696 41.0783997200576  L 90.4693719868836 42.9925516276061  Z M 11.8036177710998 55.0315596777136  L 31.4951731048082 42.2369653483106  L 37.5232002477801 51.5558627929546  C 38.0757694025525 52.6640560025879  37.8246016049287 53.6211319563621  36.8199304144333 54.4270906542773  L 22.4531323903503 63.7963605175409  L 26.1201822356582 69.438071402947  C 26.2206493547077 69.6395610774258  26.4215835928067 69.6395610774258  26.7229849499554 69.5388162401864  L 42.8479575574053 59.0109807486697  L 44.6061321407721 61.6807189355136  L 26.6727513904306 73.3671200552834  C 25.3666788427867 74.3241960090576  24.3117740927666 74.1730787531985  23.5582706998951 72.8633958690864  L 15.420434056883 60.3206636327818  L 18.7860825450424 58.1042772135152  L 20.5944906879339 60.8747602375985  L 32.9017127715016 52.815173258447  C 33.253347688175 52.5633111653485  33.3035812476997 52.31144907225  33.1026470096007 51.9084697232925  L 29.8374656404909 46.9216002799424  L 13.5115587949419 57.6005530273182  L 11.8036177710998 55.0315596777136  Z M 49.0769189384763 36.2930199511864  L 46.1131389265151 38.1567994401151  L 44.7065992598217 35.9907854394682  L 45.711270450317 35.3359439974121  C 45.9624382479408 35.184826741553  46.0629053669904 35.0337094856939  46.0629053669904 34.8825922298348  L 46.0126718074655 34.7818473925955  L 45.5605697717427 32.9180679036666  L 48.5243497837038 31.0039159961181  L 48.725284021803 31.9106195312727  L 55.4063474385968 27.528219111359  L 57.1142884624389 30.0972124609636  L 56.9133542243398 32.1624816243712  L 57.516156938637 31.7595022754136  L 66.7088983316692 45.9141519075485  C 67.3117010459664 46.820855442703  67.1610003673922 47.5764417219985  66.4074969745207 48.1809107454348  L 64.1972203554309 49.6417108854061  L 62.7404471292128 47.4253244661394  L 63.1925491649356 47.1230899544212  C 63.3934834030347 47.0223451171818  63.3934834030347 46.8712278613228  63.2930162839851 46.6697381868439  L 62.1376444149155 44.8563311165349  L 60.982272545846 45.6119173958303  L 63.7451183197081 49.8935729785045  L 61.1832067839449 51.6062352115743  L 58.4203610100828 47.3245796289  L 57.3654562600628 48.0297934895758  L 59.1738644029543 50.8002765136591  C 59.8269006767764 51.807724886053  59.7766671172515 52.5633111653485  59.02316372438 53.0670353515455  L 56.5114857481417 54.6789527473757  L 55.5068145576464 53.1677801887848  C 56.0593837124189 54.2759733984182  55.7077487957455 55.132304514953  54.5523769266759 55.8375183756288  L 49.1271524980012 59.4139600976273  L 44.003329426475 51.5558627929546  L 42.8479575574054 52.31144907225  L 40.989315854989 49.4402212109273  L 41.5418850097614 49.0876142805894  C 41.8935199264348 48.9364970247303  41.9437534859595 48.6846349316318  41.7930528073852 48.2816555826743  L 38.7790392358993 41.833985999353  L 36.8199304144333 43.0932964648454  L 35.1119893905914 40.5243031152409  L 43.6014609502768 34.9833370670742  L 45.3094019741189 37.5523304166787  L 41.642352128811 39.9198340918045  L 42.8981911169301 42.6399446972682  L 47.017342997961 39.9702065104242  L 55.1049460814483 52.4121939094894  L 55.5570481171712 52.1099593977712  C 55.8082159147951 52.0092145605318  55.8584494743198 51.8580973046727  55.6575152362207 51.656607630194  L 47.1680436765352 38.6101512076924  L 53.5979392957053 34.4292404622576  L 53.8993406528538 32.1624816243712  L 49.8806558908726 34.7818473925955  C 50.0313565694469 35.4366888346515  49.7801887718231 35.9404130208485  49.0769189384763 36.2930199511864  Z M 44.3047307836236 45.7126622330697  L 50.2825243670707 54.9308148404743  L 51.4378962361404 54.1752285611788  C 51.6388304742394 53.9737388867  51.6890640337642 53.7722492122212  51.5383633551898 53.5707595377424  L 45.8117375693665 44.7052138606757  L 44.3047307836236 45.7126622330697  Z M 52.6937352242595 38.8620133007909  L 51.5383633551898 39.6175995800863  L 52.6435016647347 41.3302618131561  L 53.7988735338043 40.5746755338606  L 52.6937352242595 38.8620133007909  Z M 55.3058803195473 45.2593104654924  L 56.461252188617 44.503724186197  L 55.3561138790721 42.7910619531273  L 54.2007420100025 43.5466482324227  L 55.3058803195473 45.2593104654924  Z M 55.3561138790721 37.0989786491015  L 56.4110186290922 38.7108960449318  L 57.5663904981618 37.9553097656364  L 56.5114857481417 36.343392369806  L 55.3561138790721 37.0989786491015  Z M 57.96825897436 41.0783997200576  L 59.0733972839047 42.7910619531273  L 60.2287691529745 42.0354756738318  L 59.1236308434296 40.3228134407621  L 57.96825897436 41.0783997200576  Z M 57.4156898195875 25.211087854853  L 62.9413813673118 21.5842737142348  L 64.6493223911539 24.1532670638394  L 59.1236308434296 27.7800812044575  L 57.4156898195875 25.211087854853  Z M 70.4764152960267 42.8918067903666  L 64.7497895102034 34.1270059505394  L 63.3934834030347 34.9833370670742  L 61.6353088196679 32.3135988802303  L 66.106095617372 29.3919986002879  L 73.0885603913145 40.1213237662833  C 73.1890275103641 40.2220686035227  73.2894946294137 40.2724410221424  73.5406624270375 40.2220686035227  L 75.2486034508795 39.1138753938894  L 76.7053766770977 41.3302618131561  L 72.8876261532155 43.8488827441409  C 72.0838892008192 44.7052138606757  71.280152248423 44.4029793489576  70.4764152960267 42.8918067903666  Z M 76.002106843751 38.5597787890727  L 77.7100478675931 37.5019579980591  C 78.2123834628407 37.2500959049606  78.3128505818903 36.9478613932424  77.9612156652169 36.5448820442849  L 68.7684742721847 17.4537353874196  L 71.8829549627201 15.4388386426317  L 73.5406624270375 18.8137906901515  L 75.3993041294538 17.6048526432788  L 86.8525557011005 31.1550332519773  C 87.0032563796748 31.4068953450757  87.2041906177738 31.4572677636954  87.4553584153976 31.2557780892167  L 88.7111974035168 30.4498193913015  L 90.1679706297351 32.6662058105682  L 87.1539570582491 34.6307301367363  C 86.299986546328 35.3863164160318  85.3957824748823 35.184826741553  84.4915784034365 34.0766335319197  L 75.9016397247014 23.7502877148818  L 81.6282655105248 35.2855715787924  C 82.3817689033963 36.6959993001439  82.0301339867229 37.8545649283969  80.5733607605048 38.7612684635515  L 77.4588800699692 40.7761652083394  L 76.002106843751 38.5597787890727  Z " fill-rule="nonzero" fill="#009966" stroke="none" transform="matrix(1 0 0 1 310 0 )" />
  </g>
</svg>