<?xml version="1.0" encoding="utf-8"?>
<svg version="1.1" xmlns:xlink="http://www.w3.org/1999/xlink" width="88px" height="88px" xmlns="http://www.w3.org/2000/svg">
  <g transform="matrix(1 0 0 1 -316 0 )">
    <path d="M 3.10964517594154 45.0648601048655  C 2.76663626548112 31.1517206699251  9.52554517731472 17.4018809936108  22.1188723185029 9.432852772659  C 34.7089327081629 1.46382455170722  50.0201971208087 1.23847088480325  62.4567201886436 7.47978765949131  L 65.4653983461103 5.57897846908396  C 61.765812369239 3.51659174864137  57.7870015469 2.00068138572078  53.6528248201605 1.07843712134972  C 42.2705541325863 -1.49346611906321  30.332354233099 0.577662296741429  20.4822298028777 6.83312061533211  C 15.5046255124487 9.97171773742537  11.2123292713885 14.0830587492721  7.86276864946393 18.9205687488331  C 4.62126906428784 23.5793890075445  2.31682196983022 28.823925949768  1.07772572540481 34.3621939245135  C 0.141973158643276 38.4925763736686  -0.187066685142777 42.7371977885578  0.100967018474756 46.9624033001003  L 3.10964517594154 45.0648601048655  Z M 84.8895029327524 42.9386972475542  C 85.2764800759687 57.329460130904  78.063388536763 70.8628158757084  65.8998762993602 78.5674385845882  C 53.306549158172 86.5332008103675  37.9952847455262 86.7618204724439  25.5620284292195 80.5205036977559  L 22.5533502717527 82.4213128881632  C 26.2521810963369 84.4845741627474  30.2312840258107 85.9994956564182  34.3659237977026 86.9185882407249  C 39.9000795517169 88.1709549729987  45.6247839344247 88.3373322675824  51.2223616831841 87.4084875166031  C 57.024714418339 86.4472587553334  62.5728076979157 84.3231853975034  67.5332520634572 81.1639047467426  C 72.5107069657069 78.0264754813781  76.8030198412104 73.9162294136809  80.152713216871 69.0797226084141  C 83.38466603977 64.4175223001422  85.6831966871398 59.1738269604765  86.9214223832892 53.6380974327337  C 87.8587446386419 49.5079523856102  88.1878023251935 45.2631007986424  87.8981810902192 41.0378880571469  L 84.8895029327524 42.9386972475542  Z " fill-rule="nonzero" fill="#29a1f7" stroke="none" transform="matrix(1 0 0 1 316 0 )" />
  </g>
</svg>