<?xml version="1.0" encoding="utf-8"?>
<svg version="1.1" xmlns:xlink="http://www.w3.org/1999/xlink" width="12px" height="12px" viewBox="0 23.5  12 12" xmlns="http://www.w3.org/2000/svg">
  <path d="M 6 24  C 9.08 24  11.5 26.42  11.5 29.5  C 11.5 32.58  9.08 35  6 35  C 2.92 35  0.5 32.58  0.5 29.5  C 0.5 26.42  2.92 24  6 24  Z " fill-rule="nonzero" fill="#ffffff" stroke="none" />
  <path d="M 6 24  C 9.08 24  11.5 26.42  11.5 29.5  C 11.5 32.58  9.08 35  6 35  C 2.92 35  0.5 32.58  0.5 29.5  C 0.5 26.42  2.92 24  6 24  Z " stroke-width="1" stroke="#1890ff" fill="none" stroke-opacity="0.847058823529412" />
  <path d="M 6 32.5  C 4.32 32.5  3 31.18  3 29.5  C 3 27.82  4.32 26.5  6 26.5  C 7.68 26.5  9 27.82  9 29.5  C 9 31.18  7.68 32.5  6 32.5  " fill-rule="nonzero" fill="#1890ff" stroke="none" fill-opacity="0.847058823529412" />
</svg>